# This file uses meters as units for non-parametric coordinates.

g default
v -62.545715 0.000000 3.245006
v 61.967384 0.000000 3.245006
v -62.545715 71.155266 3.245006
v 61.967384 71.155266 3.245006
v -62.545715 71.155266 -1.877859
v 61.967384 71.155266 -1.877859
v -62.545715 0.000000 -1.877859
v 61.967384 0.000000 -1.877859
v -58.262108 5.947596 3.245006
v 57.683777 5.947596 3.245006
v 57.683777 68.052658 3.245006
v -58.262108 68.052658 3.245006
v -58.262108 5.947596 1.032213
v 57.683777 5.947596 1.032213
v 57.683777 68.052658 1.032213
v -58.262108 68.052658 1.032213
vt 0.897159 0.163685
vt 0.897159 0.191448
vt 0.730400 0.191448
vt 0.730400 0.163685
vt 0.897159 0.483257
vt 0.897159 0.511021
vt 0.730400 0.511021
vt 0.730399 0.483257
vt 0.654458 0.243734
vt 0.654470 0.549599
vt 0.641869 0.536998
vt 0.641858 0.256335
vt 0.083441 0.549620
vt 0.083430 0.243755
vt 0.096031 0.256355
vt 0.096041 0.537019
vt 0.062345 0.564901
vt 0.675567 0.564878
vt 0.924923 0.191448
vt 0.924923 0.483257
vt 0.739830 0.889696
vt 0.739830 0.578730
vt 0.906396 0.578730
vt 0.906396 0.889696
vt 0.062332 0.214464
vt 0.675554 0.214441
vt 0.062347 0.623244
vt 0.675569 0.623221
vn 0.000000 0.000000 1.000000
vn 0.000000 0.000000 1.000000
vn 0.000000 0.000000 1.000000
vn 0.000000 0.000000 1.000000
vn 0.000000 1.000000 0.000000
vn 0.000000 1.000000 0.000000
vn 0.000000 1.000000 0.000000
vn 0.000000 1.000000 0.000000
vn 0.000000 0.000000 -1.000000
vn 0.000000 0.000000 -1.000000
vn 0.000000 0.000000 -1.000000
vn 0.000000 0.000000 -1.000000
vn 0.000000 -1.000000 0.000000
vn 0.000000 -1.000000 0.000000
vn 0.000000 -1.000000 0.000000
vn 0.000000 -1.000000 0.000000
vn 1.000000 0.000000 0.000000
vn 1.000000 0.000000 0.000000
vn 1.000000 0.000000 0.000000
vn 1.000000 0.000000 0.000000
vn -1.000000 0.000000 0.000000
vn -1.000000 0.000000 0.000000
vn -1.000000 0.000000 0.000000
vn -1.000000 0.000000 0.000000
vn 0.000000 0.000000 1.000000
vn 0.000000 0.000000 1.000000
vn 0.000000 0.000000 1.000000
vn 0.000000 0.000000 1.000000
vn -0.000000 0.000000 1.000000
vn -0.000000 0.000000 1.000000
vn -0.000000 0.000000 1.000000
vn -0.000000 0.000000 1.000000
vn 0.000000 0.000000 1.000000
vn 0.000000 0.000000 1.000000
vn 0.000000 0.000000 1.000000
vn 0.000000 0.000000 1.000000
vn -0.000000 0.000000 1.000000
vn -0.000000 0.000000 1.000000
vn -0.000000 0.000000 1.000000
vn -0.000000 0.000000 1.000000
vn 0.000000 1.000000 0.000000
vn 0.000000 1.000000 0.000000
vn 0.000000 1.000000 0.000000
vn 0.000000 1.000000 0.000000
vn -1.000000 0.000000 0.000000
vn -1.000000 0.000000 0.000000
vn -1.000000 0.000000 0.000000
vn -1.000000 0.000000 0.000000
vn 0.000000 -1.000000 0.000000
vn 0.000000 -1.000000 0.000000
vn 0.000000 -1.000000 0.000000
vn 0.000000 -1.000000 0.000000
vn 1.000000 0.000000 0.000000
vn 1.000000 0.000000 0.000000
vn 1.000000 0.000000 0.000000
vn 1.000000 0.000000 0.000000
s off
g pCube21
f 13/21/1 14/22/2 15/23/3 16/24/4
f 3/17/5 4/18/6 6/28/7 5/27/8
f 5/8/9 6/3/10 8/2/11 7/5/12
f 7/5/13 8/2/14 2/19/15 1/20/16
f 2/1/17 8/2/18 6/3/19 4/4/20
f 7/5/21 1/6/22 3/7/23 5/8/24
f 1/25/25 2/26/26 10/9/27 9/14/28
f 2/26/29 4/18/30 11/10/31 10/9/32
f 4/18/33 3/17/34 12/13/35 11/10/36
f 3/17/37 1/25/38 9/14/39 12/13/40
f 9/14/41 10/9/42 14/12/43 13/15/44
f 10/9/45 11/10/46 15/11/47 14/12/48
f 11/10/49 12/13/50 16/16/51 15/11/52
f 12/13/53 9/14/54 13/15/55 16/16/56
g default
v -62.545715 0.000000 3.245006
v 61.967384 0.000000 3.245006
v -62.545715 71.155266 3.245006
v 61.967384 71.155266 3.245006
v -62.545715 71.155266 -1.877859
v 61.967384 71.155266 -1.877859
v -62.545715 0.000000 -1.877859
v 61.967384 0.000000 -1.877859
v -58.262108 5.947596 3.245006
v 57.683777 5.947596 3.245006
v 57.683777 68.052658 3.245006
v -58.262108 68.052658 3.245006
v -58.262108 5.947596 1.032213
v 57.683777 5.947596 1.032213
v 57.683777 68.052658 1.032213
v -58.262108 68.052658 1.032213
vt 0.897159 0.163685
vt 0.897159 0.191448
vt 0.730400 0.191448
vt 0.730400 0.163685
vt 0.897159 0.483257
vt 0.897159 0.511021
vt 0.730400 0.511021
vt 0.730399 0.483257
vt 0.654458 0.243734
vt 0.654470 0.549599
vt 0.641869 0.536998
vt 0.641858 0.256335
vt 0.083441 0.549620
vt 0.083430 0.243755
vt 0.096031 0.256355
vt 0.096041 0.537019
vt 0.062345 0.564901
vt 0.675567 0.564878
vt 0.924923 0.191448
vt 0.924923 0.483257
vt 0.739830 0.889696
vt 0.739830 0.578730
vt 0.906396 0.578730
vt 0.906396 0.889696
vt 0.062332 0.214464
vt 0.675554 0.214441
vt 0.062347 0.623244
vt 0.675569 0.623221
vn 0.000000 0.000000 1.000000
vn 0.000000 0.000000 1.000000
vn 0.000000 0.000000 1.000000
vn 0.000000 0.000000 1.000000
vn 0.000000 1.000000 0.000000
vn 0.000000 1.000000 0.000000
vn 0.000000 1.000000 0.000000
vn 0.000000 1.000000 0.000000
vn 0.000000 0.000000 -1.000000
vn 0.000000 0.000000 -1.000000
vn 0.000000 0.000000 -1.000000
vn 0.000000 0.000000 -1.000000
vn 0.000000 -1.000000 0.000000
vn 0.000000 -1.000000 0.000000
vn 0.000000 -1.000000 0.000000
vn 0.000000 -1.000000 0.000000
vn 1.000000 0.000000 0.000000
vn 1.000000 0.000000 0.000000
vn 1.000000 0.000000 0.000000
vn 1.000000 0.000000 0.000000
vn -1.000000 0.000000 0.000000
vn -1.000000 0.000000 0.000000
vn -1.000000 0.000000 0.000000
vn -1.000000 0.000000 0.000000
vn 0.000000 0.000000 1.000000
vn 0.000000 0.000000 1.000000
vn 0.000000 0.000000 1.000000
vn 0.000000 0.000000 1.000000
vn -0.000000 0.000000 1.000000
vn -0.000000 0.000000 1.000000
vn -0.000000 0.000000 1.000000
vn -0.000000 0.000000 1.000000
vn 0.000000 0.000000 1.000000
vn 0.000000 0.000000 1.000000
vn 0.000000 0.000000 1.000000
vn 0.000000 0.000000 1.000000
vn -0.000000 0.000000 1.000000
vn -0.000000 0.000000 1.000000
vn -0.000000 0.000000 1.000000
vn -0.000000 0.000000 1.000000
vn 0.000000 1.000000 0.000000
vn 0.000000 1.000000 0.000000
vn 0.000000 1.000000 0.000000
vn 0.000000 1.000000 0.000000
vn -1.000000 0.000000 0.000000
vn -1.000000 0.000000 0.000000
vn -1.000000 0.000000 0.000000
vn -1.000000 0.000000 0.000000
vn 0.000000 -1.000000 0.000000
vn 0.000000 -1.000000 0.000000
vn 0.000000 -1.000000 0.000000
vn 0.000000 -1.000000 0.000000
vn 1.000000 0.000000 0.000000
vn 1.000000 0.000000 0.000000
vn 1.000000 0.000000 0.000000
vn 1.000000 0.000000 0.000000
s off
g pCube21
f 29/49/57 30/50/58 31/51/59 32/52/60
f 19/45/61 20/46/62 22/56/63 21/55/64
f 21/36/65 22/31/66 24/30/67 23/33/68
f 23/33/69 24/30/70 18/47/71 17/48/72
f 18/29/73 24/30/74 22/31/75 20/32/76
f 23/33/77 17/34/78 19/35/79 21/36/80
f 17/53/81 18/54/82 26/37/83 25/42/84
f 18/54/85 20/46/86 27/38/87 26/37/88
f 20/46/89 19/45/90 28/41/91 27/38/92
f 19/45/93 17/53/94 25/42/95 28/41/96
f 25/42/97 26/37/98 30/40/99 29/43/100
f 26/37/101 27/38/102 31/39/103 30/40/104
f 27/38/105 28/41/106 32/44/107 31/39/108
f 28/41/109 25/42/110 29/43/111 32/44/112
