# This file uses meters as units for non-parametric coordinates.

g default
v -24.598521 -1.561833 36.726530
v 24.598521 -1.561833 36.726530
v -24.598521 1.561833 36.726530
v 24.598521 1.561833 36.726530
v -24.598521 1.561833 -36.726530
v 24.598521 1.561833 -36.726530
v -24.598521 -1.561833 -36.726530
v 24.598521 -1.561833 -36.726530
vt 0.684875 0.963750
vt 0.776506 0.963063
vt 0.776572 0.971947
vt 0.684942 0.972634
vt 0.684949 0.973548
vt 0.776579 0.972861
vt 0.776646 0.981745
vt 0.685015 0.982432
vt 0.006284 0.010451
vt 0.316121 0.010451
vt 0.316121 0.473049
vt 0.006284 0.473049
vt 0.871125 0.956092
vt 0.871462 1.001152
vt 0.804186 1.001656
vt 0.803848 0.956596
vt 0.623013 0.977506
vt 0.684385 0.977046
vt 0.684452 0.985930
vt 0.623080 0.986390
vt 0.622940 0.967715
vt 0.684312 0.967255
vt 0.684378 0.976139
vt 0.623006 0.976599
vn 0.000000 0.000000 1.000000
vn 0.000000 0.000000 1.000000
vn 0.000000 0.000000 1.000000
vn 0.000000 0.000000 1.000000
vn 0.000000 1.000000 0.000000
vn 0.000000 1.000000 0.000000
vn 0.000000 1.000000 0.000000
vn 0.000000 1.000000 0.000000
vn 0.000000 0.000000 -1.000000
vn 0.000000 0.000000 -1.000000
vn 0.000000 0.000000 -1.000000
vn 0.000000 0.000000 -1.000000
vn 0.000000 -1.000000 0.000000
vn 0.000000 -1.000000 0.000000
vn 0.000000 -1.000000 0.000000
vn 0.000000 -1.000000 0.000000
vn 1.000000 0.000000 0.000000
vn 1.000000 0.000000 0.000000
vn 1.000000 0.000000 0.000000
vn 1.000000 0.000000 0.000000
vn -1.000000 0.000000 0.000000
vn -1.000000 0.000000 0.000000
vn -1.000000 0.000000 0.000000
vn -1.000000 0.000000 0.000000
s off
g pCube7
f 1/17/1 2/18/2 4/19/3 3/20/4
f 3/9/5 4/10/6 6/11/7 5/12/8
f 5/21/9 6/22/10 8/23/11 7/24/12
f 7/13/13 8/14/14 2/15/15 1/16/16
f 2/1/17 8/2/18 6/3/19 4/4/20
f 7/5/21 1/6/22 3/7/23 5/8/24
