# This file uses centimeters as units for non-parametric coordinates.

mtllib SideRoof.mtl
g default
v 12.188431 9.038536 -5.257481
v 21.053867 9.038536 -5.257481
v 12.188431 9.281163 -5.458373
v 21.053867 9.281163 -5.458373
v 12.188431 9.038536 5.257481
v 21.053867 9.038536 5.257481
v 21.053867 9.281163 5.458373
v 12.188431 9.281163 5.458373
v 12.188431 13.217518 -0.210278
v 12.188431 13.217518 0.210278
v 21.053867 13.217518 -0.210278
v 21.053867 13.217518 0.210278
v 12.188431 13.626478 -0.210278
v 12.188431 13.626478 0.210278
v 21.053867 13.626478 -0.210278
v 21.053867 13.626478 0.210278
v 11.790865 11.664186 -0.210278
v 11.790865 11.664186 0.210278
v 11.790865 13.941478 0.210278
v 11.790865 13.941478 -0.210278
v 20.092609 11.664186 -0.210278
v 20.092609 11.664186 0.210278
v 21.504984 13.941478 -0.210278
v 21.504984 13.941478 0.210278
v 21.504984 13.217518 -0.210278
v 21.504984 13.217518 0.210278
v 12.188431 11.253252 2.778010
v 21.053867 11.253252 2.778010
v 21.053867 10.927458 2.679560
v 12.188431 10.927458 2.679560
v 12.188431 10.927458 -2.679560
v 21.053867 10.927458 -2.679560
v 21.053867 11.253252 -2.778010
v 12.188431 11.253252 -2.778010
vt 0.345567 0.851590
vt 1.800956 0.881260
vt 0.018299 0.851146
vt 0.334307 0.851884
vt 1.007042 0.850811
vt 0.996288 0.992465
vt 1.334307 0.851884
vt 1.018299 0.851146
vt 0.572438 0.988316
vt 0.577445 0.988303
vt 0.576873 0.799654
vt 0.572539 0.799819
vt 0.573135 0.915264
vt 0.576634 0.915299
vt 0.571869 0.894139
vt 0.577801 0.894079
vt 0.577071 0.891253
vt 0.572560 0.891175
vt 1.334754 0.606760
vt 0.579767 0.801751
vt 1.016782 0.731856
vt 1.336314 0.732601
vt 1.996288 0.992465
vt 0.553967 0.983570
vt 0.005521 0.736572
vt 0.347562 0.737362
vt 0.334754 0.606760
vt 0.336314 0.732601
vt 0.580758 0.796604
vt 1.005521 0.736572
vt 0.569652 0.801898
vt 0.016782 0.731856
vt 0.582865 0.895555
vt 0.996288 0.936862
vt 1.996288 0.936862
vt 0.566812 0.895610
vt 1.800956 0.936862
vt 0.018266 0.862436
vt 0.800956 0.936862
vt 0.800956 0.992465
vt 1.347562 0.737362
vt 1.334278 0.863175
vt 0.996288 0.881260
vt 0.800956 0.881260
vt 1.996288 0.881260
vt 1.800956 0.992465
vt 1.345606 0.616462
vt 0.345606 0.616462
vt 0.007685 0.616687
vt 1.007685 0.616687
vt 1.018266 0.862436
vt 1.345567 0.851590
vt 0.334278 0.863175
vt 0.007042 0.850811
vt 0.569145 0.887953
vt 0.018553 0.607101
vt 1.018553 0.607101
vt 0.580461 0.888061
vt 0.595916 0.983539
vt 0.568414 0.796873
vt 0.571717 0.781396
vt 0.576624 0.781120
vn 0.000000 -0.637751 -0.770243
vn 0.000000 -0.637751 -0.770243
vn 0.000000 -0.637751 -0.770243
vn 0.000000 -0.637751 -0.770243
vn 0.000000 -0.637751 0.770243
vn 0.000000 -0.637751 0.770243
vn 0.000000 -0.637751 0.770243
vn 0.000000 -0.637751 0.770243
vn -1.000000 -0.000000 0.000000
vn -1.000000 -0.000000 0.000000
vn -1.000000 -0.000000 0.000000
vn -1.000000 -0.000000 0.000000
vn 0.000000 -1.000000 0.000000
vn 0.000000 -1.000000 0.000000
vn 0.000000 -1.000000 0.000000
vn 0.000000 -1.000000 0.000000
vn 0.739880 -0.672739 0.000000
vn 0.739880 -0.672739 0.000000
vn 0.849827 -0.527062 0.000000
vn 0.849827 -0.527062 0.000000
vn 0.000000 1.000000 0.000000
vn 0.000000 1.000000 0.000000
vn 0.000000 1.000000 0.000000
vn 0.000000 1.000000 0.000000
vn 0.000000 0.734374 0.678745
vn 0.000000 0.734374 0.678745
vn 0.000000 0.770246 0.637747
vn 0.000000 0.770246 0.637747
vn 0.000000 -0.733214 0.679997
vn 0.000000 -0.733214 0.679997
vn 0.000000 -0.770245 0.637748
vn 0.000000 -0.770245 0.637748
vn 1.000000 0.000004 0.000000
vn 1.000000 0.000004 0.000000
vn 1.000000 0.000001 0.000000
vn 1.000000 0.000002 0.000000
vn -1.000000 -0.000002 0.000000
vn -1.000000 -0.000002 0.000000
vn -1.000000 -0.000001 0.000000
vn -1.000000 -0.000001 0.000000
vn -1.000000 0.000000 0.000000
vn -1.000000 0.000000 0.000000
vn -1.000000 0.000000 0.000000
vn -1.000000 0.000000 0.000000
vn -0.000000 0.734374 -0.678745
vn -0.000000 0.770245 -0.637748
vn -0.000000 0.770245 -0.637748
vn -0.000000 0.734374 -0.678745
vn 0.000000 -0.733214 -0.679997
vn 0.000000 -0.770245 -0.637748
vn 0.000000 -0.770245 -0.637748
vn 0.000000 -0.733214 -0.679997
vn 1.000000 -0.000001 0.000000
vn 1.000000 -0.000002 0.000000
vn 1.000000 -0.000003 0.000000
vn 1.000000 -0.000001 0.000000
vn 0.000000 -0.000000 1.000000
vn 0.000000 -0.000000 1.000000
vn 0.000000 -0.000000 1.000000
vn 0.000000 -0.000000 1.000000
vn -0.000000 0.000000 -1.000000
vn -0.000000 0.000000 -1.000000
vn -0.000000 0.000000 -1.000000
vn -0.000000 0.000000 -1.000000
vn -0.000000 -0.000000 -1.000000
vn -0.000000 0.000000 -1.000000
vn 0.000000 0.000000 1.000000
vn 0.000000 -0.000000 1.000000
vn -0.000000 -0.000000 -1.000000
vn 0.000000 0.000000 1.000000
vn 0.000000 0.000000 1.000000
vn 0.000000 0.000000 1.000000
vn -0.000000 -0.000000 -1.000000
vn -0.000000 -0.000000 -1.000000
vn 1.000000 -0.000004 0.000000
vn 1.000000 -0.000004 0.000000
vn 0.000000 0.805474 0.592631
vn 0.000000 0.805474 0.592631
vn 1.000000 -0.000004 0.000000
vn 1.000000 -0.000004 0.000000
vn 0.000000 -0.806637 -0.591048
vn 0.000000 -0.806637 -0.591048
vn -1.000000 0.000000 0.000000
vn -1.000000 0.000000 0.000000
vn 0.000000 -0.806637 0.591048
vn 0.000000 -0.806637 0.591048
vn 1.000000 0.000000 0.000000
vn 1.000000 0.000000 0.000000
vn 0.000000 0.805474 -0.592631
vn 0.000000 0.805474 -0.592631
vn -1.000000 0.000000 0.000000
vn -1.000000 0.000000 0.000000
s off
g Side_Roof House
usemtl StingrayPBS1SG
f 2/53/1 1/38/2 3/3/3 4/4/4
f 5/51/5 6/42/6 7/7/7 8/8/8
f 17/61/9 18/62/10 19/11/11 20/12/12
f 18/10/13 17/9/14 21/13/15 22/14/16
s 1
f 22/14/17 21/13/18 25/15/19 26/16/20
s off
f 20/12/21 19/11/22 24/17/23 23/18/24
s 2
f 16/19/25 14/57/26 27/21/27 28/22/28
s 3
f 11/23/29 9/46/30 31/37/31 32/35/32
s 4
f 15/27/33 11/48/34 32/26/35 33/28/36
s 5
f 14/57/37 10/50/38 30/30/39 27/21/40
s 6
f 13/56/41 34/32/42 31/25/43 9/49/44
s 7
f 15/27/45 33/28/46 34/32/47 13/56/48
s 8
f 12/43/49 29/34/50 30/39/51 10/44/52
s 9
f 16/19/53 28/22/54 29/41/55 12/47/56
s 10
f 10/29/57 14/20/58 19/11/59 18/62/60
s 11
f 13/31/61 9/60/62 17/61/63 20/12/64
f 9/24/62 11/36/65 21/13/66 17/9/63
s 10
f 12/33/67 10/59/57 18/10/60 22/14/68
s 11
f 11/36/65 25/15/69 21/13/66
s 10
f 26/16/70 12/33/67 22/14/68
f 14/20/58 16/58/71 24/17/72 19/11/59
s 11
f 15/55/73 13/31/61 20/12/64 23/18/74
f 11/36/65 15/55/73 23/18/74 25/15/69
s 1
f 26/16/20 25/15/19 23/18/75 24/17/76
s 10
f 16/58/71 12/33/67 26/16/70 24/17/72
s 2
f 28/22/28 27/21/27 8/8/77 7/7/78
s 9
f 29/41/55 28/22/54 7/7/79 6/52/80
s 8
f 30/39/51 29/34/50 6/6/81 5/40/82
s 5
f 27/21/40 30/30/39 5/5/83 8/8/84
s 3
f 32/35/32 31/37/31 1/2/85 2/45/86
s 4
f 33/28/36 32/26/35 2/1/87 4/4/88
s 7
f 34/32/47 33/28/46 4/4/89 3/3/90
s 6
f 31/25/43 34/32/42 3/3/91 1/54/92
