# This file uses meters as units for non-parametric coordinates.

g default
v -83.476057 -0.130031 323.152853
v -42.331857 -0.130031 322.980337
v -83.476057 53.851818 323.152853
v -42.331857 53.851818 322.980337
v -83.815796 53.851818 242.082018
v -42.671526 53.851818 242.081597
v -83.815796 -0.130031 242.082018
v -42.671526 -0.130031 242.081597
v -84.101698 27.064148 249.700611
v -83.470414 27.064148 315.661491
v -83.470449 45.610432 315.661491
v -84.101628 45.610432 249.700611
v -55.279590 27.064148 249.700611
v -54.648280 27.064148 315.661491
v -54.648315 45.610432 315.661491
v -55.279555 45.610432 249.700611
v -83.509635 53.851818 315.661491
v -42.365435 53.851818 315.661491
v -42.365435 -0.130031 315.661491
v -83.509635 -0.130031 315.661491
v -83.777101 -0.130031 251.318235
v -42.632822 -0.130031 249.700611
v -42.632822 53.851810 249.700611
v -83.777083 53.851810 249.700611
v -83.476057 45.610432 323.152853
v -42.331857 45.369490 322.980337
v -42.365435 45.369490 315.661421
v -42.632822 45.369482 249.700611
v -42.671526 45.369490 242.081597
v -83.815796 45.369490 242.082018
v -83.476057 27.064148 323.152853
v -42.331857 27.010890 322.980337
v -42.365435 27.010890 315.661421
v -42.632822 27.010881 249.700611
v -42.671526 27.010890 242.081597
v -83.815796 27.010890 242.082018
vt 0.297817 0.532849
vt 0.263430 0.532848
vt 0.263430 0.265447
vt 0.297817 0.265447
vt 0.263430 0.562519
vt 0.297817 0.562519
vt 0.189006 0.532848
vt 0.189006 0.265447
vt 0.263430 0.234560
vt 0.297817 0.234560
vt 0.189006 0.562519
vt 0.078978 0.532849
vt 0.078978 0.265447
vt 0.189006 0.234560
vt 0.078978 0.562519
vt 0.078978 0.234560
vt 0.573218 0.264777
vt 0.683462 0.271341
vt 0.683446 0.532186
vt 0.573202 0.532180
vt 0.573436 0.233892
vt 0.683464 0.233898
vt 0.573200 0.562549
vt 0.683444 0.562556
vt 0.498032 0.264772
vt 0.499011 0.233887
vt 0.498016 0.532175
vt 0.498014 0.562545
vt 0.464616 0.264771
vt 0.464633 0.233885
vt 0.464601 0.562542
vt 0.464608 0.532173
vt 0.297801 0.562519
vt 0.297849 0.234560
vt 0.578721 0.178754
vt 0.578721 0.112903
vt 0.729425 0.114345
vt 0.729425 0.180197
vt 0.385644 0.180194
vt 0.385644 0.114343
vt 0.536348 0.112903
vt 0.536347 0.178754
vt 0.264408 0.729315
vt 0.297817 0.729315
vt 0.189222 0.729315
vt 0.078979 0.729315
vt 0.297818 0.067764
vt 0.263431 0.067764
vt 0.189006 0.067764
vt 0.078979 0.067763
vt 0.343271 0.114343
vt 0.343270 0.180194
vn 0.004192 0.000000 0.999991
vn 0.004192 0.000000 0.999991
vn 0.004192 0.000000 0.999991
vn 0.004192 0.000000 0.999991
vn 0.000000 1.000000 -0.000000
vn 0.000000 1.000000 -0.000000
vn 0.000000 1.000000 -0.000000
vn 0.000000 1.000000 -0.000000
vn -0.000010 0.000000 -1.000000
vn -0.000010 0.000000 -1.000000
vn -0.000010 0.000000 -1.000000
vn -0.000010 0.000000 -1.000000
vn 0.999992 -0.000001 -0.004107
vn 0.999992 -0.000000 -0.004107
vn 0.999991 -0.000000 -0.004160
vn 0.999991 -0.000001 -0.004160
vn -0.999987 -0.004855 0.001438
vn -0.999976 -0.005188 0.004592
vn -0.999970 -0.004447 0.006378
vn -0.999974 -0.004155 0.005910
vn -0.999910 0.012448 0.004989
vn -0.999863 0.015305 0.006307
vn -0.999837 0.017532 0.004364
vn -0.999892 0.014299 -0.003403
vn 0.000000 1.000000 -0.000000
vn 0.000000 1.000000 -0.000000
vn 0.000000 1.000000 -0.000000
vn 0.000000 1.000000 -0.000000
vn 0.000000 0.000000 -1.000000
vn 0.000000 0.000000 -1.000000
vn 0.000000 0.000000 -1.000000
vn 0.000000 0.000000 -1.000000
vn 0.000000 -1.000000 0.000000
vn 0.000000 -1.000000 0.000000
vn 0.000000 -1.000000 0.000000
vn 0.000000 -1.000000 0.000000
vn 0.000000 0.000000 1.000000
vn 0.000000 0.000000 1.000000
vn 0.000000 0.000000 1.000000
vn 0.000000 0.000000 1.000000
vn 0.000000 1.000000 -0.000000
vn 0.000000 1.000000 -0.000000
vn 0.999990 -0.000000 -0.004588
vn 0.999989 -0.000001 -0.004588
vn -1.000000 0.000428 0.000804
vn -0.999998 0.000721 0.001864
vn 0.999987 0.000000 -0.005080
vn 0.999987 0.000000 -0.005080
vn 0.000000 1.000000 0.000000
vn 0.000000 1.000000 0.000000
vn -0.999675 0.019399 -0.016520
vn -0.999498 0.005883 -0.031139
vn 0.004193 0.000000 0.999991
vn 0.004193 0.000000 0.999991
vn 0.999989 0.000000 -0.004588
vn 0.999992 0.000000 -0.004107
vn 0.999991 0.000000 -0.004160
vn 0.999987 0.000000 -0.005080
vn -0.000010 0.000000 -1.000000
vn -0.000010 0.000000 -1.000000
vn -0.999721 -0.003983 -0.023294
vn -0.999872 -0.006409 -0.014645
vn 0.004193 0.000000 0.999991
vn 0.004193 0.000000 0.999991
vn 0.999989 0.000000 -0.004588
vn 0.999992 0.000000 -0.004107
vn 0.999991 0.000000 -0.004160
vn 0.999987 0.000000 -0.005080
vn -0.000010 0.000000 -1.000000
vn -0.000010 0.000000 -1.000000
vn -1.000000 -0.000732 0.000054
vn -0.999995 -0.002377 0.001867
s 1
g polySurface41 polySurface39
f 25/43/1 26/5/2 4/6/3 3/44/4
s 2
f 17/32/5 18/1/6 23/4/7 24/29/8
s 3
f 5/47/9 6/10/10 29/9/11 30/48/12
s 4
f 18/1/13 27/2/14 28/3/15 23/4/16
s 5
f 9/17/17 21/18/18 20/19/19 10/20/20
f 11/27/21 17/32/22 24/29/23 12/25/24
s off
f 13/35/25 9/36/26 10/37/27 14/38/28
f 10/51/29 11/40/30 15/39/31 14/52/32
f 15/39/33 11/40/34 12/41/35 16/42/36
f 12/41/37 9/36/38 13/35/39 16/42/40
s 2
f 3/31/41 4/33/42 18/1/6 17/32/5
s 4
f 26/5/43 27/2/14 18/1/13 4/6/44
s 5
f 31/23/45 10/20/20 20/19/19 1/24/46
s 4
f 23/4/16 28/3/15 29/9/47 6/10/48
s 2
f 24/29/8 23/4/7 6/34/49 5/30/50
s 5
f 12/25/24 24/29/23 5/30/51 30/26/52
s 1
f 31/45/53 32/11/54 26/5/2 25/43/1
s 4
f 32/11/55 33/7/56 27/2/14 26/5/43
f 28/3/15 27/2/14 33/7/56 34/8/57
f 29/9/47 28/3/15 34/8/57 35/14/58
s 3
f 30/48/12 29/9/11 35/14/59 36/49/60
s 5
f 9/17/17 36/21/61 7/22/62 21/18/18
s 1
f 1/46/63 2/15/64 32/11/54 31/45/53
s 4
f 2/15/65 19/12/66 33/7/56 32/11/55
f 34/8/57 33/7/56 19/12/66 22/13/67
f 35/14/58 34/8/57 22/13/67 8/16/68
s 3
f 36/49/60 35/14/59 8/16/69 7/50/70
s 5
f 12/25/24 30/26/52 36/21/61 9/17/17
f 11/27/21 25/28/71 3/31/72 17/32/22
f 11/27/21 10/20/20 31/23/45 25/28/71
