# This file uses meters as units for non-parametric coordinates.

g default
v -83.476057 -0.130031 323.152853
v -42.331857 -0.130031 322.980337
v -83.476057 53.851818 323.152853
v -42.331857 53.851818 322.980337
v -83.815796 53.851818 242.082018
v -42.671526 53.851818 242.081597
v -83.815796 -0.130031 242.082018
v -42.671526 -0.130031 242.081597
v -84.101698 27.064148 249.700611
v -83.470414 27.064148 315.661491
v -83.470449 45.610432 315.661491
v -84.101628 45.610432 249.700611
v -55.279590 27.064148 249.700611
v -54.648280 27.064148 315.661491
v -54.648315 45.610432 315.661491
v -55.279555 45.610432 249.700611
v -83.509635 53.851818 315.661491
v -42.365426 53.851818 315.661491
v -42.365426 -0.130031 315.661491
v -83.509635 -0.130031 315.661491
v -83.777101 -0.130031 251.318235
v -42.632831 -0.130031 249.700611
v -42.632831 53.851810 249.700611
v -83.777083 53.851810 249.700611
v -83.476057 45.610432 323.152853
v -42.331857 45.369490 322.980337
v -42.365435 45.369490 315.661421
v -42.632831 45.369482 249.700611
v -42.671535 45.369490 242.081597
v -83.815796 45.369490 242.082018
v -83.476057 27.064148 323.152853
v -42.331857 27.010890 322.980337
v -42.365435 27.010890 315.661421
v -42.632831 27.010881 249.700611
v -42.671526 27.010890 242.081597
v -83.815796 27.010890 242.082018
vt 0.375000 0.000000
vt 0.625000 0.000000
vt 0.625000 0.250000
vt 0.375000 0.250000
vt 0.625000 0.500000
vt 0.375000 0.500000
vt 0.625000 0.750000
vt 0.375000 0.750000
vt 0.875000 0.000000
vt 0.875000 0.250000
vt 0.125000 0.000000
vt 0.363079 0.121021
vt 0.040219 0.056232
vt 0.363355 0.207887
vt 0.125000 0.250000
vt 0.038760 0.146418
vt 0.000000 0.000000
vt 1.000000 0.000000
vt 0.999999 1.000000
vt 0.000000 1.000000
vt 0.000001 0.000000
vt 0.999999 0.000001
vt 0.999999 1.000000
vt 0.000001 0.999999
vt -0.000000 -0.000000
vt 1.000000 0.000000
vt 0.999999 0.999999
vt 0.000000 1.000000
vt 0.000001 0.000001
vt 0.999999 0.000000
vt 0.999999 1.000000
vt 0.000001 1.000000
vt 0.350293 0.250000
vt 0.375000 0.274707
vt 0.625000 0.274707
vt 0.649707 0.250000
vt 0.649707 0.000000
vt 0.350293 0.000000
vt 0.153482 0.000000
vt 0.846518 0.000000
vt 0.625000 0.471518
vt 0.846518 0.250000
vt 0.153482 0.250000
vt 0.375000 0.471518
vt 0.375000 0.210717
vt 0.625000 0.210717
vt 0.649707 0.210717
vt 0.846518 0.210717
vt 0.625000 0.539283
vt 0.875000 0.210717
vt 0.125000 0.210717
vt 0.375000 0.539283
vt 0.375000 0.125695
vt 0.625000 0.125695
vt 0.649707 0.125695
vt 0.846518 0.125695
vt 0.625000 0.624305
vt 0.875000 0.125695
vt 0.125000 0.125695
vt 0.375000 0.624305
vn 0.004192 0.000000 0.999991
vn 0.004192 0.000000 0.999991
vn 0.004192 0.000000 0.999991
vn 0.004192 0.000000 0.999991
vn 0.000000 1.000000 -0.000000
vn 0.000000 1.000000 -0.000000
vn 0.000000 1.000000 -0.000000
vn 0.000000 1.000000 -0.000000
vn -0.000010 0.000000 -1.000000
vn -0.000010 0.000000 -1.000000
vn -0.000010 0.000000 -1.000000
vn -0.000010 0.000000 -1.000000
vn 0.999992 -0.000001 -0.004107
vn 0.999992 -0.000000 -0.004107
vn 0.999991 -0.000000 -0.004160
vn 0.999991 -0.000001 -0.004160
vn -0.999987 -0.004855 0.001438
vn -0.999976 -0.005188 0.004592
vn -0.999970 -0.004447 0.006378
vn -0.999974 -0.004155 0.005910
vn -0.999910 0.012448 0.004989
vn -0.999863 0.015305 0.006307
vn -0.999837 0.017532 0.004364
vn -0.999892 0.014299 -0.003403
vn 0.000000 1.000000 -0.000000
vn 0.000000 1.000000 -0.000000
vn 0.000000 1.000000 -0.000000
vn 0.000000 1.000000 -0.000000
vn 0.000000 0.000000 -1.000000
vn 0.000000 0.000000 -1.000000
vn 0.000000 0.000000 -1.000000
vn 0.000000 0.000000 -1.000000
vn 0.000000 -1.000000 0.000000
vn 0.000000 -1.000000 0.000000
vn 0.000000 -1.000000 0.000000
vn 0.000000 -1.000000 0.000000
vn 0.000000 0.000000 1.000000
vn 0.000000 0.000000 1.000000
vn 0.000000 0.000000 1.000000
vn 0.000000 0.000000 1.000000
vn 0.000000 1.000000 -0.000000
vn 0.000000 1.000000 -0.000000
vn 0.999990 -0.000000 -0.004588
vn 0.999989 -0.000001 -0.004587
vn -1.000000 0.000428 0.000804
vn -0.999998 0.000721 0.001864
vn 0.999987 0.000000 -0.005079
vn 0.999987 0.000000 -0.005079
vn 0.000000 1.000000 0.000000
vn 0.000000 1.000000 0.000000
vn -0.999675 0.019399 -0.016520
vn -0.999498 0.005883 -0.031139
vn 0.004193 0.000000 0.999991
vn 0.004193 0.000000 0.999991
vn 0.999989 0.000000 -0.004587
vn 0.999992 0.000000 -0.004107
vn 0.999991 0.000000 -0.004160
vn 0.999987 0.000000 -0.005079
vn -0.000010 0.000000 -1.000000
vn -0.000010 0.000000 -1.000000
vn -0.999721 -0.003983 -0.023294
vn -0.999872 -0.006409 -0.014645
vn 0.004193 0.000000 0.999991
vn 0.004193 0.000000 0.999991
vn 0.999989 0.000000 -0.004587
vn 0.999992 0.000000 -0.004107
vn 0.999991 0.000000 -0.004160
vn 0.999987 0.000000 -0.005079
vn -0.000010 0.000000 -1.000000
vn -0.000010 0.000000 -1.000000
vn -1.000000 -0.000732 0.000054
vn -0.999995 -0.002377 0.001867
s 1
g polySurface41 polySurface39
f 25/45/1 26/46/2 4/3/3 3/4/4
s 2
f 17/34/5 18/35/6 23/41/7 24/44/8
s 3
f 5/6/9 6/5/10 29/49/11 30/52/12
s 4
f 18/36/13 27/47/14 28/48/15 23/42/16
s 5
f 9/13/17 21/39/18 20/38/19 10/12/20
f 11/14/21 17/33/22 24/43/23 12/16/24
s off
f 13/20/25 9/17/26 10/18/27 14/19/28
f 10/21/29 11/22/30 15/23/31 14/24/32
f 15/28/33 11/25/34 12/26/35 16/27/36
f 12/29/37 9/30/38 13/31/39 16/32/40
s 2
f 3/4/41 4/3/42 18/35/6 17/34/5
s 4
f 26/46/43 27/47/14 18/36/13 4/3/44
s 5
f 31/53/45 10/12/20 20/38/19 1/1/46
s 4
f 23/42/16 28/48/15 29/50/47 6/10/48
s 2
f 24/44/8 23/41/7 6/5/49 5/6/50
s 5
f 12/16/24 24/43/23 5/15/51 30/51/52
s 1
f 31/53/53 32/54/54 26/46/2 25/45/1
s 4
f 32/54/55 33/55/56 27/47/14 26/46/43
f 28/48/15 27/47/14 33/55/56 34/56/57
f 29/50/47 28/48/15 34/56/57 35/58/58
s 3
f 30/52/12 29/49/11 35/57/59 36/60/60
s 5
f 9/13/17 36/59/61 7/11/62 21/39/18
s 1
f 1/1/63 2/2/64 32/54/54 31/53/53
s 4
f 2/2/65 19/37/66 33/55/56 32/54/55
f 34/56/57 33/55/56 19/37/66 22/40/67
f 35/58/58 34/56/57 22/40/67 8/9/68
s 3
f 36/60/60 35/57/59 8/7/69 7/8/70
s 5
f 12/16/24 30/51/52 36/59/61 9/13/17
f 11/14/21 25/45/71 3/4/72 17/33/22
f 11/14/21 10/12/20 31/53/45 25/45/71
