# This file uses meters as units for non-parametric coordinates.

g default
v 59.426341 -2.152481 280.450352
v 99.757329 -2.152481 280.450352
v 99.757329 32.138542 280.450352
v 99.757329 32.138542 261.600442
v 59.426341 -2.152481 261.600442
v 99.757329 -2.152481 261.600442
v 59.426341 25.281026 280.450352
v 66.888194 32.138542 280.450352
v 59.426341 25.281026 261.600442
v 66.888194 32.138542 261.600442
v 66.888205 -2.152481 261.600442
v 66.888205 -2.152481 280.450352
vt 0.625000 0.000000
vt 0.625000 0.750000
vt 0.375000 1.000000
vt 0.625000 1.000000
vt 0.875000 0.000000
vt 0.875000 0.250000
vt 0.375000 -0.000000
vt 0.625000 0.250000
vt 0.375000 0.750000
vt 0.125000 0.000000
vt 0.375000 0.200005
vt 0.125000 0.200005
vt 0.417508 0.500000
vt 0.625000 0.500000
vt 0.417508 0.250000
vt 0.375000 0.549995
vt 0.425000 0.750000
vt 0.425000 -0.000000
vt 0.425000 1.000000
vn 0.000000 0.000000 1.000000
vn 0.000000 0.000000 1.000000
vn 0.000000 0.000000 1.000000
vn 0.000000 0.000000 1.000000
vn 0.000000 1.000000 0.000000
vn 0.000000 1.000000 0.000000
vn 0.000000 1.000000 0.000000
vn 0.000000 1.000000 0.000000
vn 0.000000 -1.000000 0.000000
vn 0.000000 -1.000000 0.000000
vn 0.000000 -1.000000 0.000000
vn 0.000000 -1.000000 0.000000
vn 1.000000 0.000000 0.000000
vn 1.000000 0.000000 0.000000
vn 1.000000 0.000000 0.000000
vn 1.000000 0.000000 0.000000
vn -1.000000 0.000000 0.000000
vn -1.000000 0.000000 0.000000
vn -1.000000 0.000000 0.000000
vn -1.000000 0.000000 0.000000
vn 0.000000 0.000000 -1.000000
vn 0.000000 0.000000 -1.000000
vn 0.000000 0.000000 -1.000000
vn 0.000000 0.000000 -1.000000
vn -0.676662 0.736294 0.000000
vn -0.676662 0.736294 0.000000
vn -0.676662 0.736294 0.000000
vn -0.676662 0.736294 0.000000
vn 0.000000 0.000000 1.000000
vn 0.000000 0.000000 1.000000
vn 0.000000 0.000000 -1.000000
vn 0.000000 0.000000 -1.000000
vn 0.000000 -1.000000 0.000000
vn 0.000000 -1.000000 0.000000
s 1
g pCube3
f 2/1/1 3/8/2 8/15/3 12/18/4
s off
f 10/13/5 8/15/6 3/8/7 4/14/8
s 2
f 5/9/9 11/17/10 12/19/11 1/3/12
s off
f 2/1/13 6/5/14 4/6/15 3/8/16
f 5/10/17 1/7/18 7/11/19 9/12/20
s 3
f 9/16/21 10/13/22 11/17/23 5/9/24
s off
f 7/11/25 8/15/26 10/13/27 9/16/28
s 1
f 1/7/29 12/18/4 8/15/3 7/11/30
s 3
f 6/2/31 11/17/23 10/13/22 4/14/32
s 2
f 12/19/11 11/17/10 6/2/33 2/4/34
