# This file uses meters as units for non-parametric coordinates.

g default
v -47.299046 45.585003 249.700500
v -46.667805 45.585003 315.661438
v -84.195709 27.064152 249.700745
v -83.564362 27.064152 315.661438
v -83.564362 45.585003 315.661438
v -84.195709 45.585003 249.700745
v -50.027927 45.585003 251.488953
v -49.491688 45.585003 313.873352
v -83.015854 45.585003 251.488953
v -82.479630 45.585003 313.873352
v -50.027927 31.166462 251.488953
v -49.491688 31.166462 313.873352
v -83.015854 31.166462 251.488953
v -82.479630 31.166462 313.873352
v -47.299046 27.064152 249.700500
v -46.667805 27.064152 315.661438
v -87.023834 26.145336 248.781998
v -86.392456 26.145336 316.580139
v -86.392456 46.503819 316.580139
v -87.023834 46.503819 248.781998
v -84.195740 26.145336 248.782043
v -83.564362 26.145336 316.580261
v -83.564362 46.503819 316.580261
v -84.195740 46.503819 248.782043
v -87.692307 39.385014 281.023224
v -87.692307 38.032543 280.463013
v -87.692307 36.680073 281.023224
v -87.692307 36.119862 282.375702
v -87.692307 36.680073 283.728180
v -87.692307 38.032543 284.288391
v -87.692307 39.385014 283.728180
v -87.692307 39.945225 282.375702
v -89.167953 40.220886 280.187347
v -89.167953 38.032543 279.280914
v -89.167953 35.844200 280.187347
v -89.167953 34.937756 282.375702
v -89.167953 35.844200 284.564056
v -89.167953 38.032543 285.470490
v -89.167953 40.220886 284.564056
v -89.167953 41.127331 282.375702
v -90.991959 40.220886 280.187347
v -90.991959 38.032543 279.280914
v -90.991959 35.844200 280.187347
v -90.991959 34.937756 282.375702
v -90.991959 35.844200 284.564056
v -90.991959 38.032543 285.470490
v -90.991959 40.220886 284.564056
v -90.991959 41.127331 282.375702
v -92.467606 39.385014 281.023224
v -92.467606 38.032543 280.463013
v -92.467606 36.680073 281.023224
v -92.467606 36.119862 282.375702
v -92.467606 36.680073 283.728180
v -92.467606 38.032543 284.288391
v -92.467606 39.385014 283.728180
v -92.467606 39.945225 282.375702
v -92.806961 38.032543 282.375702
v -87.572632 38.955772 281.452454
v -87.572632 38.032543 281.070038
v -87.572632 37.109314 281.452454
v -87.572632 36.726898 282.375702
v -87.572632 37.109314 283.298950
v -87.572632 38.032543 283.681366
v -87.572632 38.955772 283.298950
v -87.572632 39.338188 282.375702
v -86.397491 38.955772 281.452454
v -86.397491 38.032543 281.070038
v -86.397491 37.109314 281.452454
v -86.397491 36.726898 282.375702
v -86.397491 37.109314 283.298950
v -86.397491 38.032543 283.681366
v -86.397491 38.955772 283.298950
v -86.397491 39.338188 282.375702
vt 0.650195 0.452559
vt 0.652481 0.213762
vt 0.724187 0.214448
vt 0.721901 0.453245
vt 0.965086 0.224889
vt 0.963197 0.444617
vt 0.912413 0.444181
vt 0.914301 0.224452
vt 0.745439 0.443744
vt 0.747328 0.224016
vt 0.798112 0.224452
vt 0.796224 0.444181
vt 0.396424 0.059007
vt 0.794291 0.102136
vt 0.791055 0.098900
vt 0.391549 0.054224
vt 0.737353 0.217718
vt 0.734148 0.214450
vt 0.792068 0.501264
vt 0.788832 0.498028
vt 0.173516 0.194041
vt 0.161704 0.198934
vt 0.161704 0.182230
vt 0.180815 0.201342
vt 0.161704 0.209258
vt 0.149892 0.194041
vt 0.178408 0.182230
vt 0.142592 0.201341
vt 0.188734 0.182230
vt 0.145000 0.182230
vt 0.173516 0.170418
vt 0.134676 0.182229
vt 0.180815 0.163118
vt 0.149892 0.170418
vt 0.161704 0.165525
vt 0.142593 0.163119
vt 0.161703 0.155201
vt 0.161700 0.236790
vt 0.200281 0.220812
vt 0.208939 0.229471
vt 0.161699 0.249034
vt 0.161701 0.225188
vt 0.192077 0.212609
vt 0.216266 0.182230
vt 0.228510 0.182230
vt 0.123123 0.220807
vt 0.114465 0.229464
vt 0.131327 0.212602
vt 0.204662 0.182230
vt 0.200282 0.143647
vt 0.208939 0.134988
vt 0.107144 0.182228
vt 0.094900 0.182227
vt 0.118745 0.182227
vt 0.192077 0.151852
vt 0.161700 0.127670
vt 0.161700 0.115426
vt 0.123124 0.143651
vt 0.114467 0.134993
vt 0.131328 0.151855
vt 0.161700 0.139271
vt 0.590359 0.059006
vt 0.593677 0.405707
vt 0.399743 0.405707
vt 0.924248 0.167369
vt 0.972809 0.450916
vt 0.912413 0.494965
vt 0.798112 0.173668
vt 0.640236 0.452370
vt 0.642522 0.213573
vt 0.731862 0.453247
vt 0.311388 0.207915
vt 0.311388 0.187596
vt 0.337250 0.187596
vt 0.337250 0.207915
vt 0.311388 0.228233
vt 0.337250 0.228233
vt 0.311388 0.126642
vt 0.311388 0.106324
vt 0.337250 0.106324
vt 0.337250 0.126642
vt 0.311388 0.146961
vt 0.337250 0.146961
vt 0.924248 0.102136
vt 0.794292 0.167370
vt 0.922025 0.501264
vt 0.922025 0.566498
vt 0.792068 0.566498
vt 0.796224 0.494966
vt 0.914301 0.173667
vt 0.652576 0.203801
vt 0.724282 0.204487
vt 0.721806 0.463206
vt 0.650100 0.462520
vt 0.311388 0.167278
vt 0.337250 0.167278
vt 0.311388 0.248551
vt 0.337250 0.248551
vt 0.311388 0.268869
vt 0.337250 0.268869
vt 0.735130 0.450043
vt 0.975032 0.218591
vt 0.788833 0.569734
vt 0.791056 0.170606
vt 0.394960 0.410583
vn -0.999957 0.000000 0.009312
vn -0.999957 0.000000 0.009312
vn -0.999957 0.000000 0.009312
vn -0.999957 0.000000 0.009312
vn 0.000000 -1.000000 0.000000
vn 0.000000 -1.000000 0.000000
vn 0.000000 -1.000000 0.000000
vn 0.000000 -1.000000 0.000000
vn 0.000000 0.000000 1.000000
vn 0.000000 0.000000 1.000000
vn 0.000000 0.000000 1.000000
vn 0.000000 0.000000 1.000000
vn 0.000000 1.000000 0.000000
vn 0.000000 1.000000 0.000000
vn 0.000000 1.000000 0.000000
vn 0.000000 1.000000 0.000000
vn -0.000006 0.000000 -1.000000
vn -0.000006 0.000000 -1.000000
vn -0.000006 0.000000 -1.000000
vn -0.000006 0.000000 -1.000000
vn 0.000000 1.000000 0.000000
vn 0.000000 1.000000 0.000000
vn 0.000000 1.000000 0.000000
vn 0.000000 1.000000 0.000000
vn 0.000000 1.000000 0.000000
vn 0.000000 1.000000 0.000000
vn 0.000000 1.000000 0.000000
vn 0.000000 1.000000 0.000000
vn 0.000000 1.000000 -0.000000
vn 0.000000 1.000000 -0.000000
vn 0.000000 1.000000 -0.000000
vn 0.000000 1.000000 -0.000000
vn 0.000000 1.000000 -0.000002
vn 0.000000 1.000000 -0.000002
vn 0.000000 1.000000 -0.000002
vn 0.000000 1.000000 -0.000002
vn -0.999963 0.000000 0.008595
vn -0.999963 0.000000 0.008595
vn -0.999963 0.000000 0.008595
vn -0.999963 0.000000 0.008595
vn 0.000000 0.000000 1.000000
vn 0.000000 0.000000 1.000000
vn 0.000000 0.000000 1.000000
vn 0.000000 0.000000 1.000000
vn 0.999963 0.000000 -0.008595
vn 0.999963 0.000000 -0.008595
vn 0.999963 0.000000 -0.008595
vn 0.999963 0.000000 -0.008595
vn 0.000000 0.000000 -1.000000
vn 0.000000 0.000000 -1.000000
vn 0.000000 0.000000 -1.000000
vn 0.000000 0.000000 -1.000000
vn 0.000000 -1.000000 0.000000
vn 0.000000 -1.000000 0.000000
vn 0.000000 -1.000000 0.000000
vn 0.000000 -1.000000 0.000000
vn -0.000042 0.000000 1.000000
vn -0.000042 0.000000 1.000000
vn -0.000042 0.000000 1.000000
vn -0.000042 0.000000 1.000000
vn 0.000000 1.000000 0.000000
vn 0.000000 1.000000 0.000000
vn 0.000000 1.000000 0.000000
vn 0.000000 1.000000 0.000000
vn 0.000017 0.000000 -1.000000
vn 0.000017 0.000000 -1.000000
vn 0.000017 0.000000 -1.000000
vn 0.000017 0.000000 -1.000000
vn 0.999956 -0.000022 -0.009440
vn 0.999955 -0.000022 -0.009440
vn 0.999956 -0.000022 -0.009440
vn 0.999956 -0.000022 -0.009440
vn 1.000000 0.000000 0.000000
vn 1.000000 0.000000 0.000000
vn 1.000000 0.000000 0.000000
vn 1.000000 0.000000 0.000000
vn 0.999955 0.000022 -0.009440
vn 0.999956 0.000022 -0.009440
vn 0.999956 0.000022 -0.009440
vn 0.999956 0.000022 -0.009440
vn 1.000000 0.000000 -0.000033
vn 1.000000 0.000000 -0.000033
vn 1.000000 0.000000 -0.000033
vn 1.000000 0.000000 -0.000033
vn 0.594891 0.307604 -0.742620
vn 0.594891 0.307604 -0.742620
vn 0.594891 0.307604 -0.742620
vn 0.594891 0.307604 -0.742620
vn 0.594888 -0.307602 -0.742623
vn 0.594888 -0.307602 -0.742623
vn 0.594889 -0.307603 -0.742623
vn 0.594889 -0.307603 -0.742623
vn 0.594892 -0.742619 -0.307604
vn 0.594892 -0.742619 -0.307604
vn 0.594892 -0.742619 -0.307604
vn 0.594892 -0.742619 -0.307604
vn 0.594897 -0.742616 0.307602
vn 0.594897 -0.742616 0.307602
vn 0.594897 -0.742616 0.307602
vn 0.594897 -0.742616 0.307603
vn 0.594891 -0.307604 0.742620
vn 0.594891 -0.307604 0.742620
vn 0.594891 -0.307604 0.742620
vn 0.594891 -0.307604 0.742620
vn 0.594888 0.307602 0.742623
vn 0.594888 0.307602 0.742623
vn 0.594889 0.307603 0.742623
vn 0.594889 0.307603 0.742623
vn 0.594895 0.742618 0.307602
vn 0.594895 0.742618 0.307602
vn 0.594895 0.742618 0.307602
vn 0.594895 0.742618 0.307602
vn 0.594892 0.742620 -0.307603
vn 0.594892 0.742620 -0.307603
vn 0.594892 0.742620 -0.307603
vn 0.594892 0.742620 -0.307603
vn 0.000000 0.382681 -0.923881
vn 0.000000 0.382681 -0.923881
vn 0.000000 0.382681 -0.923881
vn 0.000000 0.382681 -0.923881
vn 0.000000 -0.382682 -0.923880
vn 0.000000 -0.382682 -0.923880
vn 0.000000 -0.382682 -0.923880
vn 0.000000 -0.382682 -0.923880
vn 0.000000 -0.923880 -0.382682
vn 0.000000 -0.923880 -0.382682
vn 0.000000 -0.923880 -0.382682
vn 0.000000 -0.923880 -0.382682
vn 0.000000 -0.923880 0.382682
vn 0.000000 -0.923880 0.382682
vn 0.000000 -0.923880 0.382682
vn 0.000000 -0.923880 0.382682
vn 0.000000 -0.382682 0.923880
vn 0.000000 -0.382682 0.923880
vn 0.000000 -0.382682 0.923880
vn 0.000000 -0.382682 0.923880
vn 0.000000 0.382681 0.923881
vn 0.000000 0.382681 0.923881
vn 0.000000 0.382681 0.923881
vn 0.000000 0.382681 0.923881
vn 0.000000 0.923880 0.382682
vn 0.000000 0.923880 0.382682
vn 0.000000 0.923880 0.382682
vn 0.000000 0.923880 0.382682
vn 0.000000 0.923880 -0.382682
vn 0.000000 0.923880 -0.382682
vn 0.000000 0.923880 -0.382682
vn 0.000000 0.923880 -0.382682
vn -0.594892 0.307600 -0.742621
vn -0.594892 0.307600 -0.742621
vn -0.594892 0.307600 -0.742621
vn -0.594892 0.307600 -0.742621
vn -0.594894 -0.307601 -0.742619
vn -0.594894 -0.307601 -0.742619
vn -0.594894 -0.307601 -0.742619
vn -0.594894 -0.307601 -0.742619
vn -0.594892 -0.742619 -0.307604
vn -0.594892 -0.742619 -0.307604
vn -0.594892 -0.742619 -0.307604
vn -0.594892 -0.742619 -0.307604
vn -0.594903 -0.742612 0.307601
vn -0.594903 -0.742612 0.307601
vn -0.594903 -0.742612 0.307601
vn -0.594903 -0.742612 0.307601
vn -0.594892 -0.307600 0.742621
vn -0.594892 -0.307600 0.742621
vn -0.594892 -0.307600 0.742621
vn -0.594892 -0.307600 0.742621
vn -0.594894 0.307601 0.742619
vn -0.594894 0.307601 0.742619
vn -0.594894 0.307601 0.742619
vn -0.594894 0.307601 0.742619
vn -0.594898 0.742616 0.307602
vn -0.594898 0.742616 0.307602
vn -0.594898 0.742616 0.307602
vn -0.594898 0.742616 0.307602
vn -0.594892 0.742620 -0.307603
vn -0.594892 0.742620 -0.307603
vn -0.594892 0.742620 -0.307603
vn -0.594892 0.742620 -0.307603
vn -0.982055 0.072166 -0.174240
vn -0.982055 0.072166 -0.174240
vn -0.982055 0.072166 -0.174240
vn -0.982055 -0.072166 -0.174239
vn -0.982055 -0.072166 -0.174239
vn -0.982055 -0.072166 -0.174239
vn -0.982055 -0.174240 -0.072172
vn -0.982055 -0.174240 -0.072172
vn -0.982055 -0.174240 -0.072172
vn -0.982056 -0.174236 0.072171
vn -0.982056 -0.174236 0.072171
vn -0.982056 -0.174236 0.072171
vn -0.982056 -0.072164 0.174235
vn -0.982056 -0.072164 0.174235
vn -0.982056 -0.072164 0.174235
vn -0.982056 0.072164 0.174236
vn -0.982056 0.072164 0.174236
vn -0.982056 0.072164 0.174236
vn -0.982055 0.174240 0.072172
vn -0.982055 0.174240 0.072172
vn -0.982055 0.174240 0.072172
vn -0.982054 0.174244 -0.072173
vn -0.982054 0.174244 -0.072173
vn -0.982054 0.174244 -0.072173
vn 0.977982 0.079858 -0.192808
vn 0.977981 0.079858 -0.192808
vn 0.977981 0.079858 -0.192808
vn 0.977982 0.079858 -0.192808
vn 0.977981 -0.079858 -0.192809
vn 0.977981 -0.079858 -0.192809
vn 0.977981 -0.079858 -0.192809
vn 0.977981 -0.079858 -0.192809
vn 0.977980 -0.192815 -0.079863
vn 0.977980 -0.192815 -0.079864
vn 0.977980 -0.192815 -0.079864
vn 0.977980 -0.192815 -0.079864
vn 0.977979 -0.192818 0.079863
vn 0.977979 -0.192819 0.079863
vn 0.977979 -0.192819 0.079863
vn 0.977979 -0.192819 0.079863
vn 0.977981 -0.079858 0.192809
vn 0.977981 -0.079858 0.192809
vn 0.977981 -0.079858 0.192809
vn 0.977981 -0.079858 0.192809
vn 0.977982 0.079857 0.192804
vn 0.977982 0.079857 0.192804
vn 0.977982 0.079857 0.192804
vn 0.977982 0.079857 0.192804
vn 0.977980 0.192815 0.079863
vn 0.977980 0.192815 0.079864
vn 0.977980 0.192815 0.079864
vn 0.977980 0.192815 0.079864
vn 0.977979 0.192821 -0.079863
vn 0.977979 0.192821 -0.079863
vn 0.977979 0.192821 -0.079863
vn 0.977979 0.192821 -0.079863
vn 0.000000 0.382684 -0.923879
vn 0.000000 0.382684 -0.923879
vn 0.000000 0.382684 -0.923879
vn 0.000000 0.382684 -0.923879
vn 0.000000 -0.382684 -0.923879
vn 0.000000 -0.382684 -0.923879
vn 0.000000 -0.382684 -0.923879
vn 0.000000 -0.382684 -0.923879
vn 0.000000 -0.923881 -0.382680
vn 0.000000 -0.923881 -0.382680
vn 0.000000 -0.923881 -0.382680
vn 0.000000 -0.923881 -0.382680
vn 0.000000 -0.923881 0.382680
vn 0.000000 -0.923881 0.382680
vn 0.000000 -0.923881 0.382680
vn 0.000000 -0.923881 0.382680
vn 0.000000 -0.382684 0.923879
vn 0.000000 -0.382684 0.923879
vn 0.000000 -0.382684 0.923879
vn 0.000000 -0.382684 0.923879
vn 0.000000 0.382684 0.923879
vn 0.000000 0.382684 0.923879
vn 0.000000 0.382684 0.923879
vn 0.000000 0.382684 0.923879
vn 0.000000 0.923881 0.382680
vn 0.000000 0.923881 0.382680
vn 0.000000 0.923881 0.382680
vn 0.000000 0.923881 0.382680
vn 0.000000 0.923881 -0.382680
vn 0.000000 0.923881 -0.382680
vn 0.000000 0.923881 -0.382680
vn 0.000000 0.923881 -0.382680
s off
g polySurface40
f 17/1/1 18/2/2 19/3/3 20/4/4
f 15/62/5 16/63/6 4/64/7 3/13/8
f 16/84/9 2/65/10 5/85/11 4/14/12
f 12/8/13 11/7/14 13/12/15 14/11/16
f 1/86/17 15/87/18 3/88/19 6/19/20
f 2/102/21 1/66/22 7/6/23 8/5/24
f 1/86/25 6/19/26 9/89/27 7/67/28
f 6/101/29 5/17/30 10/10/31 9/9/32
f 5/85/33 2/65/34 8/90/35 10/68/36
f 8/5/37 7/6/38 11/7/39 12/8/40
f 7/67/41 9/89/42 13/12/43 11/7/44
f 9/9/45 10/10/46 14/11/47 13/12/48
f 10/68/49 8/90/50 12/8/51 14/11/52
f 21/69/53 22/70/54 18/2/55 17/1/56
f 22/91/57 23/92/58 19/3/59 18/2/60
f 23/18/61 24/71/62 20/4/63 19/3/64
f 24/93/65 21/94/66 17/1/67 20/4/68
f 3/13/69 4/64/70 22/105/71 21/16/72
f 4/14/73 5/85/74 23/104/75 22/15/76
f 5/17/77 6/101/78 24/71/79 23/18/80
f 6/19/81 3/88/82 21/103/83 24/20/84
f 25/39/85 26/38/86 34/42/87 33/43/88
f 26/38/89 27/46/90 35/48/91 34/42/92
f 27/46/93 28/52/94 36/54/95 35/48/96
f 28/52/97 29/58/98 37/60/99 36/54/100
f 29/58/101 30/56/102 38/61/103 37/60/104
f 30/56/105 31/50/106 39/55/107 38/61/108
f 31/50/109 32/44/110 40/49/111 39/55/112
f 32/44/113 25/39/114 33/43/115 40/49/116
f 33/43/117 34/42/118 42/25/119 41/24/120
f 34/42/121 35/48/122 43/28/123 42/25/124
f 35/48/125 36/54/126 44/32/127 43/28/128
f 36/54/129 37/60/130 45/36/131 44/32/132
f 37/60/133 38/61/134 46/37/135 45/36/136
f 38/61/137 39/55/138 47/33/139 46/37/140
f 39/55/141 40/49/142 48/29/143 47/33/144
f 40/49/145 33/43/146 41/24/147 48/29/148
f 41/24/149 42/25/150 50/22/151 49/21/152
f 42/25/153 43/28/154 51/26/155 50/22/156
f 43/28/157 44/32/158 52/30/159 51/26/160
f 44/32/161 45/36/162 53/34/163 52/30/164
f 45/36/165 46/37/166 54/35/167 53/34/168
f 46/37/169 47/33/170 55/31/171 54/35/172
f 47/33/173 48/29/174 56/27/175 55/31/176
f 48/29/177 41/24/178 49/21/179 56/27/180
f 49/21/181 50/22/182 57/23/183
f 50/22/184 51/26/185 57/23/186
f 51/26/187 52/30/188 57/23/189
f 52/30/190 53/34/191 57/23/192
f 53/34/193 54/35/194 57/23/195
f 54/35/196 55/31/197 57/23/198
f 55/31/199 56/27/200 57/23/201
f 56/27/202 49/21/203 57/23/204
f 26/38/205 25/39/206 58/40/207 59/41/208
f 27/46/209 26/38/210 59/41/211 60/47/212
f 28/52/213 27/46/214 60/47/215 61/53/216
f 29/58/217 28/52/218 61/53/219 62/59/220
f 30/56/221 29/58/222 62/59/223 63/57/224
f 31/50/225 30/56/226 63/57/227 64/51/228
f 32/44/229 31/50/230 64/51/231 65/45/232
f 25/39/233 32/44/234 65/45/235 58/40/236
f 59/95/237 58/82/238 66/83/239 67/96/240
f 60/73/241 59/95/242 67/96/243 68/74/244
f 61/72/245 60/73/246 68/74/247 69/75/248
f 62/76/249 61/72/250 69/75/251 70/77/252
f 63/97/253 62/76/254 70/77/255 71/98/256
f 64/99/257 63/97/258 71/98/259 72/100/260
f 65/78/261 64/79/262 72/80/263 73/81/264
f 58/82/265 65/78/266 73/81/267 66/83/268
