# This file uses meters as units for non-parametric coordinates.

g default
v -3.251926 0.000000 -10.032266
v 5.303500 0.000000 -10.032266
v -3.251926 7.185393 -10.032266
v 5.303500 7.185393 -10.032266
v -3.251926 7.185393 -17.655069
v 5.303500 7.185393 -17.655069
v -3.251926 0.000000 -17.655069
v 5.303500 0.000000 -17.655069
vt 0.494313 0.910497
vt 0.561189 0.910907
vt 0.508380 0.728995
vt 0.561189 0.952867
vt 0.391996 0.910724
vt 0.670682 0.873605
vt 0.434510 0.910629
vt 0.434360 0.843510
vt 0.494164 0.843376
vt 0.619651 0.911062
vt 0.619651 0.952711
vt 0.434510 0.953144
vt 0.508380 0.873605
vt 0.391847 0.843604
vt 0.494313 0.953277
vt 0.670682 0.728995
vn 0.000000 0.000000 1.000000
vn 0.000000 0.000000 1.000000
vn 0.000000 0.000000 1.000000
vn 0.000000 0.000000 1.000000
vn 0.000000 1.000000 0.000000
vn 0.000000 1.000000 0.000000
vn 0.000000 1.000000 0.000000
vn 0.000000 1.000000 0.000000
vn 0.000000 0.000000 -1.000000
vn 0.000000 0.000000 -1.000000
vn 0.000000 0.000000 -1.000000
vn 0.000000 0.000000 -1.000000
vn 0.000000 -1.000000 0.000000
vn 0.000000 -1.000000 0.000000
vn 0.000000 -1.000000 0.000000
vn 0.000000 -1.000000 0.000000
vn 1.000000 0.000000 0.000000
vn 1.000000 0.000000 0.000000
vn 1.000000 0.000000 0.000000
vn 1.000000 0.000000 0.000000
vn -1.000000 0.000000 0.000000
vn -1.000000 0.000000 0.000000
vn -1.000000 0.000000 0.000000
vn -1.000000 0.000000 0.000000
s off
g pCube23
f 1/1/1 2/2/2 4/4/3 3/15/4
f 3/3/5 4/16/6 6/6/7 5/13/8
f 5/5/9 6/14/10 8/8/11 7/7/12
f 7/7/13 8/8/14 2/9/15 1/1/16
f 2/2/17 8/10/18 6/11/19 4/4/20
f 7/7/21 1/1/22 3/15/23 5/12/24
