# This file uses meters as units for non-parametric coordinates.

g default
v 17.064066 0.000000 -10.032266
v 25.619492 0.000000 -10.032266
v 17.064066 7.185393 -10.032266
v 25.619492 7.185393 -10.032266
v 17.064066 7.185393 -17.655069
v 25.619492 7.185393 -17.655069
v 17.064066 0.000000 -17.655069
v 25.619492 0.000000 -17.655069
vt 0.794719 0.929574
vt 0.861595 0.929984
vt 0.819356 0.729154
vt 0.861595 0.971944
vt 0.692402 0.929801
vt 0.981658 0.873763
vt 0.734916 0.929706
vt 0.734767 0.862587
vt 0.794570 0.862453
vt 0.920057 0.930140
vt 0.920057 0.971788
vt 0.734916 0.972222
vt 0.819356 0.873763
vt 0.692253 0.862681
vt 0.794719 0.972354
vt 0.981658 0.729154
vn 0.000000 0.000000 1.000000
vn 0.000000 0.000000 1.000000
vn 0.000000 0.000000 1.000000
vn 0.000000 0.000000 1.000000
vn 0.000000 1.000000 0.000000
vn 0.000000 1.000000 0.000000
vn 0.000000 1.000000 0.000000
vn 0.000000 1.000000 0.000000
vn 0.000000 0.000000 -1.000000
vn 0.000000 0.000000 -1.000000
vn 0.000000 0.000000 -1.000000
vn 0.000000 0.000000 -1.000000
vn 0.000000 -1.000000 0.000000
vn 0.000000 -1.000000 0.000000
vn 0.000000 -1.000000 0.000000
vn 0.000000 -1.000000 0.000000
vn 1.000000 0.000000 0.000000
vn 1.000000 0.000000 0.000000
vn 1.000000 0.000000 0.000000
vn 1.000000 0.000000 0.000000
vn -1.000000 0.000000 0.000000
vn -1.000000 0.000000 0.000000
vn -1.000000 0.000000 0.000000
vn -1.000000 0.000000 0.000000
s off
g pCube24
f 1/1/1 2/2/2 4/4/3 3/15/4
f 3/3/5 4/16/6 6/6/7 5/13/8
f 5/5/9 6/14/10 8/8/11 7/7/12
f 7/7/13 8/8/14 2/9/15 1/1/16
f 2/2/17 8/10/18 6/11/19 4/4/20
f 7/7/21 1/1/22 3/15/23 5/12/24
