# This file uses meters as units for non-parametric coordinates.

g default
v -3.251926 0.000000 5.524754
v 5.303500 0.000000 5.524754
v -3.251926 7.185393 5.524754
v 5.303500 7.185393 5.524754
v -3.251926 7.185393 -2.098048
v 5.303500 7.185393 -2.098048
v -3.251926 0.000000 -2.098048
v 5.303500 0.000000 -2.098048
vt 0.494313 0.633589
vt 0.561189 0.633999
vt 0.508380 0.452087
vt 0.561189 0.675959
vt 0.391996 0.633816
vt 0.670682 0.596696
vt 0.434510 0.633721
vt 0.434360 0.566602
vt 0.494164 0.566468
vt 0.619651 0.634154
vt 0.619651 0.675803
vt 0.434510 0.676236
vt 0.508380 0.596696
vt 0.391847 0.566696
vt 0.494313 0.676369
vt 0.670682 0.452087
vn 0.000000 0.000000 1.000000
vn 0.000000 0.000000 1.000000
vn 0.000000 0.000000 1.000000
vn 0.000000 0.000000 1.000000
vn 0.000000 1.000000 0.000000
vn 0.000000 1.000000 0.000000
vn 0.000000 1.000000 0.000000
vn 0.000000 1.000000 0.000000
vn 0.000000 0.000000 -1.000000
vn 0.000000 0.000000 -1.000000
vn 0.000000 0.000000 -1.000000
vn 0.000000 0.000000 -1.000000
vn 0.000000 -1.000000 0.000000
vn 0.000000 -1.000000 0.000000
vn 0.000000 -1.000000 0.000000
vn 0.000000 -1.000000 0.000000
vn 1.000000 0.000000 0.000000
vn 1.000000 0.000000 0.000000
vn 1.000000 0.000000 0.000000
vn 1.000000 0.000000 0.000000
vn -1.000000 0.000000 0.000000
vn -1.000000 0.000000 0.000000
vn -1.000000 0.000000 0.000000
vn -1.000000 0.000000 0.000000
s off
g pCube26
f 1/1/1 2/2/2 4/4/3 3/15/4
f 3/3/5 4/16/6 6/6/7 5/13/8
f 5/5/9 6/14/10 8/8/11 7/7/12
f 7/7/13 8/8/14 2/9/15 1/1/16
f 2/2/17 8/10/18 6/11/19 4/4/20
f 7/7/21 1/1/22 3/15/23 5/12/24
