# This file uses meters as units for non-parametric coordinates.

g default
v 5.446805 1.033363 -6.928903
v -4.622899 1.033363 -6.928903
v -9.657763 1.033363 1.791764
v -4.622899 1.033363 10.512364
v 5.446805 1.033363 10.512364
v 10.481657 1.033363 1.791764
v 5.446805 2.493528 -6.928903
v -4.622899 2.493528 -6.928903
v -9.657763 2.493528 1.791764
v -4.622899 2.493528 10.512364
v 5.446805 2.493528 10.512364
v 10.481657 2.493528 1.791764
v 0.411941 1.033363 1.791764
v 4.408108 2.493528 -5.129769
v -3.584226 2.493528 -5.129769
v -7.580388 2.493528 1.791764
v -3.584226 2.493528 8.713231
v 4.408108 2.493528 8.713231
v 8.404274 2.493528 1.791764
v 4.408108 1.573942 -5.129769
v -3.584226 1.573942 -5.129769
v 0.411941 1.573942 1.791764
v -7.580388 1.573942 1.791764
v -3.584226 1.573942 8.713231
v 4.408108 1.573942 8.713231
v 8.404274 1.573942 1.791764
vt 0.715404 0.646471
vt 0.715404 0.564738
vt 0.727163 0.564850
vt 0.727454 0.645835
vt 0.717238 0.483715
vt 0.728980 0.483964
vt 0.735654 0.817733
vt 0.723972 0.731279
vt 0.736357 0.729796
vt 0.748214 0.816248
vt 0.744365 0.904398
vt 0.756946 0.903136
vt 0.718862 0.402729
vt 0.730605 0.402964
vt 0.790612 0.423802
vt 0.790612 0.307213
vt 0.891582 0.365508
vt 0.891582 0.248919
vt 0.891582 0.482097
vt 0.992551 0.307213
vt 0.992551 0.423802
vt 0.575830 0.321003
vt 0.575830 0.512646
vt 0.409863 0.416825
vt 0.409863 0.608468
vt 0.409863 0.225182
vt 0.243897 0.512646
vt 0.243897 0.321003
vt 0.667592 0.271926
vt 0.667592 0.568257
vt 0.614647 0.537691
vt 0.614647 0.302493
vt 0.410960 0.716423
vt 0.410960 0.655290
vt 0.410960 0.123760
vt 0.410960 0.184893
vt 0.154330 0.568257
vt 0.207275 0.537691
vt 0.154330 0.271926
vt 0.207275 0.302493
vt 0.305591 0.784706
vt 0.305591 0.892143
vt 0.228602 0.892143
vt 0.228602 0.784706
vt 0.305591 0.945861
vt 0.228602 0.945861
vt 0.305591 0.730988
vt 0.228602 0.730988
vt 0.148810 0.892143
vt 0.148810 0.784706
vt 0.225800 0.784706
vt 0.225800 0.892143
vt 0.148810 0.730988
vt 0.225800 0.730988
vt 0.148810 0.945861
vt 0.225800 0.945861
vn 0.000000 0.000000 -1.000000
vn 0.000000 0.000000 -1.000000
vn 0.000000 0.000000 -1.000000
vn 0.000000 0.000000 -1.000000
vn -0.866026 0.000000 -0.499999
vn -0.866026 0.000000 -0.499999
vn -0.866026 0.000000 -0.499999
vn -0.866026 0.000000 -0.499999
vn -0.866024 0.000000 0.500002
vn -0.866024 0.000000 0.500002
vn -0.866024 0.000000 0.500002
vn -0.866024 0.000000 0.500002
vn 0.000000 0.000000 1.000000
vn 0.000000 0.000000 1.000000
vn 0.000000 0.000000 1.000000
vn 0.000000 0.000000 1.000000
vn 0.866025 0.000000 0.500001
vn 0.866025 0.000000 0.500001
vn 0.866025 0.000000 0.500001
vn 0.866025 0.000000 0.500001
vn 0.866027 0.000000 -0.499998
vn 0.866027 0.000000 -0.499998
vn 0.866027 0.000000 -0.499998
vn 0.866027 0.000000 -0.499998
vn 0.000000 -1.000000 0.000000
vn 0.000000 -1.000000 -0.000000
vn 0.000000 -1.000000 0.000000
vn 0.000000 -1.000000 0.000000
vn 0.000000 -1.000000 0.000000
vn 0.000000 -1.000000 0.000000
vn 0.000000 -1.000000 0.000000
vn 0.000000 1.000000 0.000000
vn 0.000000 1.000000 -0.000000
vn 0.000000 1.000000 -0.000000
vn 0.000000 1.000000 -0.000000
vn 0.000000 1.000000 0.000000
vn 0.000000 1.000000 0.000000
vn 0.000000 1.000000 0.000000
vn 0.000000 1.000000 -0.000000
vn 0.000000 1.000000 -0.000000
vn 0.000000 1.000000 -0.000000
vn 0.000000 1.000000 -0.000000
vn 0.000000 1.000000 0.000000
vn 0.000000 1.000000 0.000000
vn 0.000000 1.000000 0.000000
vn 0.000000 1.000000 0.000000
vn 0.000000 1.000000 -0.000000
vn 0.000000 1.000000 -0.000000
vn 0.000000 1.000000 -0.000000
vn 0.000000 1.000000 -0.000000
vn 0.000000 1.000000 -0.000000
vn 0.000000 1.000000 -0.000000
vn 0.000000 1.000000 -0.000000
vn 0.000000 1.000000 -0.000000
vn 0.000000 1.000000 -0.000000
vn 0.000000 1.000000 -0.000000
vn 0.000000 1.000000 -0.000000
vn 0.000000 1.000000 -0.000000
vn 0.000000 1.000000 0.000000
vn 0.000000 1.000000 0.000000
vn 0.000000 1.000000 0.000000
vn 0.000000 1.000000 0.000000
vn 0.000000 0.000000 1.000000
vn 0.000000 0.000000 1.000000
vn 0.000000 0.000000 1.000000
vn 0.000000 0.000000 1.000000
vn 0.866025 0.000000 0.500001
vn 0.866025 0.000000 0.500001
vn 0.866025 0.000000 0.500001
vn 0.866025 0.000000 0.500001
vn 0.866023 0.000000 -0.500005
vn 0.866023 0.000000 -0.500005
vn 0.866023 0.000000 -0.500005
vn 0.866023 0.000000 -0.500005
vn 0.000000 0.000000 -1.000000
vn 0.000000 0.000000 -1.000000
vn 0.000000 0.000000 -1.000000
vn 0.000000 0.000000 -1.000000
vn -0.866022 0.000000 -0.500005
vn -0.866022 0.000000 -0.500005
vn -0.866022 0.000000 -0.500005
vn -0.866022 0.000000 -0.500005
vn -0.866024 0.000000 0.500002
vn -0.866024 0.000000 0.500002
vn -0.866024 0.000000 0.500002
vn -0.866024 0.000000 0.500002
s off
g polySurface16 polySurface9
f 1/8/1 2/1/2 8/4/3 7/9/4
f 2/1/5 3/2/6 9/3/7 8/4/8
f 3/2/9 4/5/10 10/6/11 9/3/12
f 4/5/13 5/13/14 11/14/15 10/6/16
f 5/11/17 6/7/18 12/10/19 11/12/20
f 6/7/21 1/8/22 7/9/23 12/10/24
s 1
f 2/15/25 1/16/26 13/17/27
f 3/19/28 2/15/25 13/17/27
f 4/21/29 3/19/28 13/17/27
f 5/20/30 4/21/29 13/17/27
f 6/18/31 5/20/30 13/17/27
f 1/16/26 6/18/31 13/17/27
s 2
f 20/22/32 21/23/33 22/24/34
f 21/23/33 23/25/35 22/24/34
f 23/25/35 24/27/36 22/24/34
f 24/27/36 25/28/37 22/24/34
f 25/28/37 26/26/38 22/24/34
f 26/26/38 20/22/32 22/24/34
s off
f 7/29/39 8/30/40 15/31/41 14/32/42
f 8/30/43 9/33/44 16/34/45 15/31/46
f 9/33/47 10/37/48 17/38/49 16/34/50
f 10/37/51 11/39/52 18/40/53 17/38/54
f 11/39/55 12/35/56 19/36/57 18/40/58
f 12/35/59 7/29/60 14/32/61 19/36/62
f 14/41/63 15/42/64 21/43/65 20/44/66
f 15/42/67 16/45/68 23/46/69 21/43/70
f 16/55/71 17/49/72 24/52/73 23/56/74
f 17/49/75 18/50/76 25/51/77 24/52/78
f 18/50/79 19/53/80 26/54/81 25/51/82
f 19/47/83 14/41/84 20/44/85 26/48/86
g default
v 5.446805 1.033363 -6.928903
v -4.622899 1.033363 -6.928903
v -9.657763 1.033363 1.791764
v -4.622899 1.033363 10.512364
v 5.446805 1.033363 10.512364
v 10.481657 1.033363 1.791764
v 5.446805 2.493528 -6.928903
v -4.622899 2.493528 -6.928903
v -9.657763 2.493528 1.791764
v -4.622899 2.493528 10.512364
v 5.446805 2.493528 10.512364
v 10.481657 2.493528 1.791764
v 0.411941 1.033363 1.791764
v 4.408108 2.493528 -5.129769
v -3.584226 2.493528 -5.129769
v -7.580388 2.493528 1.791764
v -3.584226 2.493528 8.713231
v 4.408108 2.493528 8.713231
v 8.404274 2.493528 1.791764
v 4.408108 1.573942 -5.129769
v -3.584226 1.573942 -5.129769
v 0.411941 1.573942 1.791764
v -7.580388 1.573942 1.791764
v -3.584226 1.573942 8.713231
v 4.408108 1.573942 8.713231
v 8.404274 1.573942 1.791764
vt 0.715404 0.646471
vt 0.715404 0.564738
vt 0.727163 0.564850
vt 0.727454 0.645835
vt 0.717238 0.483715
vt 0.728980 0.483964
vt 0.735654 0.817733
vt 0.723972 0.731279
vt 0.736357 0.729796
vt 0.748214 0.816248
vt 0.744365 0.904398
vt 0.756946 0.903136
vt 0.718862 0.402729
vt 0.730605 0.402964
vt 0.790612 0.423802
vt 0.790612 0.307213
vt 0.891582 0.365508
vt 0.891582 0.248919
vt 0.891582 0.482097
vt 0.992551 0.307213
vt 0.992551 0.423802
vt 0.575830 0.321003
vt 0.575830 0.512646
vt 0.409863 0.416825
vt 0.409863 0.608468
vt 0.409863 0.225182
vt 0.243897 0.512646
vt 0.243897 0.321003
vt 0.667592 0.271926
vt 0.667592 0.568257
vt 0.614647 0.537691
vt 0.614647 0.302493
vt 0.410960 0.716423
vt 0.410960 0.655290
vt 0.410960 0.123760
vt 0.410960 0.184893
vt 0.154330 0.568257
vt 0.207275 0.537691
vt 0.154330 0.271926
vt 0.207275 0.302493
vt 0.305591 0.784706
vt 0.305591 0.892143
vt 0.228602 0.892143
vt 0.228602 0.784706
vt 0.305591 0.945861
vt 0.228602 0.945861
vt 0.305591 0.730988
vt 0.228602 0.730988
vt 0.148810 0.892143
vt 0.148810 0.784706
vt 0.225800 0.784706
vt 0.225800 0.892143
vt 0.148810 0.730988
vt 0.225800 0.730988
vt 0.148810 0.945861
vt 0.225800 0.945861
vn 0.000000 0.000000 -1.000000
vn 0.000000 0.000000 -1.000000
vn 0.000000 0.000000 -1.000000
vn 0.000000 0.000000 -1.000000
vn -0.866026 0.000000 -0.499999
vn -0.866026 0.000000 -0.499999
vn -0.866026 0.000000 -0.499999
vn -0.866026 0.000000 -0.499999
vn -0.866024 0.000000 0.500002
vn -0.866024 0.000000 0.500002
vn -0.866024 0.000000 0.500002
vn -0.866024 0.000000 0.500002
vn 0.000000 0.000000 1.000000
vn 0.000000 0.000000 1.000000
vn 0.000000 0.000000 1.000000
vn 0.000000 0.000000 1.000000
vn 0.866025 0.000000 0.500001
vn 0.866025 0.000000 0.500001
vn 0.866025 0.000000 0.500001
vn 0.866025 0.000000 0.500001
vn 0.866027 0.000000 -0.499998
vn 0.866027 0.000000 -0.499998
vn 0.866027 0.000000 -0.499998
vn 0.866027 0.000000 -0.499998
vn 0.000000 -1.000000 0.000000
vn 0.000000 -1.000000 -0.000000
vn 0.000000 -1.000000 0.000000
vn 0.000000 -1.000000 0.000000
vn 0.000000 -1.000000 0.000000
vn 0.000000 -1.000000 0.000000
vn 0.000000 -1.000000 0.000000
vn 0.000000 1.000000 0.000000
vn 0.000000 1.000000 -0.000000
vn 0.000000 1.000000 -0.000000
vn 0.000000 1.000000 -0.000000
vn 0.000000 1.000000 0.000000
vn 0.000000 1.000000 0.000000
vn 0.000000 1.000000 0.000000
vn 0.000000 1.000000 -0.000000
vn 0.000000 1.000000 -0.000000
vn 0.000000 1.000000 -0.000000
vn 0.000000 1.000000 -0.000000
vn 0.000000 1.000000 0.000000
vn 0.000000 1.000000 0.000000
vn 0.000000 1.000000 0.000000
vn 0.000000 1.000000 0.000000
vn 0.000000 1.000000 -0.000000
vn 0.000000 1.000000 -0.000000
vn 0.000000 1.000000 -0.000000
vn 0.000000 1.000000 -0.000000
vn 0.000000 1.000000 -0.000000
vn 0.000000 1.000000 -0.000000
vn 0.000000 1.000000 -0.000000
vn 0.000000 1.000000 -0.000000
vn 0.000000 1.000000 -0.000000
vn 0.000000 1.000000 -0.000000
vn 0.000000 1.000000 -0.000000
vn 0.000000 1.000000 -0.000000
vn 0.000000 1.000000 0.000000
vn 0.000000 1.000000 0.000000
vn 0.000000 1.000000 0.000000
vn 0.000000 1.000000 0.000000
vn 0.000000 0.000000 1.000000
vn 0.000000 0.000000 1.000000
vn 0.000000 0.000000 1.000000
vn 0.000000 0.000000 1.000000
vn 0.866025 0.000000 0.500001
vn 0.866025 0.000000 0.500001
vn 0.866025 0.000000 0.500001
vn 0.866025 0.000000 0.500001
vn 0.866023 0.000000 -0.500005
vn 0.866023 0.000000 -0.500005
vn 0.866023 0.000000 -0.500005
vn 0.866023 0.000000 -0.500005
vn 0.000000 0.000000 -1.000000
vn 0.000000 0.000000 -1.000000
vn 0.000000 0.000000 -1.000000
vn 0.000000 0.000000 -1.000000
vn -0.866022 0.000000 -0.500005
vn -0.866022 0.000000 -0.500005
vn -0.866022 0.000000 -0.500005
vn -0.866022 0.000000 -0.500005
vn -0.866024 0.000000 0.500002
vn -0.866024 0.000000 0.500002
vn -0.866024 0.000000 0.500002
vn -0.866024 0.000000 0.500002
s off
g polySurface16 polySurface9
f 27/64/87 28/57/88 34/60/89 33/65/90
f 28/57/91 29/58/92 35/59/93 34/60/94
f 29/58/95 30/61/96 36/62/97 35/59/98
f 30/61/99 31/69/100 37/70/101 36/62/102
f 31/67/103 32/63/104 38/66/105 37/68/106
f 32/63/107 27/64/108 33/65/109 38/66/110
s 1
f 28/71/111 27/72/112 39/73/113
f 29/75/114 28/71/111 39/73/113
f 30/77/115 29/75/114 39/73/113
f 31/76/116 30/77/115 39/73/113
f 32/74/117 31/76/116 39/73/113
f 27/72/112 32/74/117 39/73/113
s 2
f 46/78/118 47/79/119 48/80/120
f 47/79/119 49/81/121 48/80/120
f 49/81/121 50/83/122 48/80/120
f 50/83/122 51/84/123 48/80/120
f 51/84/123 52/82/124 48/80/120
f 52/82/124 46/78/118 48/80/120
s off
f 33/85/125 34/86/126 41/87/127 40/88/128
f 34/86/129 35/89/130 42/90/131 41/87/132
f 35/89/133 36/93/134 43/94/135 42/90/136
f 36/93/137 37/95/138 44/96/139 43/94/140
f 37/95/141 38/91/142 45/92/143 44/96/144
f 38/91/145 33/85/146 40/88/147 45/92/148
f 40/97/149 41/98/150 47/99/151 46/100/152
f 41/98/153 42/101/154 49/102/155 47/99/156
f 42/111/157 43/105/158 50/108/159 49/112/160
f 43/105/161 44/106/162 51/107/163 50/108/164
f 44/106/165 45/109/166 52/110/167 51/107/168
f 45/103/169 40/97/170 46/100/171 52/104/172
