# This file uses meters as units for non-parametric coordinates.

g default
v 19.625744 45.585003 -32.825073
v 20.256985 45.585003 33.135864
v -17.270920 27.064163 -32.824829
v -16.639572 27.064163 33.135864
v -16.639572 45.585003 33.135864
v -17.270920 45.585003 -32.824829
v 16.896862 45.585003 -31.036621
v 17.433102 45.585003 31.347778
v -16.091064 45.585003 -31.036621
v -15.554840 45.585003 31.347778
v 16.896862 31.166462 -31.036621
v 17.433102 31.166462 31.347778
v -16.091064 31.166462 -31.036621
v -15.554840 31.166462 31.347778
v 19.625744 27.064163 -32.825073
v 20.256985 27.064163 33.135864
v -20.099045 26.145336 -33.743576
v -19.467667 26.145336 34.054565
v -19.467667 46.503819 34.054565
v -20.099045 46.503819 -33.743576
v -17.270950 26.145348 -33.743530
v -16.639572 26.145348 34.054688
v -16.639572 46.503819 34.054688
v -17.270950 46.503819 -33.743530
v -20.767517 39.385014 -1.502350
v -20.767517 38.032543 -2.062561
v -20.767517 36.680073 -1.502350
v -20.767517 36.119862 -0.149872
v -20.767517 36.680073 1.202606
v -20.767517 38.032543 1.762817
v -20.767517 39.385014 1.202606
v -20.767517 39.945225 -0.149872
v -22.243164 40.220886 -2.338226
v -22.243164 38.032543 -3.244659
v -22.243164 35.844200 -2.338226
v -22.243164 34.937756 -0.149872
v -22.243164 35.844200 2.038483
v -22.243164 38.032543 2.944916
v -22.243164 40.220886 2.038483
v -22.243164 41.127331 -0.149872
v -24.067169 40.220886 -2.338226
v -24.067169 38.032543 -3.244659
v -24.067169 35.844200 -2.338226
v -24.067169 34.937756 -0.149872
v -24.067169 35.844200 2.038483
v -24.067169 38.032543 2.944916
v -24.067169 40.220886 2.038483
v -24.067169 41.127331 -0.149872
v -25.542816 39.385014 -1.502350
v -25.542816 38.032543 -2.062561
v -25.542816 36.680073 -1.502350
v -25.542816 36.119862 -0.149872
v -25.542816 36.680073 1.202606
v -25.542816 38.032543 1.762817
v -25.542816 39.385014 1.202606
v -25.542816 39.945225 -0.149872
v -25.882172 38.032543 -0.149872
v -20.647842 38.955772 -1.073120
v -20.647842 38.032543 -1.455536
v -20.647842 37.109314 -1.073120
v -20.647842 36.726898 -0.149872
v -20.647842 37.109314 0.773376
v -20.647842 38.032543 1.155792
v -20.647842 38.955772 0.773376
v -20.647842 39.338188 -0.149872
v -19.472702 38.955772 -1.073120
v -19.472702 38.032543 -1.455536
v -19.472702 37.109314 -1.073120
v -19.472702 36.726898 -0.149872
v -19.472702 37.109314 0.773376
v -19.472702 38.032543 1.155792
v -19.472702 38.955772 0.773376
v -19.472702 39.338188 -0.149872
vt 0.099592 0.940460
vt 0.100655 0.829438
vt 0.133992 0.829757
vt 0.132930 0.940779
vt 0.245992 0.834611
vt 0.245114 0.936768
vt 0.221503 0.936565
vt 0.222381 0.834408
vt 0.143873 0.936362
vt 0.144751 0.834205
vt 0.168362 0.834408
vt 0.167484 0.936565
vt 0.093471 0.938854
vt 0.166585 0.777541
vt 0.165081 0.776036
vt 0.094962 0.940373
vt 0.140114 0.831277
vt 0.138624 0.829758
vt 0.165552 0.963105
vt 0.164047 0.961600
vt 0.048428 0.744503
vt 0.042880 0.746801
vt 0.042880 0.738955
vt 0.051857 0.747932
vt 0.042879 0.751651
vt 0.037331 0.744503
vt 0.050726 0.738955
vt 0.033902 0.747932
vt 0.055576 0.738955
vt 0.035033 0.738955
vt 0.048428 0.733407
vt 0.030184 0.738955
vt 0.051857 0.729978
vt 0.037331 0.733407
vt 0.042880 0.731109
vt 0.033903 0.729978
vt 0.042879 0.726259
vt 0.042878 0.764584
vt 0.061000 0.757078
vt 0.065067 0.761146
vt 0.042877 0.770335
vt 0.042878 0.759133
vt 0.057146 0.753225
vt 0.068509 0.738955
vt 0.074260 0.738955
vt 0.024757 0.757076
vt 0.020690 0.761142
vt 0.028611 0.753222
vt 0.063058 0.738955
vt 0.061001 0.720832
vt 0.065067 0.716765
vt 0.017251 0.738954
vt 0.011500 0.738954
vt 0.022701 0.738954
vt 0.057147 0.724686
vt 0.042878 0.713327
vt 0.042878 0.707576
vt 0.024758 0.720834
vt 0.020691 0.716767
vt 0.028611 0.724687
vt 0.042878 0.718776
vt 0.033063 0.937698
vt 0.034097 0.829684
vt 0.094505 0.830841
vt 0.227005 0.807869
vt 0.249582 0.939697
vt 0.221503 0.960176
vt 0.168362 0.810797
vt 0.096024 0.829351
vt 0.137561 0.940781
vt 0.084189 0.770599
vt 0.084189 0.756940
vt 0.101573 0.756940
vt 0.101573 0.770599
vt 0.084189 0.784257
vt 0.101573 0.784257
vt 0.084189 0.715967
vt 0.084189 0.702309
vt 0.101573 0.702309
vt 0.101573 0.715967
vt 0.084189 0.729625
vt 0.101573 0.729625
vt 0.227005 0.777541
vt 0.166586 0.807869
vt 0.225972 0.963104
vt 0.225972 0.993433
vt 0.165552 0.993433
vt 0.167484 0.960176
vt 0.222381 0.810797
vt 0.100699 0.824807
vt 0.134037 0.825126
vt 0.132885 0.945410
vt 0.099548 0.945091
vt 0.084189 0.743283
vt 0.101573 0.743283
vt 0.084189 0.797914
vt 0.101573 0.797914
vt 0.084189 0.811572
vt 0.101573 0.811572
vt 0.139080 0.939290
vt 0.250616 0.831683
vt 0.164048 0.994938
vt 0.165081 0.809374
vn -0.999957 0.000000 0.009312
vn -0.999957 0.000000 0.009312
vn -0.999957 0.000000 0.009312
vn -0.999957 0.000000 0.009312
vn 0.000000 -1.000000 0.000000
vn 0.000000 -1.000000 0.000000
vn 0.000000 -1.000000 0.000000
vn 0.000000 -1.000000 0.000000
vn 0.000000 0.000000 1.000000
vn 0.000000 0.000000 1.000000
vn 0.000000 0.000000 1.000000
vn 0.000000 0.000000 1.000000
vn 0.000000 1.000000 0.000000
vn 0.000000 1.000000 0.000000
vn 0.000000 1.000000 0.000000
vn 0.000000 1.000000 0.000000
vn -0.000007 0.000000 -1.000000
vn -0.000007 0.000000 -1.000000
vn -0.000007 0.000000 -1.000000
vn -0.000007 0.000000 -1.000000
vn 0.000000 1.000000 0.000000
vn 0.000000 1.000000 0.000000
vn 0.000000 1.000000 0.000000
vn 0.000000 1.000000 0.000000
vn 0.000000 1.000000 0.000000
vn 0.000000 1.000000 0.000000
vn 0.000000 1.000000 0.000000
vn 0.000000 1.000000 0.000000
vn 0.000000 1.000000 -0.000000
vn 0.000000 1.000000 -0.000000
vn 0.000000 1.000000 -0.000000
vn 0.000000 1.000000 -0.000000
vn 0.000000 1.000000 -0.000002
vn 0.000000 1.000000 -0.000002
vn 0.000000 1.000000 -0.000002
vn 0.000000 1.000000 -0.000002
vn -0.999963 0.000000 0.008595
vn -0.999963 0.000000 0.008595
vn -0.999963 0.000000 0.008595
vn -0.999963 0.000000 0.008595
vn 0.000000 0.000000 1.000000
vn 0.000000 0.000000 1.000000
vn 0.000000 0.000000 1.000000
vn 0.000000 0.000000 1.000000
vn 0.999963 0.000000 -0.008595
vn 0.999963 0.000000 -0.008595
vn 0.999963 0.000000 -0.008595
vn 0.999963 0.000000 -0.008595
vn 0.000000 0.000000 -1.000000
vn 0.000000 0.000000 -1.000000
vn 0.000000 0.000000 -1.000000
vn 0.000000 0.000000 -1.000000
vn 0.000004 -1.000000 -0.000000
vn 0.000004 -1.000000 -0.000000
vn 0.000004 -1.000000 -0.000000
vn 0.000004 -1.000000 -0.000000
vn -0.000044 0.000000 1.000000
vn -0.000044 0.000000 1.000000
vn -0.000044 0.000000 1.000000
vn -0.000044 0.000000 1.000000
vn 0.000000 1.000000 0.000000
vn 0.000000 1.000000 0.000000
vn 0.000000 1.000000 0.000000
vn 0.000000 1.000000 0.000000
vn 0.000017 0.000000 -1.000000
vn 0.000017 0.000000 -1.000000
vn 0.000017 0.000000 -1.000000
vn 0.000017 0.000000 -1.000000
vn 0.999956 -0.000018 -0.009440
vn 0.999956 -0.000018 -0.009440
vn 0.999955 -0.000018 -0.009440
vn 0.999955 -0.000018 -0.009440
vn 1.000000 0.000000 0.000000
vn 1.000000 0.000000 0.000000
vn 1.000000 0.000000 0.000000
vn 1.000000 0.000000 0.000000
vn 0.999956 0.000018 -0.009440
vn 0.999956 0.000018 -0.009440
vn 0.999955 0.000018 -0.009440
vn 0.999955 0.000018 -0.009440
vn 1.000000 0.000000 -0.000033
vn 1.000000 0.000000 -0.000033
vn 1.000000 0.000000 -0.000033
vn 1.000000 0.000000 -0.000033
vn 0.594893 0.307601 -0.742619
vn 0.594893 0.307601 -0.742619
vn 0.594894 0.307601 -0.742619
vn 0.594893 0.307601 -0.742619
vn 0.594893 -0.307601 -0.742619
vn 0.594893 -0.307601 -0.742619
vn 0.594893 -0.307601 -0.742619
vn 0.594893 -0.307601 -0.742619
vn 0.594893 -0.742618 -0.307603
vn 0.594893 -0.742618 -0.307603
vn 0.594893 -0.742618 -0.307603
vn 0.594893 -0.742618 -0.307603
vn 0.594893 -0.742619 0.307603
vn 0.594893 -0.742619 0.307603
vn 0.594893 -0.742619 0.307603
vn 0.594893 -0.742619 0.307603
vn 0.594893 -0.307601 0.742620
vn 0.594893 -0.307601 0.742620
vn 0.594893 -0.307601 0.742619
vn 0.594893 -0.307601 0.742620
vn 0.594893 0.307601 0.742619
vn 0.594893 0.307601 0.742619
vn 0.594893 0.307601 0.742619
vn 0.594893 0.307601 0.742619
vn 0.594894 0.742619 0.307602
vn 0.594894 0.742619 0.307602
vn 0.594894 0.742619 0.307602
vn 0.594894 0.742619 0.307602
vn 0.594893 0.742619 -0.307602
vn 0.594893 0.742619 -0.307602
vn 0.594893 0.742619 -0.307602
vn 0.594893 0.742619 -0.307602
vn 0.000000 0.382680 -0.923881
vn 0.000000 0.382680 -0.923881
vn 0.000000 0.382680 -0.923881
vn 0.000000 0.382680 -0.923881
vn 0.000000 -0.382681 -0.923881
vn 0.000000 -0.382681 -0.923881
vn 0.000000 -0.382681 -0.923881
vn 0.000000 -0.382681 -0.923881
vn 0.000000 -0.923880 -0.382682
vn 0.000000 -0.923880 -0.382682
vn 0.000000 -0.923880 -0.382682
vn 0.000000 -0.923880 -0.382682
vn 0.000000 -0.923880 0.382682
vn 0.000000 -0.923880 0.382682
vn 0.000000 -0.923880 0.382682
vn 0.000000 -0.923880 0.382682
vn 0.000000 -0.382681 0.923881
vn 0.000000 -0.382681 0.923881
vn 0.000000 -0.382681 0.923881
vn 0.000000 -0.382681 0.923881
vn 0.000000 0.382680 0.923881
vn 0.000000 0.382680 0.923881
vn 0.000000 0.382680 0.923881
vn 0.000000 0.382680 0.923881
vn 0.000000 0.923880 0.382682
vn 0.000000 0.923880 0.382682
vn 0.000000 0.923880 0.382682
vn 0.000000 0.923880 0.382682
vn 0.000000 0.923880 -0.382682
vn 0.000000 0.923880 -0.382682
vn 0.000000 0.923880 -0.382682
vn 0.000000 0.923880 -0.382682
vn -0.594893 0.307601 -0.742619
vn -0.594893 0.307601 -0.742619
vn -0.594893 0.307601 -0.742619
vn -0.594893 0.307601 -0.742619
vn -0.594893 -0.307602 -0.742619
vn -0.594893 -0.307602 -0.742619
vn -0.594893 -0.307602 -0.742619
vn -0.594893 -0.307602 -0.742619
vn -0.594894 -0.742618 -0.307603
vn -0.594894 -0.742618 -0.307603
vn -0.594894 -0.742618 -0.307603
vn -0.594894 -0.742618 -0.307603
vn -0.594894 -0.742618 0.307603
vn -0.594894 -0.742618 0.307603
vn -0.594894 -0.742618 0.307603
vn -0.594894 -0.742618 0.307603
vn -0.594893 -0.307601 0.742619
vn -0.594893 -0.307601 0.742619
vn -0.594893 -0.307601 0.742619
vn -0.594893 -0.307601 0.742619
vn -0.594893 0.307602 0.742619
vn -0.594893 0.307602 0.742619
vn -0.594893 0.307602 0.742619
vn -0.594893 0.307602 0.742619
vn -0.594894 0.742618 0.307602
vn -0.594894 0.742619 0.307602
vn -0.594894 0.742618 0.307602
vn -0.594894 0.742619 0.307602
vn -0.594894 0.742619 -0.307602
vn -0.594894 0.742618 -0.307602
vn -0.594894 0.742619 -0.307602
vn -0.594894 0.742618 -0.307602
vn -0.982055 0.072172 -0.174240
vn -0.982055 0.072172 -0.174240
vn -0.982055 0.072172 -0.174240
vn -0.982055 -0.072172 -0.174239
vn -0.982055 -0.072172 -0.174239
vn -0.982055 -0.072172 -0.174239
vn -0.982055 -0.174239 -0.072172
vn -0.982055 -0.174239 -0.072172
vn -0.982055 -0.174239 -0.072172
vn -0.982055 -0.174239 0.072172
vn -0.982055 -0.174239 0.072172
vn -0.982055 -0.174239 0.072172
vn -0.982055 -0.072172 0.174239
vn -0.982055 -0.072172 0.174239
vn -0.982055 -0.072172 0.174239
vn -0.982055 0.072172 0.174240
vn -0.982055 0.072172 0.174240
vn -0.982055 0.072172 0.174240
vn -0.982055 0.174239 0.072172
vn -0.982055 0.174239 0.072172
vn -0.982055 0.174239 0.072172
vn -0.982055 0.174239 -0.072172
vn -0.982055 0.174239 -0.072172
vn -0.982055 0.174239 -0.072172
vn 0.977981 0.079865 -0.192808
vn 0.977981 0.079865 -0.192808
vn 0.977981 0.079865 -0.192808
vn 0.977981 0.079865 -0.192808
vn 0.977981 -0.079865 -0.192809
vn 0.977981 -0.079865 -0.192809
vn 0.977981 -0.079865 -0.192809
vn 0.977981 -0.079865 -0.192809
vn 0.977982 -0.192803 -0.079862
vn 0.977982 -0.192803 -0.079862
vn 0.977982 -0.192803 -0.079862
vn 0.977982 -0.192803 -0.079862
vn 0.977982 -0.192804 0.079862
vn 0.977982 -0.192804 0.079862
vn 0.977982 -0.192804 0.079862
vn 0.977982 -0.192804 0.079862
vn 0.977981 -0.079865 0.192809
vn 0.977981 -0.079865 0.192809
vn 0.977981 -0.079865 0.192809
vn 0.977981 -0.079865 0.192809
vn 0.977981 0.079865 0.192808
vn 0.977981 0.079865 0.192808
vn 0.977981 0.079865 0.192808
vn 0.977981 0.079865 0.192808
vn 0.977982 0.192803 0.079862
vn 0.977982 0.192803 0.079862
vn 0.977982 0.192803 0.079862
vn 0.977982 0.192803 0.079862
vn 0.977982 0.192804 -0.079862
vn 0.977982 0.192804 -0.079862
vn 0.977982 0.192804 -0.079862
vn 0.977982 0.192804 -0.079862
vn 0.000000 0.382685 -0.923879
vn 0.000000 0.382685 -0.923879
vn 0.000000 0.382685 -0.923879
vn 0.000000 0.382685 -0.923879
vn 0.000000 -0.382685 -0.923879
vn 0.000000 -0.382685 -0.923879
vn 0.000000 -0.382685 -0.923879
vn 0.000000 -0.382685 -0.923879
vn 0.000000 -0.923881 -0.382679
vn 0.000000 -0.923881 -0.382679
vn 0.000000 -0.923881 -0.382679
vn 0.000000 -0.923881 -0.382679
vn 0.000000 -0.923881 0.382679
vn 0.000000 -0.923881 0.382679
vn 0.000000 -0.923881 0.382679
vn 0.000000 -0.923881 0.382679
vn 0.000000 -0.382685 0.923879
vn 0.000000 -0.382685 0.923879
vn 0.000000 -0.382685 0.923879
vn 0.000000 -0.382685 0.923879
vn 0.000000 0.382685 0.923879
vn 0.000000 0.382685 0.923879
vn 0.000000 0.382685 0.923879
vn 0.000000 0.382685 0.923879
vn 0.000000 0.923881 0.382679
vn 0.000000 0.923881 0.382679
vn 0.000000 0.923881 0.382679
vn 0.000000 0.923881 0.382679
vn 0.000000 0.923881 -0.382679
vn 0.000000 0.923881 -0.382679
vn 0.000000 0.923881 -0.382679
vn 0.000000 0.923881 -0.382679
s off
g polySurface40
f 17/1/1 18/2/2 19/3/3 20/4/4
f 15/62/5 16/63/6 4/64/7 3/13/8
f 16/83/9 2/65/10 5/84/11 4/14/12
f 12/8/13 11/7/14 13/12/15 14/11/16
f 1/85/17 15/86/18 3/87/19 6/19/20
f 2/101/21 1/66/22 7/6/23 8/5/24
f 1/85/25 6/19/26 9/88/27 7/67/28
f 6/100/29 5/17/30 10/10/31 9/9/32
f 5/84/33 2/65/34 8/89/35 10/68/36
f 8/5/37 7/6/38 11/7/39 12/8/40
f 7/67/41 9/88/42 13/12/43 11/7/44
f 9/9/45 10/10/46 14/11/47 13/12/48
f 10/68/49 8/89/50 12/8/51 14/11/52
f 21/16/53 22/69/54 18/2/55 17/1/56
f 22/90/57 23/91/58 19/3/59 18/2/60
f 23/18/61 24/70/62 20/4/63 19/3/64
f 24/92/65 21/93/66 17/1/67 20/4/68
f 3/13/69 4/64/70 22/69/71 21/16/72
f 4/14/73 5/84/74 23/103/75 22/15/76
f 5/17/77 6/100/78 24/70/79 23/18/80
f 6/19/81 3/87/82 21/102/83 24/20/84
f 25/39/85 26/38/86 34/42/87 33/43/88
f 26/38/89 27/46/90 35/48/91 34/42/92
f 27/46/93 28/52/94 36/54/95 35/48/96
f 28/52/97 29/58/98 37/60/99 36/54/100
f 29/58/101 30/56/102 38/61/103 37/60/104
f 30/56/105 31/50/106 39/55/107 38/61/108
f 31/50/109 32/44/110 40/49/111 39/55/112
f 32/44/113 25/39/114 33/43/115 40/49/116
f 33/43/117 34/42/118 42/25/119 41/24/120
f 34/42/121 35/48/122 43/28/123 42/25/124
f 35/48/125 36/54/126 44/32/127 43/28/128
f 36/54/129 37/60/130 45/36/131 44/32/132
f 37/60/133 38/61/134 46/37/135 45/36/136
f 38/61/137 39/55/138 47/33/139 46/37/140
f 39/55/141 40/49/142 48/29/143 47/33/144
f 40/49/145 33/43/146 41/24/147 48/29/148
f 41/24/149 42/25/150 50/22/151 49/21/152
f 42/25/153 43/28/154 51/26/155 50/22/156
f 43/28/157 44/32/158 52/30/159 51/26/160
f 44/32/161 45/36/162 53/34/163 52/30/164
f 45/36/165 46/37/166 54/35/167 53/34/168
f 46/37/169 47/33/170 55/31/171 54/35/172
f 47/33/173 48/29/174 56/27/175 55/31/176
f 48/29/177 41/24/178 49/21/179 56/27/180
f 49/21/181 50/22/182 57/23/183
f 50/22/184 51/26/185 57/23/186
f 51/26/187 52/30/188 57/23/189
f 52/30/190 53/34/191 57/23/192
f 53/34/193 54/35/194 57/23/195
f 54/35/196 55/31/197 57/23/198
f 55/31/199 56/27/200 57/23/201
f 56/27/202 49/21/203 57/23/204
f 26/38/205 25/39/206 58/40/207 59/41/208
f 27/46/209 26/38/210 59/41/211 60/47/212
f 28/52/213 27/46/214 60/47/215 61/53/216
f 29/58/217 28/52/218 61/53/219 62/59/220
f 30/56/221 29/58/222 62/59/223 63/57/224
f 31/50/225 30/56/226 63/57/227 64/51/228
f 32/44/229 31/50/230 64/51/231 65/45/232
f 25/39/233 32/44/234 65/45/235 58/40/236
f 59/94/237 58/81/238 66/82/239 67/95/240
f 60/72/241 59/94/242 67/95/243 68/73/244
f 61/71/245 60/72/246 68/73/247 69/74/248
f 62/75/249 61/71/250 69/74/251 70/76/252
f 63/96/253 62/75/254 70/76/255 71/97/256
f 64/98/257 63/96/258 71/97/259 72/99/260
f 65/77/261 64/78/262 72/79/263 73/80/264
f 58/81/265 65/77/266 73/80/267 66/82/268
