# This file uses meters as units for non-parametric coordinates.

g Keypad_Box:default1
v 4.256344 28.283470 -1.549463
v 11.967842 28.283470 -1.549463
v 4.256344 15.727443 -1.549463
v 11.967842 15.727443 -1.549463
v 5.038258 16.509357 0.230253
v 4.256344 15.727443 -0.551674
v 11.185917 16.509357 0.230253
v 11.967842 15.727443 -0.551674
v 5.038258 27.501545 0.230253
v 4.256344 28.283470 -0.551674
v 11.185917 27.501545 0.230253
v 11.967842 28.283470 -0.551674
v 11.967842 23.582508 -1.549463
v 11.967842 23.582508 -0.551674
v 11.185917 23.582508 0.230253
v 5.038258 23.582508 0.230253
v 4.256344 23.582508 -0.551674
v 10.670341 24.114292 -0.126801
v 5.553848 24.114292 -0.126801
v 10.670341 26.969749 -0.126801
v 5.553848 26.969749 -0.126801
v 10.813141 23.971479 0.230253
v 10.670341 24.114292 0.087441
v 5.411034 23.971479 0.230253
v 5.553848 24.114292 0.087441
v 10.813141 27.112560 0.230253
v 10.670341 26.969749 0.087441
v 5.411034 27.112560 0.230253
v 5.553848 26.969749 0.087441
v 4.256344 23.582508 -1.549463
v 13.489357 12.691735 3.021731
v 2.734818 12.691735 3.021731
v -2.642441 22.005432 3.021731
v 2.734818 31.319130 3.021731
v 13.489357 31.319130 3.021731
v 18.866629 22.005432 3.021731
v 13.489357 12.691735 -6.202425
v 2.734818 12.691735 -6.202425
v -2.642441 22.005432 -6.202425
v 2.734818 31.319130 -6.202425
v 13.489357 31.319130 -6.202425
v 18.866629 22.005432 -6.202425
v 8.112087 22.005432 -6.202425
v 12.924549 13.669999 3.021731
v 3.299625 13.669999 3.021731
v -1.512840 22.005432 3.021731
v 3.299625 30.340864 3.021731
v 12.924549 30.340864 3.021731
v 17.737026 22.005432 3.021731
v 12.924549 13.669999 -1.742037
v 3.299625 13.669999 -1.742037
v -1.512840 22.005432 -1.742037
v 3.299625 30.340864 -1.742037
v 12.924549 30.340864 -1.742037
v 17.737026 22.005432 -1.742037
v 8.112087 22.005432 -1.742037
v 10.494167 28.283470 -1.549463
v 10.583580 28.283470 -1.274273
v 10.817661 28.283470 -1.104201
v 11.107014 28.283470 -1.104201
v 11.341110 28.283470 -1.274273
v 11.430519 28.283470 -1.549463
v 10.494167 30.340864 -1.549463
v 10.583580 30.340864 -1.274273
v 10.817661 30.340864 -1.104201
v 11.107014 30.340864 -1.104201
v 11.341110 30.340864 -1.274273
v 11.430519 30.340864 -1.549463
vt 0.610000 0.070737
vt 0.583213 0.043949
vt 0.847400 0.043949
vt 0.820612 0.070737
vt 0.610000 0.313055
vt 0.583213 0.313055
vt 0.847400 0.313055
vt 0.820612 0.313055
vt 0.583213 0.474105
vt 0.610000 0.447317
vt 0.820612 0.447317
vt 0.847400 0.474105
vt 0.847400 0.508288
vt 0.583213 0.508288
vt 0.583213 0.009766
vt 0.847400 0.009766
vt 0.881584 0.043949
vt 0.881584 0.313055
vt 0.881584 0.313055
vt 0.881584 0.474105
vt 0.351072 0.630817
vt 0.526357 0.630817
vt 0.526357 0.728641
vt 0.351072 0.728641
vt 0.807842 0.326381
vt 0.802949 0.331273
vt 0.627664 0.331273
vt 0.622771 0.326381
vt 0.807842 0.433991
vt 0.802949 0.429098
vt 0.627664 0.429098
vt 0.622771 0.433991
vt 0.528822 0.782376
vt 0.307403 0.782376
vt 0.307403 0.773104
vt 0.528822 0.773104
vt 0.183832 0.782376
vt 0.183832 0.773104
vt 0.873811 0.782376
vt 0.652393 0.782376
vt 0.652393 0.773104
vt 0.873811 0.773104
vt 0.549029 0.474105
vt 0.549029 0.313055
vt 0.549029 0.043949
vt 0.635112 0.622114
vt 0.522458 0.622114
vt 0.522446 0.570712
vt 0.635103 0.570712
vt 0.409628 0.622114
vt 0.409643 0.570712
vt 0.296677 0.622114
vt 0.296703 0.570712
vt 0.183832 0.622114
vt 0.183833 0.570712
vt 0.860253 0.622114
vt 0.747627 0.622114
vt 0.747645 0.570712
vt 0.860252 0.570712
vt 0.222394 0.630817
vt 0.299520 0.630817
vt 0.260957 0.697609
vt 0.338083 0.697609
vt 0.299520 0.764402
vt 0.222395 0.764402
vt 0.183832 0.697609
vt 0.141421 0.009766
vt 0.404731 0.009766
vt 0.390903 0.033717
vt 0.155249 0.033717
vt 0.009766 0.237799
vt 0.037422 0.237799
vt 0.141421 0.465833
vt 0.155249 0.441881
vt 0.404731 0.465833
vt 0.390903 0.441881
vt 0.536386 0.237799
vt 0.508729 0.237799
vt 0.990234 0.563040
vt 0.816432 0.561509
vt 0.816434 0.517371
vt 0.990234 0.515840
vt 0.163608 0.559950
vt 0.009766 0.559925
vt 0.009766 0.518955
vt 0.163607 0.518930
vt 0.327083 0.561481
vt 0.327084 0.517398
vt 0.495117 0.561484
vt 0.495114 0.517395
vt 0.656695 0.559976
vt 0.656697 0.518904
vt 0.174615 0.042420
vt 0.342278 0.042420
vt 0.258447 0.198226
vt 0.081440 0.196969
vt 0.169943 0.350262
vt 0.346950 0.350262
vt 0.435453 0.196969
vt 0.009766 0.568842
vt 0.042024 0.568842
vt 0.042024 0.798212
vt 0.009766 0.798212
vt 0.074282 0.568842
vt 0.074282 0.798212
vt 0.106541 0.568842
vt 0.106541 0.798212
vt 0.138799 0.568842
vt 0.138799 0.798212
vt 0.171057 0.568842
vt 0.171057 0.798212
vn 0.000000 -0.707106 0.707107
vn 0.000000 -0.707106 0.707107
vn 0.000000 -0.707106 0.707107
vn 0.000000 -0.707106 0.707107
vn -0.707106 0.000000 0.707107
vn -0.707106 0.000000 0.707107
vn -0.707106 0.000000 0.707107
vn -0.707106 0.000000 0.707107
vn 0.707106 0.000000 0.707107
vn 0.707106 0.000000 0.707107
vn 0.707106 0.000000 0.707107
vn 0.707106 0.000000 0.707107
vn 0.000000 0.707106 0.707107
vn 0.000000 0.707106 0.707107
vn 0.000000 0.707106 0.707107
vn 0.000000 0.707106 0.707107
vn 0.000000 0.000000 1.000000
vn 0.000000 0.000000 1.000000
vn 0.000000 0.000000 1.000000
vn 0.000000 0.000000 1.000000
vn 0.000000 1.000000 0.000000
vn 0.000000 1.000000 0.000000
vn 0.000000 1.000000 0.000000
vn 0.000000 1.000000 0.000000
vn 0.000000 -1.000000 0.000000
vn 0.000000 -1.000000 0.000000
vn 0.000000 -1.000000 0.000000
vn 0.000000 -1.000000 0.000000
vn 1.000000 0.000000 0.000000
vn 1.000000 0.000000 0.000000
vn 1.000000 0.000000 0.000000
vn 1.000000 0.000000 0.000000
vn 1.000000 0.000000 0.000000
vn 1.000000 0.000000 0.000000
vn 1.000000 0.000000 0.000000
vn 1.000000 0.000000 0.000000
vn 0.707106 0.000000 0.707107
vn 0.707106 0.000000 0.707107
vn 0.707106 0.000000 0.707107
vn 0.707106 0.000000 0.707107
vn 0.000000 0.000000 1.000000
vn 0.000000 0.000000 1.000000
vn 0.000000 0.000000 1.000000
vn 0.000000 0.000000 1.000000
vn -0.707106 0.000000 0.707107
vn -0.707106 0.000000 0.707107
vn -0.707106 0.000000 0.707107
vn -0.707106 0.000000 0.707107
vn 0.000000 0.707107 0.707107
vn 0.000000 0.707107 0.707107
vn 0.000000 0.707107 0.707107
vn 0.000000 0.707107 0.707107
vn -0.707106 0.000000 0.707108
vn -0.707106 0.000000 0.707107
vn -0.707106 0.000000 0.707107
vn -0.707106 0.000000 0.707108
vn 0.707106 0.000000 0.707107
vn 0.707106 0.000000 0.707108
vn 0.707106 0.000000 0.707108
vn 0.707106 0.000000 0.707107
vn 0.000000 -0.707107 0.707106
vn 0.000000 -0.707107 0.707106
vn 0.000000 -0.707107 0.707106
vn 0.000000 -0.707107 0.707106
vn 0.000000 0.000000 1.000000
vn 0.000000 0.000000 1.000000
vn 0.000000 0.000000 1.000000
vn 0.000000 0.000000 1.000000
vn 0.000000 0.000000 1.000000
vn 0.000000 0.000000 1.000000
vn 0.000000 0.000000 1.000000
vn 0.000000 0.000000 1.000000
vn 0.000000 0.000000 1.000000
vn 0.000000 0.000000 1.000000
vn 0.000000 0.000000 1.000000
vn 0.000000 0.000000 1.000000
vn 0.000000 0.000000 1.000000
vn 0.000000 0.000000 1.000000
vn 0.000000 0.000000 1.000000
vn 0.000000 0.000000 1.000000
vn 0.000000 1.000000 0.000000
vn 0.000000 1.000000 0.000000
vn 0.000000 1.000000 0.000000
vn 0.000000 1.000000 0.000000
vn -1.000000 0.000000 0.000000
vn -1.000000 0.000000 0.000000
vn -1.000000 0.000000 0.000000
vn -1.000000 0.000000 0.000000
vn 0.000000 -1.000000 0.000000
vn 0.000000 -1.000000 0.000000
vn 0.000000 -1.000000 0.000000
vn 0.000000 -1.000000 0.000000
vn 1.000000 0.000000 0.000000
vn 1.000000 0.000000 0.000000
vn 1.000000 0.000000 0.000000
vn 1.000000 0.000000 0.000000
vn -1.000000 0.000000 0.000000
vn -1.000000 0.000000 0.000000
vn -1.000000 0.000000 0.000000
vn -1.000000 0.000000 0.000000
vn -1.000000 0.000000 0.000000
vn -1.000000 0.000000 0.000000
vn -1.000000 0.000000 0.000000
vn -1.000000 0.000000 0.000000
vn 0.000000 -1.000000 0.000000
vn 0.000000 -1.000000 0.000000
vn 0.000000 -1.000000 0.000000
vn 0.000000 -1.000000 0.000000
vn -0.866026 -0.500000 0.000000
vn -0.866026 -0.500000 0.000000
vn -0.866026 -0.500000 0.000000
vn -0.866026 -0.500000 0.000000
vn -0.866026 0.499999 0.000000
vn -0.866026 0.499999 0.000000
vn -0.866026 0.499999 0.000000
vn -0.866026 0.499999 0.000000
vn 0.000000 1.000000 0.000000
vn 0.000000 1.000000 0.000000
vn 0.000000 1.000000 0.000000
vn 0.000000 1.000000 0.000000
vn 0.866025 0.500000 0.000000
vn 0.866025 0.500000 0.000000
vn 0.866025 0.500000 0.000000
vn 0.866025 0.500000 0.000000
vn 0.866026 -0.500000 0.000000
vn 0.866026 -0.500000 0.000000
vn 0.866026 -0.500000 0.000000
vn 0.866026 -0.500000 0.000000
vn 0.000000 0.000000 -1.000000
vn 0.000000 0.000000 -1.000000
vn 0.000000 0.000000 -1.000000
vn 0.000000 0.000000 -1.000000
vn 0.000000 0.000000 -1.000000
vn 0.000000 0.000000 -1.000000
vn 0.000000 0.000000 -1.000000
vn 0.000000 0.000000 -1.000000
vn 0.000000 0.000000 -1.000000
vn 0.000000 0.000000 -1.000000
vn 0.000000 0.000000 -1.000000
vn 0.000000 0.000000 -1.000000
vn 0.000000 0.000000 -1.000000
vn 0.000000 0.000000 -1.000000
vn 0.000000 0.000000 -1.000000
vn 0.000000 0.000000 -1.000000
vn 0.000000 0.000000 -1.000000
vn 0.000000 0.000000 -1.000000
vn 0.000000 0.000000 1.000000
vn 0.000000 0.000000 1.000000
vn 0.000000 0.000000 1.000000
vn 0.000000 0.000000 1.000000
vn 0.000000 0.000000 1.000000
vn 0.000000 0.000000 1.000000
vn 0.000000 0.000000 1.000000
vn 0.000000 0.000000 1.000000
vn 0.000000 0.000000 1.000000
vn 0.000000 0.000000 1.000000
vn 0.000000 0.000000 1.000000
vn 0.000000 0.000000 1.000000
vn 0.000000 0.000000 1.000000
vn 0.000000 0.000000 1.000000
vn 0.000000 0.000000 1.000000
vn 0.000000 0.000000 1.000000
vn 0.000000 0.000000 1.000000
vn 0.000000 0.000000 1.000000
vn 0.000000 0.000000 1.000000
vn 0.000000 0.000000 1.000000
vn 0.000000 0.000000 1.000000
vn 0.000000 0.000000 1.000000
vn 0.000000 0.000000 1.000000
vn 0.000000 0.000000 1.000000
vn 0.000000 1.000000 0.000000
vn 0.000000 1.000000 0.000000
vn 0.000000 1.000000 0.000000
vn 0.000000 1.000000 0.000000
vn 0.866026 0.500000 0.000000
vn 0.866026 0.500000 0.000000
vn 0.866026 0.500000 0.000000
vn 0.866026 0.500000 0.000000
vn 0.866026 -0.499999 0.000000
vn 0.866026 -0.499999 0.000000
vn 0.866026 -0.499999 0.000000
vn 0.866026 -0.499999 0.000000
vn 0.000000 -1.000000 0.000000
vn 0.000000 -1.000000 0.000000
vn 0.000000 -1.000000 0.000000
vn 0.000000 -1.000000 0.000000
vn -0.866025 -0.500000 0.000000
vn -0.866025 -0.500000 0.000000
vn -0.866025 -0.500000 0.000000
vn -0.866025 -0.500000 0.000000
vn -0.866025 0.500000 0.000000
vn -0.866025 0.500000 0.000000
vn -0.866025 0.500000 0.000000
vn -0.866025 0.500000 0.000000
vn 0.000000 0.000000 1.000000
vn 0.000000 0.000000 1.000000
vn 0.000000 0.000000 1.000000
vn 0.000000 0.000000 1.000000
vn 0.000000 0.000000 1.000000
vn 0.000000 0.000000 1.000000
vn 0.000000 0.000000 1.000000
vn 0.000000 0.000000 1.000000
vn 0.000000 0.000000 1.000000
vn 0.000000 0.000000 1.000000
vn 0.000000 0.000000 1.000000
vn 0.000000 0.000000 1.000000
vn 0.000000 0.000000 1.000000
vn 0.000000 0.000000 1.000000
vn 0.000000 0.000000 1.000000
vn 0.000000 0.000000 1.000000
vn 0.000000 0.000000 1.000000
vn 0.000000 0.000000 1.000000
vn -0.951057 0.000000 0.309017
vn -0.951057 0.000000 0.309017
vn -0.951057 0.000000 0.309017
vn -0.951057 0.000000 0.309017
vn -0.587785 0.000000 0.809017
vn -0.587785 0.000000 0.809017
vn -0.587785 0.000000 0.809017
vn -0.587785 0.000000 0.809017
vn 0.000000 0.000000 1.000000
vn 0.000000 0.000000 1.000000
vn 0.000000 0.000000 1.000000
vn 0.000000 0.000000 1.000000
vn 0.587785 0.000000 0.809017
vn 0.587785 0.000000 0.809017
vn 0.587785 0.000000 0.809017
vn 0.587785 0.000000 0.809017
vn 0.951057 0.000000 0.309017
vn 0.951057 0.000000 0.309017
vn 0.951057 0.000000 0.309017
vn 0.951057 0.000000 0.309017
s off
g Keypad_Box:pCylinder4 polySurface54
f 5/1/1 6/2/2 8/3/3 7/4/4
f 6/2/5 5/1/6 16/5/7 17/6/8
f 7/4/9 8/3/10 14/7/11 15/8/12
f 10/9/13 9/10/14 11/11/15 12/12/16
f 5/1/17 7/4/18 15/8/19 16/5/20
f 10/9/21 12/12/22 2/13/23 1/14/24
f 3/15/25 4/16/26 8/3/27 6/2/28
f 8/3/29 4/17/30 13/18/31 14/7/32
f 14/7/33 13/19/34 2/20/35 12/12/36
f 15/8/37 14/7/38 12/12/39 11/11/40
f 19/21/41 18/22/42 20/23/43 21/24/44
f 17/6/45 16/5/46 9/10/47 10/9/48
f 22/25/49 23/26/50 25/27/51 24/28/52
f 23/26/53 22/25/54 26/29/55 27/30/56
f 24/28/57 25/27/58 29/31/59 28/32/60
f 27/30/61 26/29/62 28/32/63 29/31/64
f 16/5/65 15/8/66 22/25/67 24/28/68
f 15/8/69 11/11/70 26/29/71 22/25/72
f 11/11/73 9/10/74 28/32/75 26/29/76
f 9/10/77 16/5/78 24/28/79 28/32/80
f 25/33/81 23/34/82 18/35/83 19/36/84
f 23/34/85 27/37/86 20/38/87 18/35/88
f 27/39/89 29/40/90 21/41/91 20/42/92
f 29/40/93 25/33/94 19/36/95 21/41/96
f 17/6/97 10/9/98 1/43/99 30/44/100
f 6/2/101 17/6/102 30/44/103 3/45/104
f 31/46/105 32/47/106 38/48/107 37/49/108
f 32/47/109 33/50/110 39/51/111 38/48/112
f 33/50/113 34/52/114 40/53/115 39/51/116
f 34/52/117 35/54/118 41/55/119 40/53/120
f 35/56/121 36/57/122 42/58/123 41/59/124
f 36/57/125 31/46/126 37/49/127 42/58/128
f 37/60/129 38/61/130 43/62/131
f 38/61/132 39/63/133 43/62/134
f 39/63/135 40/64/136 43/62/137
f 40/64/138 41/65/139 43/62/140
f 41/65/141 42/66/142 43/62/143
f 42/66/144 37/60/145 43/62/146
f 32/67/147 31/68/148 44/69/149 45/70/150
f 33/71/151 32/67/152 45/70/153 46/72/154
f 34/73/155 33/71/156 46/72/157 47/74/158
f 35/75/159 34/73/160 47/74/161 48/76/162
f 36/77/163 35/75/164 48/76/165 49/78/166
f 31/68/167 36/77/168 49/78/169 44/69/170
f 45/79/171 44/80/172 50/81/173 51/82/174
f 46/83/175 45/84/176 51/85/177 52/86/178
f 47/87/179 46/83/180 52/86/181 53/88/182
f 48/89/183 47/87/184 53/88/185 54/90/186
f 49/91/187 48/89/188 54/90/189 55/92/190
f 44/80/191 49/91/192 55/92/193 50/81/194
f 51/93/195 50/94/196 56/95/197
f 52/96/198 51/93/199 56/95/200
f 53/97/201 52/96/202 56/95/203
f 54/98/204 53/97/205 56/95/206
f 55/99/207 54/98/208 56/95/209
f 50/94/210 55/99/211 56/95/212
f 57/100/213 58/101/214 64/102/215 63/103/216
f 58/101/217 59/104/218 65/105/219 64/102/220
f 59/104/221 60/106/222 66/107/223 65/105/224
f 60/106/225 61/108/226 67/109/227 66/107/228
f 61/108/229 62/110/230 68/111/231 67/109/232
