# This file uses meters as units for non-parametric coordinates.

g default
v -24.598521 -1.561833 36.726530
v 24.598521 -1.561833 36.726530
v -24.598521 1.561833 36.726530
v 24.598521 1.561833 36.726530
v -24.598521 1.561833 -36.726530
v 24.598521 1.561833 -36.726530
v -24.598521 -1.561833 -36.726530
v 24.598521 -1.561833 -36.726530
v -20.717184 1.561833 30.931547
v 20.717184 1.561833 30.931547
v 20.717184 1.561833 -30.931547
v -20.717184 1.561833 -30.931547
v -20.717184 -0.092976 30.931547
v 20.717184 -0.092976 30.931547
v 20.717184 -0.092976 -30.931547
v -20.717184 -0.092976 -30.931547
vt 0.684875 0.963750
vt 0.776506 0.963063
vt 0.776572 0.971947
vt 0.684942 0.972634
vt 0.684949 0.973548
vt 0.776579 0.972861
vt 0.776646 0.981745
vt 0.685015 0.982432
vt 0.871125 0.956092
vt 0.871462 1.001152
vt 0.804186 1.001656
vt 0.803848 0.956596
vt 0.623013 0.977506
vt 0.684385 0.977046
vt 0.684452 0.985930
vt 0.623080 0.986390
vt 0.622940 0.967715
vt 0.684312 0.967255
vt 0.684378 0.976139
vt 0.623006 0.976599
vt 0.598158 0.977497
vt 0.329278 0.984606
vt 0.328844 0.968208
vt 0.597725 0.961099
vt 0.598158 0.977497
vt 0.329278 0.984606
vt 0.328844 0.968208
vt 0.597725 0.961099
vt 0.324500 0.014137
vt 0.627454 0.014137
vt 0.627454 0.466459
vt 0.324500 0.466459
vt 0.990979 0.724672
vt 0.994611 0.835701
vt 0.986737 0.847457
vt 0.979333 0.732708
vt 0.989310 0.984714
vt 0.981436 0.972958
vt 0.980288 0.728267
vt 0.988162 0.716511
vt 0.373240 0.967034
vt 0.553329 0.962273
vt 0.553763 0.978670
vt 0.373673 0.983432
vt 0.553763 0.978670
vt 0.373673 0.983432
vt 0.373239 0.967034
vt 0.553329 0.962273
vt 0.988162 0.591010
vt 0.897379 0.972958
vt 0.986737 0.972958
vt 0.889505 0.984714
vt 0.994611 0.984714
vt 0.980288 0.579254
vt 0.980498 0.816757
vt 0.992362 0.824468
vn 0.000000 0.000000 1.000000
vn 0.000000 0.000000 1.000000
vn 0.000000 0.000000 1.000000
vn 0.000000 0.000000 1.000000
vn 0.000000 1.000000 0.000000
vn 0.000000 1.000000 0.000000
vn 0.000000 1.000000 0.000000
vn 0.000000 1.000000 0.000000
vn 0.000000 0.000000 -1.000000
vn 0.000000 0.000000 -1.000000
vn 0.000000 0.000000 -1.000000
vn 0.000000 0.000000 -1.000000
vn 0.000000 -1.000000 0.000000
vn 0.000000 -1.000000 0.000000
vn 0.000000 -1.000000 0.000000
vn 0.000000 -1.000000 0.000000
vn 1.000000 0.000000 0.000000
vn 1.000000 0.000000 0.000000
vn 1.000000 0.000000 0.000000
vn 1.000000 0.000000 0.000000
vn -1.000000 0.000000 0.000000
vn -1.000000 0.000000 0.000000
vn -1.000000 0.000000 0.000000
vn -1.000000 0.000000 0.000000
vn 0.000000 1.000000 -0.000000
vn 0.000000 1.000000 -0.000000
vn 0.000000 1.000000 -0.000000
vn 0.000000 1.000000 -0.000000
vn 0.000000 1.000000 0.000000
vn 0.000000 1.000000 0.000000
vn 0.000000 1.000000 0.000000
vn 0.000000 1.000000 0.000000
vn 0.000000 1.000000 0.000000
vn 0.000000 1.000000 0.000000
vn 0.000000 1.000000 0.000000
vn 0.000000 1.000000 0.000000
vn 0.000000 1.000000 0.000000
vn 0.000000 1.000000 0.000000
vn 0.000000 1.000000 0.000000
vn 0.000000 1.000000 0.000000
vn 0.000000 0.000000 -1.000000
vn 0.000000 0.000000 -1.000000
vn 0.000000 0.000000 -1.000000
vn 0.000000 0.000000 -1.000000
vn -1.000000 0.000000 0.000000
vn -1.000000 0.000000 0.000000
vn -1.000000 0.000000 0.000000
vn -1.000000 0.000000 0.000000
vn 0.000000 0.000000 1.000000
vn 0.000000 0.000000 1.000000
vn 0.000000 0.000000 1.000000
vn 0.000000 0.000000 1.000000
vn 1.000000 0.000000 0.000000
vn 1.000000 0.000000 0.000000
vn 1.000000 0.000000 0.000000
vn 1.000000 0.000000 0.000000
s off
g pCube12
f 1/13/1 2/14/2 4/15/3 3/16/4
f 13/29/5 14/30/6 15/31/7 16/32/8
f 5/17/9 6/18/10 8/19/11 7/20/12
f 7/9/13 8/10/14 2/11/15 1/12/16
f 2/1/17 8/2/18 6/3/19 4/4/20
f 7/5/21 1/6/22 3/7/23 5/8/24
f 3/33/25 4/56/26 10/55/27 9/36/28
f 4/34/29 6/53/30 11/51/31 10/35/32
f 6/37/33 5/52/34 12/50/35 11/38/36
f 5/39/37 3/54/38 9/49/39 12/40/40
f 9/41/41 10/42/42 14/43/43 13/44/44
f 10/21/45 11/22/46 15/23/47 14/24/48
f 11/45/49 12/46/50 16/47/51 15/48/52
f 12/25/53 9/26/54 13/27/55 16/28/56
