# This file uses meters as units for non-parametric coordinates.

g default
v 42.339911 93.515308 102.222469
v -79.200507 93.515308 68.282925
v -12.416605 93.515298 13.885111
v -79.200507 93.515308 -15.977844
v -79.200507 93.515308 -41.547732
v 42.339870 93.515308 -75.487265
v 117.455976 93.515308 13.367580
v -79.200507 93.515308 46.316784
v 42.339911 86.877921 102.222469
v -79.200507 86.877921 68.282925
v -12.416605 86.877901 13.885112
v -79.200507 86.877921 -15.977844
v -79.200507 86.877921 -41.547722
v 42.339870 86.877921 -75.487255
v 117.455976 86.877921 13.367580
v -79.200507 86.877921 46.316784
vt 0.580884 0.225234
vt 0.540904 0.368406
vt 0.462850 0.309458
vt 0.441647 0.368406
vt 0.411526 0.368406
vt 0.371546 0.225234
vt 0.476215 0.136749
vt 0.515029 0.368406
vt 0.774620 0.100239
vt 0.774620 0.024083
vt 0.794389 0.024083
vt 0.794389 0.100239
vt 0.774620 0.285776
vt 0.794389 0.285776
vt 0.774620 0.351199
vt 0.794389 0.351199
vt 0.739794 0.660357
vt 0.651625 0.976099
vt 0.510308 0.802605
vt 0.594560 0.976099
vt 0.508964 0.465218
vt 0.432730 0.976099
vt 0.278134 0.660357
vt 0.366303 0.976099
vt 0.745851 0.247806
vt 0.745851 0.609798
vt 0.726082 0.609798
vt 0.726082 0.247806
vt 0.745851 0.024083
vt 0.726082 0.024083
vt 0.750351 0.609798
vt 0.750351 0.247806
vt 0.770120 0.247806
vt 0.770120 0.609798
vt 0.750351 0.024083
vt 0.770120 0.024083
vn -0.000000 -1.000000 0.000000
vn -0.000000 -1.000000 0.000000
vn -0.000000 -1.000000 0.000000
vn -0.000000 -1.000000 0.000000
vn -0.000000 -1.000000 0.000000
vn -0.000000 -1.000000 0.000000
vn -0.000000 -1.000000 -0.000000
vn -0.000000 -1.000000 -0.000000
vn -0.000000 -1.000000 -0.000000
vn 0.000000 -1.000000 -0.000000
vn 0.000000 -1.000000 -0.000000
vn 0.000000 -1.000000 -0.000000
vn 0.000000 -1.000000 0.000000
vn 0.000000 -1.000000 0.000000
vn 0.000000 -1.000000 0.000000
vn -0.000000 -1.000000 0.000000
vn -0.000000 -1.000000 0.000000
vn 0.000000 1.000000 0.000000
vn 0.000000 1.000000 0.000000
vn 0.000000 1.000000 0.000000
vn 0.000000 1.000000 0.000000
vn 0.000000 1.000000 0.000000
vn 0.000000 1.000000 0.000000
vn 0.000000 1.000000 0.000000
vn 0.000000 1.000000 0.000000
vn 0.000000 1.000000 0.000000
vn -0.000000 1.000000 0.000000
vn -0.000000 1.000000 0.000000
vn -0.000000 1.000000 0.000000
vn -0.000000 1.000000 -0.000000
vn -0.000000 1.000000 -0.000000
vn -0.000000 1.000000 -0.000000
vn 0.000000 1.000000 0.000000
vn 0.000000 1.000000 0.000000
vn -0.268956 0.000000 0.963153
vn -0.268956 0.000000 0.963153
vn -0.268956 0.000000 0.963153
vn -0.268956 0.000000 0.963153
vn -1.000000 0.000000 0.000000
vn -1.000000 0.000000 0.000000
vn -1.000000 0.000000 0.000000
vn -1.000000 0.000000 0.000000
vn -0.268955 -0.000001 -0.963153
vn -0.268955 -0.000001 -0.963153
vn -0.268955 -0.000001 -0.963153
vn -0.268955 -0.000001 -0.963153
vn 0.763678 -0.000001 -0.645598
vn 0.763678 -0.000001 -0.645598
vn 0.763678 -0.000001 -0.645598
vn 0.763678 -0.000001 -0.645598
vn 0.763678 0.000000 0.645597
vn 0.763678 0.000000 0.645597
vn 0.763678 0.000000 0.645597
vn 0.763678 0.000000 0.645597
vn -1.000000 0.000000 0.000000
vn -1.000000 0.000000 0.000000
vn -1.000000 0.000000 0.000000
vn -1.000000 0.000000 0.000000
s off
g polySurface50 polySurface28 polySurface9
f 9/17/1 10/18/2 11/19/3
s 1
f 11/19/4 12/22/5 13/24/6
s off
f 13/24/7 14/23/8 11/19/9
f 14/23/10 15/21/11 11/19/12
f 15/21/13 9/17/14 11/19/15
s 1
f 10/18/16 16/20/17 11/19/4
f 11/19/4 16/20/17 12/22/5
s off
f 1/1/18 3/3/19 2/2/20
s 2
f 3/3/21 5/5/22 4/4/23
s off
f 5/5/24 3/3/25 6/6/26
f 6/6/27 3/3/28 7/7/29
f 7/7/30 3/3/31 1/1/32
s 2
f 2/2/33 3/3/21 8/8/34
f 3/3/21 4/4/23 8/8/34
s off
f 1/25/35 2/26/36 10/27/37 9/28/38
s 3
f 4/9/39 5/10/40 13/11/41 12/12/42
s off
f 5/31/43 6/32/44 14/33/45 13/34/46
f 6/32/47 7/35/48 15/36/49 14/33/50
f 7/29/51 1/25/52 9/28/53 15/30/54
s 3
f 2/15/55 8/13/56 16/14/57 10/16/58
f 8/13/56 4/9/39 12/12/42 16/14/57
