# This file uses meters as units for non-parametric coordinates.

g default
v 18.848631 3.281888 22.766059
v 34.860527 3.281888 -3.418008
v 19.920899 29.228452 27.149895
v 37.837789 29.228452 -2.112768
v -16.808447 29.228452 26.330524
v -36.645662 29.228452 -1.295696
v -16.090161 3.281888 21.844440
v -34.005463 3.281888 -3.075974
v 18.848621 24.039142 22.766067
v 34.860522 24.039142 -3.418008
v -34.005455 24.039142 -3.075951
v -16.090155 24.039142 21.844448
v 19.920899 24.039142 27.149890
v 37.837789 24.039142 -2.112773
v -36.645665 24.039142 -1.295696
v -16.808450 24.039142 26.330528
v 0.404579 3.281888 -20.076176
v 0.308870 3.281888 9.436515
v 0.308870 24.039142 9.436526
v 0.466757 24.039142 12.634524
v 0.466762 29.228452 12.634529
v 0.404574 29.228455 -20.076166
vt 0.919089 0.559438
vt 0.918986 0.710463
vt 0.816647 0.710463
vt 0.816544 0.559438
vt 0.822372 0.360836
vt 0.823218 0.229049
vt 0.912416 0.229049
vt 0.913261 0.360836
vt 0.915520 0.451952
vt 0.820113 0.451952
vt 0.241704 0.514917
vt 0.623983 0.513746
vt 0.404695 0.903264
vt 0.143235 0.700458
vt 0.133933 0.310140
vt 0.406582 0.121421
vt 0.771485 0.375260
vt 0.566333 0.249807
vt 0.576559 0.226480
vt 0.805832 0.366859
vt 0.692104 0.519281
vt 0.667048 0.520518
vt 0.764264 0.649004
vt 0.799412 0.654632
vt 0.569013 0.789370
vt 0.582961 0.810056
vt 0.100642 0.295103
vt 0.374088 0.079924
vt 0.190247 0.515869
vt 0.109173 0.716013
vt 0.370219 0.943056
vn 0.852839 -0.000000 0.522175
vn 0.852839 -0.000000 0.522175
vn 0.155572 0.983221 0.095253
vn 0.077402 0.977516 0.196143
vn -0.001491 0.997762 0.066847
vn 0.000000 1.000000 0.000000
vn -0.158845 0.980693 0.114060
vn -0.074273 0.977409 0.197875
vn -0.812282 0.000001 0.583265
vn -0.812282 0.000001 0.583265
vn 0.000000 -1.000000 0.000000
vn 0.000000 -1.000000 0.000000
vn 0.000000 -1.000000 0.000000
vn 0.000000 -1.000000 0.000000
vn 0.621255 -0.000000 0.783609
vn -0.022302 -0.000000 0.999751
vn 0.853129 0.000000 0.521700
vn 0.853129 0.000000 0.521700
vn 0.853129 0.000000 0.521700
vn 0.853129 0.000000 0.521700
vn -0.811957 -0.000000 0.583717
vn -0.811957 -0.000000 0.583717
vn -0.811957 -0.000000 0.583717
vn -0.811957 -0.000000 0.583717
vn 0.603376 -0.000000 0.797457
vn -0.026369 -0.000001 0.999652
vn -0.026369 -0.000001 0.999652
vn 0.603376 -0.000000 0.797457
vn 0.000000 -1.000000 -0.000000
vn 0.000000 -1.000000 -0.000000
vn 0.000000 -1.000000 -0.000000
vn 0.000000 -1.000000 -0.000000
vn 0.000000 -1.000000 -0.000000
vn 0.000000 -1.000000 0.000000
vn 0.000000 -1.000000 0.000000
vn 0.000000 -1.000000 -0.000000
vn 0.000000 -1.000000 0.000000
vn 0.000000 -1.000000 0.000000
vn 0.000000 -1.000000 0.000000
vn 0.000000 -1.000000 0.000000
vn -0.583754 -0.000001 0.811930
vn -0.583754 -0.000001 0.811930
vn -0.598014 0.000000 0.801485
s 1
g polySurface51 polySurface24 polySurface9
f 13/27/1 14/28/2 4/16/3 3/15/4
f 21/11/5 22/12/6 6/13/7 5/14/8
f 5/14/8 6/13/7 15/31/9 16/30/10
s 2
f 7//11 8//12 17//13 18//14
s 1
f 16/30/15 20/29/16 21/11/5 5/14/8
s off
f 1/1/17 2/2/18 10/3/19 9/4/20
f 12/5/21 11/6/22 8/7/23 7/8/24
s 3
f 7/8/25 18/9/26 19/10/27 12/5/28
s 4
f 9/17/29 10/18/30 14/19/31 13/20/32
f 11/25/33 12/23/34 16/24/35 15/26/36
f 12/23/34 19/22/37 20/21/38 16/24/35
s 2
f 18//14 17//13 2//39 1//40
s 3
f 19/10/27 18/9/26 1/1/41 9/4/42
s 4
f 20/21/38 19/22/37 9/17/29 13/20/32
s 1
f 21/11/5 20/29/16 13/27/43 3/15/4
f 3/15/4 4/16/3 22/12/6 21/11/5
