# This file uses meters as units for non-parametric coordinates.

g default
v -105.803750 111.023496 20.767739
v -105.803750 104.481885 18.058115
v -105.803750 97.940273 20.767739
v -105.803750 95.230643 27.309350
v -105.803750 97.940273 33.850960
v -105.803750 104.481885 36.560584
v -105.803750 111.023496 33.850961
v -105.803750 113.733126 27.309350
v -108.588089 111.023496 20.767739
v -108.588089 104.481885 18.058115
v -108.588089 97.940273 20.767739
v -108.588089 95.230643 27.309350
v -108.588089 97.940273 33.850960
v -108.588089 104.481885 36.560584
v -108.588089 111.023496 33.850961
v -108.588089 113.733126 27.309350
v -104.391902 109.858615 21.932631
v -104.391902 104.481885 19.705522
v -104.391902 99.105164 21.932631
v -104.391902 96.878051 27.309350
v -104.391902 99.105164 32.686068
v -104.391902 104.481885 34.913179
v -104.391902 109.858615 32.686068
v -104.391902 112.085718 27.309350
v -106.076908 109.858615 21.932631
v -106.076908 104.481885 19.705522
v -106.076908 104.481885 27.309350
v -106.076908 99.105164 21.932631
v -106.076908 96.878051 27.309350
v -106.076908 99.105164 32.686068
v -106.076908 104.481885 34.913179
v -106.076908 109.858615 32.686068
v -106.076908 112.085718 27.309350
vt 0.442757 0.685080
vt 0.442757 0.633289
vt 0.464801 0.633289
vt 0.464801 0.685080
vt 0.442757 0.581498
vt 0.464801 0.581498
vt 0.442758 0.477916
vt 0.442754 0.840452
vt 0.464799 0.840453
vt 0.464796 0.892243
vt 0.442757 0.788661
vt 0.464801 0.788662
vt 0.442757 0.736870
vt 0.464801 0.736871
vt 0.442757 0.529707
vt 0.464801 0.529707
vt 0.411274 0.702397
vt 0.386596 0.761975
vt 0.327018 0.702397
vt 0.327018 0.786653
vt 0.386596 0.642819
vt 0.267440 0.761975
vt 0.327018 0.618141
vt 0.242763 0.702397
vt 0.267440 0.642819
vt 0.431625 0.633289
vt 0.431624 0.685080
vt 0.418284 0.685080
vt 0.418284 0.633289
vt 0.431625 0.581498
vt 0.418284 0.581498
vt 0.431622 0.840451
vt 0.431620 0.887631
vt 0.418280 0.887630
vt 0.418281 0.840451
vt 0.431624 0.788661
vt 0.418284 0.788661
vt 0.431624 0.736871
vt 0.418284 0.736870
vt 0.431624 0.529707
vt 0.418284 0.529707
vt 0.431625 0.482527
vt 0.418285 0.482527
vt 0.442752 0.892243
vt 0.464802 0.477916
vn 0.000000 0.382683 -0.923880
vn 0.000000 0.382683 -0.923880
vn 0.000000 0.382683 -0.923880
vn 0.000000 0.382683 -0.923880
vn 0.000000 -0.382684 -0.923880
vn 0.000000 -0.382684 -0.923880
vn 0.000000 -0.382684 -0.923880
vn 0.000000 -0.382684 -0.923880
vn 0.000000 -0.923879 -0.382684
vn 0.000000 -0.923879 -0.382684
vn 0.000000 -0.923879 -0.382684
vn 0.000000 -0.923879 -0.382684
vn 0.000000 -0.923879 0.382684
vn 0.000000 -0.923879 0.382684
vn 0.000000 -0.923879 0.382684
vn 0.000000 -0.923879 0.382684
vn 0.000000 -0.382684 0.923880
vn 0.000000 -0.382684 0.923880
vn 0.000000 -0.382684 0.923880
vn 0.000000 -0.382684 0.923880
vn 0.000000 0.382684 0.923880
vn 0.000000 0.382684 0.923880
vn 0.000000 0.382684 0.923880
vn 0.000000 0.382684 0.923880
vn 0.000000 0.923879 0.382684
vn 0.000000 0.923879 0.382684
vn 0.000000 0.923879 0.382684
vn 0.000000 0.923879 0.382684
vn 0.000000 0.923879 -0.382684
vn 0.000000 0.923879 -0.382684
vn 0.000000 0.923879 -0.382684
vn 0.000000 0.923879 -0.382684
vn 1.000000 0.000000 0.000000
vn 1.000000 0.000000 0.000000
vn 1.000000 0.000000 0.000000
vn 1.000000 0.000000 0.000000
vn 1.000000 0.000000 0.000000
vn 1.000000 0.000000 0.000000
vn 1.000000 0.000000 0.000000
vn 1.000000 0.000000 0.000000
vn 1.000000 0.000000 0.000000
vn 0.733139 0.260255 -0.628311
vn 0.733139 0.260255 -0.628311
vn 0.733139 0.260255 -0.628311
vn 0.733139 0.260255 -0.628311
vn 0.733140 -0.260254 -0.628310
vn 0.733140 -0.260254 -0.628310
vn 0.733140 -0.260254 -0.628310
vn 0.733140 -0.260254 -0.628310
vn 0.733140 -0.628309 -0.260255
vn 0.733140 -0.628309 -0.260255
vn 0.733140 -0.628309 -0.260255
vn 0.733140 -0.628309 -0.260255
vn 0.733141 -0.628309 0.260255
vn 0.733141 -0.628309 0.260255
vn 0.733141 -0.628309 0.260255
vn 0.733141 -0.628309 0.260255
vn 0.733139 -0.260256 0.628310
vn 0.733140 -0.260256 0.628310
vn 0.733140 -0.260256 0.628310
vn 0.733139 -0.260256 0.628310
vn 0.733139 0.260254 0.628311
vn 0.733139 0.260254 0.628311
vn 0.733139 0.260254 0.628311
vn 0.733139 0.260254 0.628311
vn 0.733139 0.628310 0.260256
vn 0.733139 0.628310 0.260256
vn 0.733139 0.628310 0.260256
vn 0.733139 0.628310 0.260256
vn 0.733139 0.628311 -0.260256
vn 0.733139 0.628311 -0.260256
vn 0.733139 0.628311 -0.260256
vn 0.733139 0.628311 -0.260256
vn 0.000000 -0.382682 0.923880
vn 0.000000 -0.382682 0.923880
vn 0.000000 -0.382682 0.923880
vn 0.000000 -0.382682 0.923880
vn 0.000000 0.382683 0.923880
vn 0.000000 0.382683 0.923880
vn 0.000000 0.382683 0.923880
vn 0.000000 0.382683 0.923880
vn 0.000000 0.923879 0.382684
vn 0.000000 0.923879 0.382684
vn 0.000000 0.923879 0.382684
vn 0.000000 0.923879 0.382684
vn 0.000000 0.923879 -0.382684
vn 0.000000 0.923879 -0.382684
vn 0.000000 0.923879 -0.382684
vn 0.000000 0.923879 -0.382684
vn 0.000000 0.382684 -0.923879
vn 0.000000 0.382684 -0.923879
vn 0.000000 0.382684 -0.923879
vn 0.000000 0.382684 -0.923879
vn 0.000000 -0.382682 -0.923880
vn 0.000000 -0.382682 -0.923880
vn 0.000000 -0.382682 -0.923880
vn 0.000000 -0.382682 -0.923880
vn 0.000000 -0.923880 -0.382683
vn 0.000000 -0.923880 -0.382683
vn 0.000000 -0.923880 -0.382683
vn 0.000000 -0.923880 -0.382683
vn 0.000000 -0.923880 0.382683
vn 0.000000 -0.923880 0.382683
vn 0.000000 -0.923880 0.382683
vn 0.000000 -0.923880 0.382683
s off
g polySurface20 polySurface9
f 1/11/1 2/13/2 10/14/3 9/12/4
f 2/13/5 3/1/6 11/4/7 10/14/8
f 3/1/9 4/2/10 12/3/11 11/4/12
f 4/2/13 5/5/14 13/6/15 12/3/16
f 5/5/17 6/15/18 14/16/19 13/6/20
f 6/15/21 7/7/22 15/45/23 14/16/24
f 7/44/25 8/8/26 16/9/27 15/10/28
f 8/8/29 1/11/30 9/12/31 16/9/32
s 1
f 26/17/33 25/18/34 27/19/35
f 28/21/36 26/17/33 27/19/35
f 29/23/37 28/21/36 27/19/35
f 30/25/38 29/23/37 27/19/35
f 31/24/39 30/25/38 27/19/35
f 32/22/40 31/24/39 27/19/35
f 33/20/41 32/22/40 27/19/35
f 25/18/34 33/20/41 27/19/35
s off
f 2/13/42 1/11/43 17/36/44 18/38/45
f 3/1/46 2/13/47 18/38/48 19/27/49
f 4/2/50 3/1/51 19/27/52 20/26/53
f 5/5/54 4/2/55 20/26/56 21/30/57
f 6/15/58 5/5/59 21/30/60 22/40/61
f 7/7/62 6/15/63 22/40/64 23/42/65
f 8/8/66 7/44/67 23/33/68 24/32/69
f 1/11/70 8/8/71 24/32/72 17/36/73
f 18/38/74 17/36/75 25/37/76 26/39/77
f 19/27/78 18/38/79 26/39/80 28/28/81
f 20/26/82 19/27/83 28/28/84 29/29/85
f 21/30/86 20/26/87 29/29/88 30/31/89
f 22/40/90 21/30/91 30/31/92 31/41/93
f 23/42/94 22/40/95 31/41/96 32/43/97
f 24/32/98 23/33/99 32/34/100 33/35/101
f 17/36/102 24/32/103 33/35/104 25/37/105
