# This file uses meters as units for non-parametric coordinates.

g default
v -16.551270 -0.130031 40.627285
v 24.592929 -0.130031 40.454769
v -16.551270 53.851818 40.627285
v 24.592929 53.851818 40.454769
v -16.891009 53.851818 -40.443550
v 24.253260 53.851818 -40.443971
v -16.891009 -0.130031 -40.443550
v 24.253260 -0.130031 -40.443971
v -17.176912 27.064148 -32.824958
v -16.545627 27.064148 33.135923
v -16.545662 45.610432 33.135923
v -17.176842 45.610432 -32.824958
v 11.645196 27.064148 -32.824958
v 12.276507 27.064148 33.135923
v 12.276472 45.610432 33.135923
v 11.645232 45.610432 -32.824958
v -16.584848 53.851818 33.135923
v 24.559351 53.851818 33.135923
v 24.559351 -0.130031 33.135923
v -16.584848 -0.130031 33.135923
v -16.852314 -0.130031 -31.207333
v 24.291964 -0.130031 -32.824958
v 24.291964 53.851810 -32.824958
v -16.852297 53.851810 -32.824958
v -16.551270 45.610432 40.627285
v 24.592929 45.369490 40.454769
v 24.559351 45.369490 33.135853
v 24.291964 45.369482 -32.824958
v 24.253260 45.369490 -40.443971
v -16.891009 45.369490 -40.443550
v -16.551270 27.064148 40.627285
v 24.592929 27.010890 40.454769
v 24.559351 27.010890 33.135853
v 24.291964 27.010881 -32.824958
v 24.253260 27.010890 -40.443971
v -16.891009 27.010890 -40.443550
vt 0.120205 0.619168
vt 0.109604 0.619168
vt 0.109604 0.536735
vt 0.120205 0.536735
vt 0.109604 0.628314
vt 0.120205 0.628314
vt 0.086661 0.619168
vt 0.086661 0.536735
vt 0.109604 0.527214
vt 0.120205 0.527214
vt 0.086661 0.628314
vt 0.052743 0.619168
vt 0.052743 0.536735
vt 0.086661 0.527214
vt 0.052743 0.628314
vt 0.052743 0.527214
vt 0.205103 0.536529
vt 0.239088 0.538552
vt 0.239083 0.618964
vt 0.205098 0.618962
vt 0.205170 0.527008
vt 0.239089 0.527010
vt 0.205098 0.628324
vt 0.239083 0.628326
vt 0.181925 0.536527
vt 0.182227 0.527006
vt 0.181920 0.618960
vt 0.181920 0.628322
vt 0.171624 0.536527
vt 0.171629 0.527006
vt 0.171619 0.628321
vt 0.171622 0.618959
vt 0.120200 0.628314
vt 0.120214 0.527214
vt 0.284161 0.506445
vt 0.284161 0.472681
vt 0.361432 0.473421
vt 0.361432 0.507185
vt 0.185164 0.507184
vt 0.185164 0.473420
vt 0.262435 0.472681
vt 0.262435 0.506445
vt 0.109905 0.679733
vt 0.120205 0.679733
vt 0.086728 0.679733
vt 0.052743 0.679733
vt 0.120205 0.475795
vt 0.109604 0.475795
vt 0.086661 0.475795
vt 0.052743 0.475795
vt 0.163438 0.473419
vt 0.163437 0.507184
vn 0.004192 0.000000 0.999991
vn 0.004192 0.000000 0.999991
vn 0.004192 0.000000 0.999991
vn 0.004192 0.000000 0.999991
vn 0.000000 1.000000 -0.000000
vn 0.000000 1.000000 -0.000000
vn 0.000000 1.000000 -0.000000
vn 0.000000 1.000000 -0.000000
vn -0.000010 0.000000 -1.000000
vn -0.000010 0.000000 -1.000000
vn -0.000010 0.000000 -1.000000
vn -0.000010 0.000000 -1.000000
vn 0.999992 -0.000001 -0.004107
vn 0.999992 -0.000000 -0.004107
vn 0.999991 -0.000000 -0.004160
vn 0.999991 -0.000001 -0.004160
vn -0.999987 -0.004855 0.001438
vn -0.999976 -0.005188 0.004592
vn -0.999970 -0.004447 0.006378
vn -0.999974 -0.004155 0.005910
vn -0.999910 0.012448 0.004989
vn -0.999863 0.015305 0.006307
vn -0.999837 0.017532 0.004364
vn -0.999892 0.014299 -0.003403
vn 0.000000 1.000000 -0.000000
vn 0.000000 1.000000 -0.000000
vn 0.000000 1.000000 -0.000000
vn 0.000000 1.000000 -0.000000
vn 0.000000 0.000000 -1.000000
vn 0.000000 0.000000 -1.000000
vn 0.000000 0.000000 -1.000000
vn 0.000000 0.000000 -1.000000
vn 0.000000 -1.000000 0.000000
vn 0.000000 -1.000000 0.000000
vn 0.000000 -1.000000 0.000000
vn 0.000000 -1.000000 0.000000
vn 0.000000 0.000000 1.000000
vn 0.000000 0.000000 1.000000
vn 0.000000 0.000000 1.000000
vn 0.000000 0.000000 1.000000
vn 0.000000 1.000000 -0.000000
vn 0.000000 1.000000 -0.000000
vn 0.999990 -0.000000 -0.004588
vn 0.999989 -0.000001 -0.004588
vn -1.000000 0.000428 0.000804
vn -0.999998 0.000721 0.001864
vn 0.999987 0.000000 -0.005080
vn 0.999987 0.000000 -0.005080
vn 0.000000 1.000000 0.000000
vn 0.000000 1.000000 0.000000
vn -0.999675 0.019399 -0.016520
vn -0.999498 0.005883 -0.031139
vn 0.004193 0.000000 0.999991
vn 0.004193 0.000000 0.999991
vn 0.999989 0.000000 -0.004588
vn 0.999992 0.000000 -0.004107
vn 0.999991 0.000000 -0.004160
vn 0.999987 0.000000 -0.005080
vn -0.000010 0.000000 -1.000000
vn -0.000010 0.000000 -1.000000
vn -0.999721 -0.003983 -0.023294
vn -0.999872 -0.006409 -0.014645
vn 0.004193 0.000000 0.999991
vn 0.004193 0.000000 0.999991
vn 0.999989 0.000000 -0.004588
vn 0.999992 0.000000 -0.004107
vn 0.999991 0.000000 -0.004160
vn 0.999987 0.000000 -0.005080
vn -0.000010 0.000000 -1.000000
vn -0.000010 0.000000 -1.000000
vn -1.000000 -0.000732 0.000054
vn -0.999995 -0.002377 0.001867
s 1
g polySurface41 polySurface39
f 25/43/1 26/5/2 4/6/3 3/44/4
s 2
f 17/32/5 18/1/6 23/4/7 24/29/8
s 3
f 5/47/9 6/10/10 29/9/11 30/48/12
s 4
f 18/1/13 27/2/14 28/3/15 23/4/16
s 5
f 9/17/17 21/18/18 20/19/19 10/20/20
f 11/27/21 17/32/22 24/29/23 12/25/24
s off
f 13/35/25 9/36/26 10/37/27 14/38/28
f 10/51/29 11/40/30 15/39/31 14/52/32
f 15/39/33 11/40/34 12/41/35 16/42/36
f 12/41/37 9/36/38 13/35/39 16/42/40
s 2
f 3/31/41 4/33/42 18/1/6 17/32/5
s 4
f 26/5/43 27/2/14 18/1/13 4/6/44
s 5
f 31/23/45 10/20/20 20/19/19 1/24/46
s 4
f 23/4/16 28/3/15 29/9/47 6/10/48
s 2
f 24/29/8 23/4/7 6/34/49 5/30/50
s 5
f 12/25/24 24/29/23 5/30/51 30/26/52
s 1
f 31/45/53 32/11/54 26/5/2 25/43/1
s 4
f 32/11/55 33/7/56 27/2/14 26/5/43
f 28/3/15 27/2/14 33/7/56 34/8/57
f 29/9/47 28/3/15 34/8/57 35/14/58
s 3
f 30/48/12 29/9/11 35/14/59 36/49/60
s 5
f 9/17/17 36/21/61 7/22/62 21/18/18
s 1
f 1/46/63 2/15/64 32/11/54 31/45/53
s 4
f 2/15/65 19/12/66 33/7/56 32/11/55
f 34/8/57 33/7/56 19/12/66 22/13/67
f 35/14/58 34/8/57 22/13/67 8/16/68
s 3
f 36/49/60 35/14/59 8/16/69 7/50/70
s 5
f 12/25/24 30/26/52 36/21/61 9/17/17
f 11/27/21 25/28/71 3/31/72 17/32/22
f 11/27/21 10/20/20 31/23/45 25/28/71
