# This file uses meters as units for non-parametric coordinates.

g default
v -99.816704 88.325706 189.371506
v -87.141289 88.325706 189.375900
v -99.806564 88.325706 140.432892
v -87.131149 88.325706 140.437332
v -99.807594 88.325706 145.326752
v -87.132156 88.325706 145.331177
v -99.815788 88.325706 184.967010
v -87.140373 88.325706 184.971436
v -87.131149 83.382828 140.437332
v -99.806564 83.382828 140.432892
v -99.807594 83.382828 145.326752
v -99.815788 83.382828 184.967010
v -99.816704 83.382828 189.371506
v -87.141289 83.382828 189.375900
v -87.131149 63.277088 140.437332
v -99.806564 63.277088 140.432892
v -99.807594 63.277088 145.326752
v -99.815796 63.277088 184.966995
v -99.816704 63.277088 189.371506
v -87.141289 63.277088 189.375900
v -87.131149 57.021618 140.437332
v -99.806564 57.021618 140.432892
v -99.807594 57.021618 145.326752
v -99.815788 57.021618 184.967010
v -99.816704 57.021618 189.371506
v -87.141289 57.021618 189.375900
v -87.131149 37.451492 140.437332
v -99.806564 37.451492 140.432892
v -99.807594 37.451492 145.326752
v -99.815788 37.451492 184.967010
v -99.816704 37.451492 189.371506
v -87.141289 37.451492 189.375900
v -87.131149 33.145576 140.437332
v -99.806564 33.145576 140.432892
v -99.807594 33.145576 145.326752
v -99.815788 33.145576 184.967010
v -99.816704 33.145576 189.371506
v -87.141289 33.145576 189.375900
v -89.894928 83.382828 146.208954
v -89.903145 83.382828 185.849228
v -89.894928 63.277088 146.208954
v -89.903168 63.277088 185.849213
v -89.894928 57.021618 146.208954
v -89.903145 57.021618 185.849228
v -89.894928 37.451492 146.208954
v -89.903145 37.451492 185.849228
v -87.131149 13.575459 140.437332
v -99.806564 13.575459 140.432892
v -99.807594 13.575459 145.326752
v -89.903145 33.145580 185.849228
v -89.894928 33.145580 146.208954
v -89.894928 13.575459 146.208954
v -89.903145 13.575459 185.849228
v -99.815788 13.575459 184.967010
v -99.816704 13.575459 189.371506
v -87.141289 13.575459 189.375900
v -87.131149 9.269536 140.437332
v -99.806564 9.269536 140.432892
v -99.807594 9.269536 145.326752
v -99.815788 9.269536 184.967010
v -99.816704 9.269536 189.371506
v -87.141289 9.269536 189.375900
vt 0.186733 0.431695
vt 0.212103 0.431695
vt 0.212103 0.457319
vt 0.186733 0.457319
vt 0.186733 0.327468
vt 0.212103 0.327468
vt 0.417597 0.431695
vt 0.417597 0.457319
vt 0.186733 0.295039
vt 0.212103 0.295039
vt 0.440430 0.431695
vt 0.440430 0.457319
vt 0.186733 0.193588
vt 0.212103 0.193588
vt 0.417597 0.327468
vt 0.417597 0.295039
vt 0.440430 0.327468
vt 0.186733 0.171266
vt 0.212103 0.171266
vt 0.440430 0.295039
vt 0.186733 0.069816
vt 0.212103 0.069816
vt 0.417597 0.193588
vt 0.417597 0.171266
vt 0.440430 0.193588
vt 0.186733 0.047494
vt 0.212103 0.047494
vt 0.440430 0.171266
vt 0.417597 0.069816
vt 0.417597 0.047494
vt 0.440430 0.069816
vt 0.440430 0.047494
vt 0.552816 0.278028
vt 0.549913 0.176396
vt 0.601462 0.174923
vt 0.604364 0.276556
vt 0.553446 0.278023
vt 0.550457 0.176392
vt 0.600632 0.174916
vt 0.603621 0.276547
vt 0.553455 0.278026
vt 0.550518 0.176394
vt 0.600693 0.174944
vt 0.603630 0.276576
vt 0.445065 0.275843
vt 0.510774 0.275820
vt 0.510779 0.301190
vt 0.445070 0.301213
vt 0.445022 0.070349
vt 0.510731 0.070326
vt 0.445017 0.047516
vt 0.510726 0.047494
vt 0.527336 0.276498
vt 0.524434 0.174864
vt 0.527539 0.123184
vt 0.542591 0.022630
vt 0.568071 0.024161
vt 0.553019 0.124715
vt 0.527965 0.276513
vt 0.524976 0.174883
vt 0.527955 0.124576
vt 0.524984 0.326819
vt 0.550465 0.328329
vt 0.553437 0.126086
vt 0.527975 0.276503
vt 0.525037 0.174872
vt 0.528043 0.124567
vt 0.543057 0.024007
vt 0.568537 0.025529
vt 0.553524 0.126089
vt 0.044744 0.431695
vt 0.110453 0.431695
vt 0.110453 0.457319
vt 0.044744 0.457319
vt 0.044744 0.327468
vt 0.110453 0.327468
vt 0.044744 0.295039
vt 0.110453 0.295039
vt 0.044744 0.193588
vt 0.110453 0.193588
vt 0.044744 0.171266
vt 0.110453 0.171266
vt 0.044744 0.069816
vt 0.110453 0.069816
vt 0.044744 0.047494
vt 0.110453 0.047494
vt 0.115806 0.047494
vt 0.181515 0.047494
vt 0.181515 0.073117
vt 0.115806 0.073117
vt 0.181515 0.177345
vt 0.115806 0.177345
vt 0.181515 0.209773
vt 0.115806 0.209773
vt 0.181515 0.311224
vt 0.115806 0.311224
vt 0.181515 0.333546
vt 0.115806 0.333546
vt 0.181515 0.434997
vt 0.115806 0.434997
vt 0.181515 0.457319
vt 0.115806 0.457319
vt 0.524232 0.328179
vt 0.549712 0.329709
vt 0.524966 0.326808
vt 0.550447 0.328331
vt 0.542923 0.024009
vt 0.568404 0.025519
vn -0.000347 0.000000 1.000000
vn -0.000347 0.000000 1.000000
vn -0.000347 0.000000 1.000000
vn -0.000347 0.000000 1.000000
vn 0.000000 1.000000 0.000000
vn 0.000000 1.000000 0.000000
vn 0.000000 1.000000 -0.000001
vn 0.000000 1.000000 -0.000001
vn 0.000350 0.000000 -1.000000
vn 0.000350 0.000000 -1.000000
vn 0.000350 0.000000 -1.000000
vn 0.000350 0.000000 -1.000000
vn -1.000000 0.000000 -0.000210
vn -1.000000 0.000000 -0.000208
vn -1.000000 0.000000 -0.000207
vn -1.000000 0.000000 -0.000210
vn -1.000000 0.000000 -0.000207
vn -1.000000 0.000000 -0.000207
vn 0.000000 1.000000 0.000000
vn 0.000000 1.000000 0.000000
vn -1.000000 0.000000 -0.000207
vn -1.000000 0.000000 -0.000208
vn 0.000000 1.000000 0.000001
vn 0.000000 1.000000 0.000001
vn 0.000351 0.000000 -1.000000
vn 0.000351 0.000000 -1.000000
vn -1.000000 0.000000 -0.000210
vn -1.000000 -0.000000 -0.000208
vn -1.000000 0.000001 -0.000208
vn -1.000000 0.000001 -0.000208
vn -1.000000 0.000001 -0.000208
vn -1.000000 0.000001 -0.000208
vn -1.000000 -0.000000 -0.000207
vn -1.000000 0.000000 -0.000207
vn -0.000347 0.000000 1.000000
vn -0.000347 0.000000 1.000000
vn 0.000351 0.000000 -1.000000
vn 0.000351 0.000000 -1.000000
vn -1.000000 0.000000 -0.000210
vn -1.000000 -0.000000 -0.000208
vn -1.000000 -0.000000 -0.000207
vn -1.000000 -0.000000 -0.000208
vn -0.000347 0.000000 1.000000
vn -0.000347 0.000000 1.000000
vn 0.000350 0.000000 -1.000000
vn 0.000350 0.000000 -1.000000
vn -1.000000 0.000000 -0.000210
vn -1.000000 0.000000 -0.000208
vn -1.000000 0.000000 -0.000207
vn -1.000000 0.000000 -0.000207
vn -1.000000 0.000000 -0.000207
vn -1.000000 0.000000 -0.000207
vn -1.000000 0.000000 -0.000207
vn -1.000000 0.000000 -0.000208
vn -0.000346 0.000000 1.000000
vn -0.000346 0.000000 1.000000
vn 0.000350 0.000000 -1.000000
vn 0.000350 0.000000 -1.000000
vn -1.000000 0.000000 -0.000210
vn -1.000000 0.000000 -0.000208
vn -1.000000 0.000000 -0.000207
vn -1.000000 0.000000 -0.000208
vn -0.000346 0.000000 1.000000
vn -0.000346 0.000000 1.000000
vn 0.000000 -1.000000 0.000000
vn 0.000000 -1.000000 0.000000
vn 0.000000 -1.000000 0.000000
vn 0.000000 -1.000000 0.000000
vn -0.088647 0.000000 0.996063
vn -0.088647 0.000000 0.996063
vn -0.088647 0.000000 0.996063
vn -0.088647 0.000000 0.996063
vn 0.000000 1.000000 0.000000
vn 0.000000 1.000000 0.000000
vn 0.000000 1.000000 0.000000
vn 0.000000 1.000000 0.000000
vn 0.088648 0.000001 -0.996063
vn 0.088648 0.000001 -0.996063
vn 0.088648 0.000001 -0.996063
vn 0.088648 0.000001 -0.996063
vn 0.000000 -1.000000 0.000000
vn 0.000000 -1.000000 0.000000
vn 0.000000 -1.000000 0.000000
vn 0.000000 -1.000000 0.000000
vn -0.088648 0.000000 0.996063
vn -0.088648 0.000000 0.996063
vn -0.088648 0.000000 0.996063
vn -0.088648 0.000000 0.996063
vn 0.000000 1.000000 0.000000
vn 0.000000 1.000000 0.000000
vn 0.000000 1.000000 0.000000
vn 0.000000 1.000000 0.000000
vn 0.088649 0.000000 -0.996063
vn 0.088649 0.000000 -0.996063
vn 0.088649 0.000000 -0.996063
vn 0.088649 0.000000 -0.996063
vn 0.000350 0.000000 -1.000000
vn 0.000350 0.000000 -1.000000
vn -1.000000 0.000000 -0.000210
vn -1.000000 0.000000 -0.000208
vn -1.000000 0.000000 -0.000207
vn -1.000000 0.000000 -0.000207
vn -1.000000 0.000000 -0.000207
vn -1.000000 0.000000 -0.000207
vn -1.000000 0.000000 -0.000207
vn -1.000000 0.000000 -0.000208
vn -0.000346 0.000000 1.000000
vn -0.000346 0.000000 1.000000
vn 0.000350 0.000000 -1.000000
vn 0.000350 0.000000 -1.000000
vn -1.000000 0.000000 -0.000210
vn -1.000000 0.000000 -0.000207
vn -1.000000 0.000000 -0.000207
vn -1.000000 0.000000 -0.000208
vn -0.000347 0.000000 1.000000
vn -0.000347 0.000000 1.000000
vn 0.000000 -1.000000 -0.000000
vn 0.000000 -1.000000 -0.000000
vn 0.000000 -1.000000 -0.000000
vn 0.000000 -1.000000 -0.000000
vn -0.088647 0.000000 0.996063
vn -0.088647 0.000000 0.996063
vn -0.088647 0.000000 0.996063
vn -0.088647 0.000000 0.996063
vn 0.000000 1.000000 0.000000
vn 0.000000 1.000000 0.000000
vn 0.000000 1.000000 0.000000
vn 0.000000 1.000000 0.000000
vn 0.088649 0.000000 -0.996063
vn 0.088649 0.000000 -0.996063
vn 0.088649 0.000000 -0.996063
vn 0.088649 0.000000 -0.996063
s 1
g polySurface42
f 13/71/1 14/72/2 2/73/3 1/74/4
s 2
f 5/45/5 6/46/6 4/47/7 3/48/8
s 3
f 3/87/9 4/88/10 9/89/11 10/90/12
s 4
f 10/1/13 11/2/14 5/3/15 3/4/16
f 5/3/15 11/2/14 12/7/17 7/8/18
s 2
f 7/49/19 8/50/20 6/46/6 5/45/5
s 4
f 7/8/18 12/7/17 13/11/21 1/12/22
s 2
f 1/51/23 2/52/24 8/50/20 7/49/19
s 3
f 10/90/12 9/89/11 15/91/25 16/92/26
s 4
f 16/5/27 17/6/28 11/2/14 10/1/13
s off
f 40/33/29 39/34/30 41/35/31 42/36/32
s 4
f 13/11/21 12/7/17 18/15/33 19/17/34
s 1
f 19/75/35 20/76/36 14/72/2 13/71/1
s 3
f 16/92/26 15/91/25 21/93/37 22/94/38
s 4
f 22/9/39 23/10/40 17/6/28 16/5/27
f 18/15/33 17/6/28 23/10/40 24/16/41
f 19/17/34 18/15/33 24/16/41 25/20/42
s 1
f 25/77/43 26/78/44 20/76/36 19/75/35
s 3
f 22/94/38 21/93/37 27/95/45 28/96/46
s 4
f 28/13/47 29/14/48 23/10/40 22/9/39
s off
f 44/37/49 43/38/50 45/39/51 46/40/52
s 4
f 25/20/42 24/16/41 30/23/53 31/25/54
s 1
f 31/79/55 32/80/56 26/78/44 25/77/43
s 3
f 28/96/46 27/95/45 33/97/57 34/98/58
s 4
f 34/18/59 35/19/60 29/14/48 28/13/47
f 30/23/53 29/14/48 35/19/60 36/24/61
f 31/25/54 30/23/53 36/24/61 37/28/62
s 1
f 37/81/63 38/82/64 32/80/56 31/79/55
s off
f 12/53/65 11/54/66 39/34/67 40/33/68
f 11/54/69 17/55/70 41/58/71 39/34/72
f 17/55/73 18/56/74 42/57/75 41/58/76
f 18/103/77 12/53/78 40/33/79 42/104/80
f 24/59/81 23/60/82 43/38/83 44/37/84
f 23/60/85 29/61/86 45/64/87 43/38/88
f 29/61/89 30/107/90 46/108/91 45/64/92
f 30/62/93 24/59/94 44/37/95 46/63/96
s 3
f 34/98/58 33/97/57 47/99/97 48/100/98
s 4
f 48/21/99 49/22/100 35/19/60 34/18/59
s off
f 50/41/101 51/42/102 52/43/103 53/44/104
s 4
f 37/28/62 36/24/61 54/29/105 55/31/106
s 1
f 55/83/107 56/84/108 38/82/64 37/81/63
s 3
f 48/100/98 47/99/97 57/101/109 58/102/110
s 4
f 58/26/111 59/27/112 49/22/100 48/21/99
f 54/29/105 49/22/100 59/27/112 60/30/113
f 55/31/106 54/29/105 60/30/113 61/32/114
s 1
f 61/85/115 62/86/116 56/84/108 55/83/107
s off
f 36/65/117 35/66/118 51/42/119 50/41/120
f 35/66/121 49/67/122 52/70/123 51/42/124
f 49/67/125 54/68/126 53/69/127 52/70/128
f 54/105/129 36/65/130 50/41/131 53/106/132
