# This file uses meters as units for non-parametric coordinates.

g default
v 0.556745 0.684275 -8.081045
v -0.000002 0.914887 -8.081045
v -0.556750 0.684275 -8.081045
v -0.787365 0.127530 -8.081045
v -0.556750 -0.429215 -8.081045
v -0.000002 -0.659827 -8.081045
v 0.556745 -0.429215 -8.081045
v 0.787349 0.127530 -8.081045
v 0.556745 0.684275 7.647024
v -0.000002 0.914887 7.647024
v -0.556750 0.684275 7.647024
v -0.787365 0.127530 7.647024
v -0.556750 -0.429215 7.647024
v -0.000002 -0.659827 7.647024
v 0.556745 -0.429215 7.647024
v 0.787349 0.127530 7.647024
v -0.000002 0.127530 -9.988245
v 0.556745 0.684275 7.120976
v 0.787349 0.127530 7.120976
v 0.556745 -0.429215 7.120976
v -0.000002 -0.659827 7.120976
v -0.556750 -0.429215 7.120976
v -0.787365 0.127530 7.120976
v -0.556750 0.684275 7.120976
v -0.000002 0.914887 7.120976
v 0.556745 0.684275 6.346400
v -0.000002 0.914887 6.346400
v -0.556750 0.684275 6.346400
v -0.787365 0.127530 6.346400
v -0.556750 -0.429215 6.346400
v -0.000002 -0.659827 6.346400
v 0.556745 -0.429215 6.346400
v 0.787349 0.127530 6.346400
v 0.446058 0.573593 6.346400
v -0.000002 0.758358 6.346400
v -0.000002 0.758358 7.120976
v 0.446058 0.573592 7.120976
v -0.446065 0.573593 6.346400
v -0.446065 0.573593 7.120976
v -0.630834 0.127529 6.346400
v -0.630834 0.127531 7.120976
v -0.446065 -0.318532 6.346400
v -0.446065 -0.318534 7.120976
v -0.000002 -0.503298 6.346400
v -0.000002 -0.503298 7.120976
v 0.446058 -0.318532 6.346400
v 0.446058 -0.318533 7.120976
v 0.630827 0.127531 6.346400
v 0.630827 0.127529 7.120976
v -0.197663 0.326384 -9.251254
v -0.003407 0.409579 -9.244160
v 0.192463 0.327996 -9.245332
v 0.255136 0.132127 -9.293288
v 0.178218 -0.049495 -9.297684
v -0.003407 -0.124713 -9.297717
v -0.189796 -0.054263 -9.280165
v -0.277199 0.132127 -9.253665
v -0.416989 -0.289455 7.647024
v -0.000002 -0.437588 7.647024
v 0.404367 -0.276838 7.647024
v 0.568456 0.127530 7.647024
v 0.403595 0.531127 7.647024
v -0.000002 0.690399 7.647024
v -0.400144 0.527670 7.647024
v -0.568956 0.127530 7.647024
v 0.403595 0.531127 7.650557
v -0.000002 0.690399 7.650557
v -0.000002 0.127530 7.650557
v -0.400144 0.527670 7.650557
v -0.568956 0.127530 7.650557
v -0.416989 -0.289455 7.650557
v -0.000002 -0.437588 7.650557
v 0.404367 -0.276838 7.650557
v 0.568456 0.127530 7.650557
vt 0.733598 0.213990
vt 0.733598 0.187141
vt 0.768754 0.187141
vt 0.768754 0.213990
vt 0.733598 0.160293
vt 0.768754 0.160293
vt 0.694124 0.213990
vt 0.694124 0.187141
vt 0.729280 0.187141
vt 0.729280 0.213990
vt 0.694124 0.160293
vt 0.729280 0.160293
vt 0.470053 0.921117
vt 0.479637 0.921022
vt 0.469827 0.950208
vt 0.469825 0.874680
vt 0.497292 0.874679
vt 0.460858 0.922167
vt 0.469810 0.303334
vt 0.497277 0.303333
vt 0.442359 0.874681
vt 0.442344 0.303335
vt 0.359734 0.922691
vt 0.368694 0.922864
vt 0.359961 0.950212
vt 0.359959 0.874684
vt 0.387426 0.874683
vt 0.350071 0.920792
vt 0.359944 0.303338
vt 0.387411 0.303337
vt 0.332493 0.874685
vt 0.332478 0.303339
vt 0.848685 0.154760
vt 0.848685 0.112907
vt 0.875671 0.112907
vt 0.875671 0.154760
vt 0.848685 0.196614
vt 0.875671 0.196614
vt 0.816818 0.189433
vt 0.816818 0.147579
vt 0.843804 0.147579
vt 0.843804 0.189433
vt 0.816818 0.231286
vt 0.843804 0.231286
vt 0.736803 0.045896
vt 0.736803 0.098793
vt 0.672951 0.072345
vt 0.699400 0.136197
vt 0.699400 0.008493
vt 0.646503 0.136198
vt 0.646503 0.008493
vt 0.609099 0.098794
vt 0.609099 0.045897
vt 0.737950 0.099268
vt 0.699875 0.137343
vt 0.692472 0.119472
vt 0.720079 0.091866
vt 0.646028 0.137343
vt 0.653431 0.119472
vt 0.737949 0.045422
vt 0.720079 0.052824
vt 0.607953 0.099268
vt 0.625824 0.091866
vt 0.699875 0.007347
vt 0.692472 0.025218
vt 0.607953 0.045422
vt 0.625824 0.052824
vt 0.646028 0.007347
vt 0.653431 0.025218
vt 0.607953 0.045422
vt 0.646028 0.007347
vt 0.653431 0.025218
vt 0.625824 0.052824
vt 0.699874 0.007347
vt 0.692472 0.025218
vt 0.607953 0.099268
vt 0.625824 0.091866
vt 0.737949 0.045422
vt 0.720079 0.052824
vt 0.646028 0.137344
vt 0.653430 0.119473
vt 0.737949 0.099268
vt 0.720079 0.091866
vt 0.699874 0.137343
vt 0.692472 0.119472
vt 0.689806 0.160293
vt 0.689806 0.187141
vt 0.654650 0.187141
vt 0.654650 0.160293
vt 0.689806 0.213990
vt 0.654650 0.213990
vt 0.615175 0.213990
vt 0.615175 0.187141
vt 0.650331 0.187141
vt 0.650331 0.213990
vt 0.615175 0.160293
vt 0.650331 0.160293
vt 0.304860 0.920747
vt 0.314523 0.920793
vt 0.305028 0.950214
vt 0.305026 0.874686
vt 0.295276 0.921028
vt 0.305011 0.303340
vt 0.277560 0.874687
vt 0.277545 0.303341
vt 0.415061 0.922864
vt 0.424257 0.922168
vt 0.414894 0.950210
vt 0.414892 0.874682
vt 0.406101 0.922863
vt 0.414877 0.303336
vt 0.823934 0.071746
vt 0.823934 0.029893
vt 0.850920 0.029893
vt 0.850920 0.071746
vt 0.823934 0.113600
vt 0.850920 0.113600
vt 0.888194 0.075615
vt 0.888194 0.117469
vt 0.861208 0.117469
vt 0.861208 0.075615
vt 0.888194 0.033761
vt 0.861208 0.033761
vt 0.625128 0.092154
vt 0.627122 0.053362
vt 0.653742 0.025969
vt 0.692047 0.026245
vt 0.719239 0.053172
vt 0.718598 0.091253
vt 0.691960 0.118236
vt 0.653839 0.118485
vt 0.719239 0.053172
vt 0.718598 0.091253
vt 0.691960 0.118236
vt 0.653839 0.118485
vt 0.625128 0.092154
vt 0.627122 0.053362
vt 0.653742 0.025969
vt 0.692047 0.026245
vn 0.382686 0.923879 0.000000
vn 0.382686 0.923878 0.000000
vn 0.382686 0.923878 0.000000
vn 0.382686 0.923878 0.000000
vn -0.382683 0.923880 0.000000
vn -0.382683 0.923880 0.000000
vn -0.382683 0.923880 0.000000
vn -0.382683 0.923880 0.000000
vn -0.923877 0.382689 -0.000000
vn -0.923877 0.382689 -0.000000
vn -0.923877 0.382689 -0.000000
vn -0.923877 0.382689 -0.000000
vn -0.923877 -0.382689 0.000000
vn -0.923877 -0.382689 0.000000
vn -0.923877 -0.382689 0.000000
vn -0.923877 -0.382689 0.000000
vn -0.382682 -0.923880 -0.000001
vn -0.382682 -0.923880 -0.000001
vn -0.382682 -0.923880 -0.000001
vn -0.382682 -0.923880 -0.000001
vn 0.382685 -0.923879 -0.000000
vn 0.382685 -0.923879 -0.000000
vn 0.382685 -0.923879 -0.000000
vn 0.382685 -0.923879 -0.000000
vn 0.923877 -0.382690 -0.000001
vn 0.923877 -0.382690 -0.000001
vn 0.923877 -0.382690 -0.000001
vn 0.923877 -0.382690 -0.000001
vn 0.923877 0.382689 0.000001
vn 0.923877 0.382689 0.000001
vn 0.923877 0.382689 0.000001
vn 0.923877 0.382689 0.000001
vn -0.002933 0.919410 -0.393290
vn 0.662056 0.636704 -0.395335
vn -0.043134 0.101874 -0.993862
vn -0.652898 0.647749 -0.392614
vn -0.919114 -0.010729 -0.393847
vn -0.636914 -0.661990 -0.395107
vn 0.007200 -0.918044 -0.396412
vn 0.647694 -0.650271 -0.397040
vn 0.918166 -0.021906 -0.395590
vn 0.000001 0.000000 1.000000
vn 0.000001 0.000000 1.000000
vn 0.000001 0.000000 1.000000
vn 0.000000 0.000000 1.000000
vn 0.000000 0.000000 1.000000
vn -0.000001 0.000000 1.000000
vn 0.000001 0.000000 1.000000
vn 0.000002 0.000000 1.000000
vn 0.000000 0.000000 1.000000
vn 0.923884 0.382673 0.000000
vn 0.923884 0.382673 0.000000
vn 0.923884 0.382673 0.000000
vn 0.923884 0.382673 0.000000
vn 0.923884 -0.382673 0.000000
vn 0.923884 -0.382673 0.000000
vn 0.923884 -0.382673 0.000000
vn 0.923884 -0.382673 0.000000
vn 0.382682 -0.923880 0.000000
vn 0.382682 -0.923880 0.000000
vn 0.382682 -0.923880 0.000000
vn 0.382682 -0.923880 0.000000
vn -0.382682 -0.923880 0.000000
vn -0.382682 -0.923880 0.000000
vn -0.382682 -0.923880 0.000000
vn -0.382682 -0.923880 0.000000
vn -0.923877 -0.382689 0.000000
vn -0.923877 -0.382689 0.000000
vn -0.923877 -0.382689 0.000000
vn -0.923877 -0.382689 0.000000
vn -0.923877 0.382689 0.000000
vn -0.923877 0.382689 0.000000
vn -0.923877 0.382689 0.000000
vn -0.923877 0.382689 0.000000
vn -0.382682 0.923880 0.000000
vn -0.382682 0.923880 0.000000
vn -0.382682 0.923880 0.000000
vn -0.382682 0.923880 0.000000
vn 0.382682 0.923880 0.000000
vn 0.382682 0.923880 0.000000
vn 0.382682 0.923880 0.000000
vn 0.382682 0.923880 0.000000
vn 0.382682 0.923880 0.000000
vn 0.382682 0.923880 0.000000
vn 0.382682 0.923880 0.000000
vn 0.382682 0.923880 0.000000
vn -0.382682 0.923880 0.000000
vn -0.382682 0.923880 0.000000
vn -0.382682 0.923880 0.000000
vn -0.382682 0.923880 0.000000
vn -0.923877 0.382689 0.000000
vn -0.923877 0.382689 0.000000
vn -0.923877 0.382689 0.000000
vn -0.923877 0.382689 0.000000
vn -0.923877 -0.382689 0.000000
vn -0.923877 -0.382689 0.000000
vn -0.923877 -0.382689 0.000000
vn -0.923877 -0.382689 0.000000
vn -0.382682 -0.923880 0.000000
vn -0.382682 -0.923880 0.000000
vn -0.382682 -0.923880 0.000000
vn -0.382682 -0.923880 0.000000
vn 0.382682 -0.923880 0.000000
vn 0.382682 -0.923880 0.000000
vn 0.382682 -0.923880 0.000000
vn 0.382682 -0.923880 0.000000
vn 0.923884 -0.382673 0.000000
vn 0.923884 -0.382673 0.000000
vn 0.923884 -0.382673 0.000000
vn 0.923884 -0.382673 0.000000
vn 0.923884 0.382673 0.000000
vn 0.923884 0.382673 0.000000
vn 0.923884 0.382673 0.000000
vn 0.923884 0.382673 0.000000
vn -0.000000 0.000000 1.000000
vn 0.000000 0.000000 1.000000
vn 0.000000 0.000000 1.000000
vn -0.000000 0.000000 1.000000
vn -0.000000 0.000000 -1.000000
vn -0.000001 0.000000 -1.000000
vn -0.000001 0.000000 -1.000000
vn -0.000000 0.000000 -1.000000
vn 0.000001 0.000000 1.000000
vn 0.000001 0.000000 1.000000
vn -0.000001 0.000000 -1.000000
vn -0.000001 0.000000 -1.000000
vn -0.000001 0.000000 1.000000
vn -0.000001 0.000000 1.000000
vn 0.000001 0.000000 -1.000000
vn 0.000001 0.000000 -1.000000
vn -0.000001 0.000000 1.000000
vn -0.000001 0.000000 1.000000
vn 0.000002 0.000000 -1.000000
vn 0.000002 0.000000 -1.000000
vn 0.000000 0.000000 1.000000
vn 0.000000 0.000000 1.000000
vn 0.000002 0.000000 -1.000000
vn 0.000002 0.000000 -1.000000
vn -0.000002 0.000000 1.000000
vn -0.000002 0.000000 1.000000
vn 0.000001 0.000000 -1.000000
vn 0.000001 0.000000 -1.000000
vn -0.000002 0.000000 1.000000
vn -0.000002 0.000000 1.000000
vn -0.000001 0.000000 -1.000000
vn -0.000001 0.000000 -1.000000
vn -0.649079 0.648552 -0.397590
vn 0.000542 0.917226 -0.398368
vn 0.649454 0.646510 -0.400293
vn 0.915399 -0.001631 -0.402544
vn 0.646891 -0.647194 -0.403327
vn 0.000880 -0.915276 -0.402825
vn -0.646506 -0.649076 -0.400912
vn -0.917106 -0.001492 -0.398642
vn -0.000001 0.000000 1.000000
vn 0.000000 0.000000 1.000000
vn 0.000000 0.000000 1.000000
vn -0.000001 0.000000 1.000000
vn -0.000001 0.000000 1.000000
vn -0.000001 0.000000 1.000000
vn 0.000000 0.000000 1.000000
vn 0.000000 0.000000 1.000000
vn 0.000001 0.000000 1.000000
vn 0.000001 0.000000 1.000000
vn -0.000001 0.000000 1.000000
vn -0.000001 0.000000 1.000000
vn -0.000001 0.000000 1.000000
vn -0.000001 0.000000 1.000000
vn -0.000002 0.000000 1.000000
vn -0.000002 0.000000 1.000000
vn 0.367069 0.930194 0.000000
vn 0.367069 0.930194 0.000000
vn 0.367069 0.930194 0.000000
vn 0.367069 0.930194 0.000000
vn -0.376742 0.926318 0.000000
vn -0.376742 0.926318 0.000000
vn -0.376742 0.926318 0.000000
vn -0.376742 0.926318 0.000000
vn -0.921355 0.388722 0.000000
vn -0.921355 0.388722 0.000000
vn -0.921355 0.388722 0.000000
vn -0.921355 0.388722 0.000000
vn -0.939552 -0.342406 0.000000
vn -0.939552 -0.342406 0.000000
vn -0.939552 -0.342406 0.000000
vn -0.939552 -0.342406 0.000000
vn -0.334747 -0.942308 0.000000
vn -0.334747 -0.942308 0.000000
vn -0.334747 -0.942308 0.000000
vn -0.334747 -0.942308 0.000000
vn 0.369414 -0.929265 0.000000
vn 0.369414 -0.929265 0.000000
vn 0.369414 -0.929265 0.000000
vn 0.369414 -0.929265 0.000000
vn 0.926616 -0.376008 0.000000
vn 0.926616 -0.376008 0.000000
vn 0.926616 -0.376008 0.000000
vn 0.926616 -0.376008 0.000000
vn 0.925734 0.378175 0.000000
vn 0.925734 0.378175 0.000000
vn 0.925734 0.378175 0.000000
vn 0.925734 0.378175 0.000000
s off
g pCylinder5
f 34/86/1 35/87/2 36/88/3 37/89/4
f 35/87/5 38/90/6 39/91/7 36/88/8
f 38/1/9 40/2/10 41/3/11 39/4/12
f 40/2/13 42/5/14 43/6/15 41/3/16
f 42/92/17 44/93/18 45/94/19 43/95/20
f 44/93/21 46/96/22 47/97/23 45/94/24
f 46/7/25 48/8/26 49/9/27 47/10/28
f 48/8/29 34/11/30 37/12/31 49/9/32
s 1
f 51/98/33 52/99/34 17/100/35
f 50/102/36 51/98/33 17/100/35
f 57/13/37 50/14/36 17/15/35
f 56/18/38 57/13/37 17/15/35
f 55/106/39 56/107/38 17/108/35
f 54/110/40 55/106/39 17/108/35
f 53/23/41 54/24/40 17/25/35
f 52/28/34 53/23/41 17/25/35
s 2
f 66/132/42 67/133/43 68/47/44
f 67/133/43 69/134/45 68/47/44
f 69/134/45 70/135/46 68/47/44
f 70/135/46 71/136/47 68/47/44
f 71/136/47 72/137/48 68/47/44
f 72/137/48 73/138/49 68/47/44
f 73/138/49 74/139/50 68/47/44
f 74/139/50 66/132/42 68/47/44
s off
f 19/33/51 18/34/52 9/35/53 16/36/54
f 20/37/55 19/33/56 16/36/57 15/38/58
f 21/112/59 20/113/60 15/114/61 14/115/62
f 22/116/63 21/112/64 14/115/65 13/117/66
f 23/39/67 22/40/68 13/41/69 12/42/70
f 24/43/71 23/39/72 12/42/73 11/44/74
f 25/118/75 24/119/76 11/120/77 10/121/78
f 18/122/79 25/118/80 10/121/81 9/123/82
f 2/101/83 27/103/84 26/32/85 1/31/86
f 3/104/87 28/105/88 27/103/89 2/101/90
f 4/16/91 29/19/92 28/20/93 3/17/94
f 5/21/95 30/22/96 29/19/97 4/16/98
f 6/109/99 31/111/100 30/22/101 5/21/102
f 7/27/103 32/30/104 31/111/105 6/109/106
f 8/26/107 33/29/108 32/30/109 7/27/110
f 1/31/111 26/32/112 33/29/113 8/26/114
s 3
f 26/54/115 27/55/116 35/56/117 34/57/118
s 4
f 25/70/119 18/71/120 37/72/121 36/73/122
s 3
f 27/55/116 28/58/123 38/59/124 35/56/117
s 4
f 24/76/125 25/70/119 36/73/122 39/77/126
s 3
f 28/58/123 29/62/127 40/63/128 38/59/124
s 4
f 23/80/129 24/76/125 39/77/126 41/81/130
s 3
f 29/62/127 30/66/131 42/67/132 40/63/128
s 4
f 22/84/133 23/80/129 41/81/130 43/85/134
s 3
f 30/66/131 31/68/135 44/69/136 42/67/132
s 4
f 21/82/137 22/84/133 43/85/134 45/83/138
s 3
f 31/68/135 32/64/139 46/65/140 44/69/136
s 4
f 20/78/141 21/82/137 45/83/138 47/79/142
s 3
f 32/64/139 33/60/143 48/61/144 46/65/140
s 4
f 19/74/145 20/78/141 47/79/142 49/75/146
s 3
f 33/60/143 26/54/115 34/57/118 48/61/144
s 4
f 18/71/120 19/74/145 49/75/146 37/72/121
s 1
f 3/104/147 2/101/148 51/98/33 50/102/36
f 2/101/148 1/31/149 52/99/34 51/98/33
f 1/31/149 8/26/150 53/23/41 52/28/34
f 8/26/150 7/27/151 54/24/40 53/23/41
f 7/27/151 6/109/152 55/106/39 54/110/40
f 6/109/152 5/21/153 56/107/38 55/106/39
f 5/21/153 4/16/154 57/13/37 56/18/38
f 4/16/154 3/17/147 50/14/36 57/13/37
s 5
f 13/52/155 14/53/156 59/125/157 58/124/158
f 14/53/156 15/51/159 60/126/160 59/125/157
f 15/51/159 16/49/161 61/127/162 60/126/160
f 16/49/161 9/45/163 62/128/164 61/127/162
f 9/45/163 10/46/165 63/129/166 62/128/164
f 10/46/165 11/48/167 64/130/168 63/129/166
f 11/48/167 12/50/169 65/131/170 64/130/168
f 12/50/169 13/52/155 58/124/158 65/131/170
s off
f 62/128/171 63/129/172 67/133/173 66/132/174
f 63/129/175 64/130/176 69/134/177 67/133/178
f 64/130/179 65/131/180 70/135/181 69/134/182
f 65/131/183 58/124/184 71/136/185 70/135/186
f 58/124/187 59/125/188 72/137/189 71/136/190
f 59/125/191 60/126/192 73/138/193 72/137/194
f 60/126/195 61/127/196 74/139/197 73/138/198
f 61/127/199 62/128/200 66/132/201 74/139/202
