# This file uses meters as units for non-parametric coordinates.

g default
v 13.578587 3.563171 -2.298226
v 12.968361 24.355068 -0.633703
v 8.088955 7.584312 -18.448537
v 7.784961 18.405309 -17.489007
v -14.318968 23.560424 -0.736472
v -9.686816 18.191733 -16.820705
v -13.703606 2.689710 -2.320317
v -9.279677 7.218269 -17.748077
v 11.964459 3.060889 -11.197406
v -12.412055 2.673128 -10.416975
v -12.866256 22.300242 -9.452358
v 11.317982 23.084480 -9.577230
v -0.565870 7.372868 -18.052779
v -0.391918 2.850598 -10.779706
v -0.355957 3.116611 -2.310721
v -0.968826 23.949198 -0.686191
v -0.976452 22.676765 -9.532550
v -0.885877 18.304478 -17.133144
v -9.440888 13.395145 -17.373811
v -12.584655 13.667743 -10.088584
v -14.042825 13.987041 -1.460221
v 13.328001 12.798726 -1.494376
v 11.754469 12.471180 -10.235802
v 8.094987 12.035260 -17.801743
v 9.821514 6.081706 -2.064362
v 9.698715 13.297012 -1.501497
v 9.281194 21.418828 -0.868343
v -0.886893 21.172131 -0.902778
v -10.595145 20.944479 -0.935051
v -10.383603 14.024389 -1.474733
v -10.143523 5.760298 -2.119255
v -0.438111 5.916087 -2.092604
v 7.147983 6.180899 -12.404824
v 6.723862 18.076239 -11.467492
v -0.845167 18.026676 -10.941991
v -8.932860 17.962881 -10.410366
v -8.577262 5.895508 -11.331760
v -0.492601 6.042055 -11.869626
vt 0.745296 0.193459
vt 0.702909 0.184830
vt 0.760457 0.142708
vt 0.662268 0.173808
vt 0.695296 0.126954
vt 0.926837 0.184971
vt 0.889700 0.190535
vt 0.843739 0.147655
vt 0.839376 0.087007
vt 0.851261 0.193800
vt 0.966247 0.154718
vt 0.932727 0.114912
vt 0.798020 0.193626
vt 0.801895 0.145170
vt 0.977413 0.233026
vt 0.977732 0.272872
vt 0.962975 0.272575
vt 0.963064 0.243174
vt 0.978601 0.314561
vt 0.921723 0.313666
vt 0.921972 0.302234
vt 0.963347 0.302896
vt 0.864854 0.312651
vt 0.866684 0.270911
vt 0.881696 0.271140
vt 0.880631 0.301486
vt 0.869682 0.231035
vt 0.923871 0.232032
vt 0.923548 0.242448
vt 0.883577 0.241722
vt 0.756093 0.082059
vt 0.797782 0.084496
vt 0.903085 0.140433
vt 0.628401 0.135355
vt 0.666976 0.098224
vt 0.908901 0.588529
vt 0.879143 0.579139
vt 0.884135 0.557697
vt 0.907873 0.567583
vt 0.854471 0.567150
vt 0.860392 0.547584
vt 0.891240 0.541071
vt 0.903909 0.546851
vt 0.878059 0.535050
vt 0.958398 0.518890
vt 0.977671 0.524714
vt 0.970620 0.551744
vt 0.954400 0.541108
vt 0.980509 0.490179
vt 0.962220 0.496576
vt 0.941231 0.515294
vt 0.939175 0.527227
vt 0.942759 0.502547
vt 0.931038 0.554553
vt 0.920789 0.537541
vt 0.940942 0.571765
vt 0.932419 0.471936
vt 0.947373 0.451279
vt 0.914609 0.423287
vt 0.905112 0.449668
vt 0.919531 0.483322
vt 0.899700 0.467994
vn -0.029942 0.866853 -0.497664
vn -0.029942 0.866853 -0.497664
vn -0.029942 0.866853 -0.497665
vn -0.029942 0.866853 -0.497664
vn -0.030158 0.988958 -0.145097
vn -0.030158 0.988958 -0.145097
vn -0.030158 0.988958 -0.145097
vn -0.030158 0.988958 -0.145097
vn 0.024076 -0.999532 0.018876
vn 0.024076 -0.999532 0.018876
vn 0.024076 -0.999532 0.018876
vn 0.024076 -0.999532 0.018876
vn -0.003394 -0.849255 -0.527972
vn -0.003394 -0.849255 -0.527972
vn -0.003394 -0.849255 -0.527972
vn -0.003394 -0.849255 -0.527972
vn -0.003394 -0.849256 -0.527971
vn -0.003394 -0.849256 -0.527971
vn -0.003394 -0.849256 -0.527971
vn -0.003394 -0.849256 -0.527971
vn 0.025597 -0.998800 0.041751
vn 0.025597 -0.998800 0.041751
vn 0.025597 -0.998800 0.041751
vn 0.025597 -0.998800 0.041751
vn -0.030660 0.989868 -0.138642
vn -0.030660 0.989868 -0.138642
vn -0.030660 0.989868 -0.138642
vn -0.030660 0.989868 -0.138642
vn -0.030540 0.866249 -0.498678
vn -0.030540 0.866249 -0.498678
vn -0.030540 0.866249 -0.498678
vn -0.030540 0.866249 -0.498678
vn 0.896668 0.064462 -0.437986
vn 0.896668 0.064462 -0.437986
vn 0.896668 0.064462 -0.437986
vn 0.896668 0.064462 -0.437986
vn 0.981890 0.047823 -0.183317
vn 0.981890 0.047823 -0.183317
vn 0.981890 0.047823 -0.183317
vn 0.981890 0.047823 -0.183317
vn -0.986314 -0.017973 -0.163896
vn -0.986314 -0.017973 -0.163896
vn -0.986314 -0.017973 -0.163896
vn -0.986314 -0.017973 -0.163896
vn -0.918273 -0.001006 -0.395946
vn -0.918273 -0.001006 -0.395946
vn -0.918273 -0.001006 -0.395946
vn -0.918273 -0.001006 -0.395946
vn -0.918690 -0.001697 -0.394975
vn -0.918690 -0.001697 -0.394975
vn -0.918690 -0.001697 -0.394975
vn -0.918690 -0.001697 -0.394975
vn -0.986701 -0.014021 -0.161940
vn -0.986701 -0.014021 -0.161940
vn -0.986701 -0.014021 -0.161940
vn -0.986701 -0.014021 -0.161940
vn 0.982883 0.041278 -0.179549
vn 0.982883 0.041278 -0.179549
vn 0.982883 0.041278 -0.179549
vn 0.982883 0.041278 -0.179549
vn 0.896562 0.064046 -0.438264
vn 0.896562 0.064047 -0.438264
vn 0.896562 0.064047 -0.438264
vn 0.896562 0.064047 -0.438264
vn -0.003253 -0.082866 0.996555
vn -0.003253 -0.082866 0.996555
vn -0.003253 -0.082866 0.996555
vn -0.003253 -0.082866 0.996555
vn -0.001489 -0.077799 0.996968
vn -0.001489 -0.077799 0.996968
vn -0.001489 -0.077799 0.996968
vn -0.001489 -0.077799 0.996968
vn 0.002124 -0.076315 0.997081
vn 0.002124 -0.076315 0.997082
vn 0.002124 -0.076315 0.997082
vn 0.002124 -0.076315 0.997082
vn 0.000235 -0.071367 0.997450
vn 0.000235 -0.071367 0.997450
vn 0.000235 -0.071367 0.997450
vn 0.000235 -0.071367 0.997450
vn -0.001489 -0.077800 0.996968
vn -0.001490 -0.077800 0.996968
vn -0.001490 -0.077800 0.996968
vn -0.001489 -0.077800 0.996968
vn 0.000457 -0.084358 0.996435
vn 0.000457 -0.084358 0.996435
vn 0.000457 -0.084358 0.996435
vn 0.000457 -0.084358 0.996435
vn -0.007626 -0.075992 0.997079
vn -0.007626 -0.075992 0.997079
vn -0.007626 -0.075992 0.997079
vn -0.007626 -0.075992 0.997079
vn 0.007161 -0.076478 0.997046
vn 0.007161 -0.076478 0.997046
vn 0.007161 -0.076478 0.997046
vn 0.007161 -0.076478 0.997046
vn -0.967621 -0.035958 0.249834
vn -0.967621 -0.035958 0.249834
vn -0.967621 -0.035958 0.249834
vn 0.024170 -0.954532 0.297128
vn 0.024170 -0.954532 0.297128
vn 0.024170 -0.954532 0.297128
vn 0.024170 -0.954532 0.297128
vn 0.985759 0.016567 0.167345
vn 0.985759 0.016567 0.167345
vn 0.985759 0.016567 0.167345
vn 0.985759 0.016567 0.167345
vn -0.016634 0.999784 0.012427
vn -0.016634 0.999784 0.012427
vn -0.016634 0.999784 0.012427
vn -0.016634 0.999784 0.012427
vn 0.024067 -0.953200 0.301381
vn 0.024067 -0.953200 0.301381
vn 0.024067 -0.953200 0.301381
vn 0.024067 -0.953200 0.301381
vn -0.016624 0.999771 0.013444
vn -0.016624 0.999771 0.013444
vn -0.016624 0.999771 0.013444
vn -0.016624 0.999771 0.013444
vn -0.964066 -0.060824 0.258605
vn -0.964066 -0.060824 0.258605
vn -0.964066 -0.060824 0.258605
vn -0.964066 -0.060824 0.258605
vn 0.985697 0.015548 0.167811
vn 0.985697 0.015548 0.167811
vn 0.985697 0.015548 0.167811
vn 0.070301 -0.075395 0.994672
vn 0.070301 -0.075395 0.994673
vn 0.070301 -0.075395 0.994673
vn 0.070301 -0.075395 0.994672
vn 0.066768 -0.074525 0.994981
vn 0.066768 -0.074525 0.994981
vn 0.066768 -0.074525 0.994981
vn 0.066768 -0.074525 0.994981
s off
g polySurface35 polySurface17 polySurface9
f 11/48/1 17/54/2 18/55/3 6/52/4
f 5/47/5 16/56/6 17/54/7 11/48/8
f 14/57/9 15/58/10 7/49/11 10/50/12
f 13/61/13 14/57/14 10/50/15 8/53/16
f 9/60/17 14/57/18 13/61/19 3/62/20
f 1/59/21 15/58/22 14/57/23 9/60/24
f 17/54/25 16/56/26 2/36/27 12/39/28
f 18/55/29 17/54/30 12/39/31 4/43/32
f 12/39/33 23/38/34 24/42/35 4/43/36
f 2/36/37 22/37/38 23/38/39 12/39/40
f 20/45/41 21/46/42 5/47/43 11/48/44
f 19/51/45 20/45/46 11/48/47 6/52/48
f 10/50/49 20/45/50 19/51/51 8/53/52
f 7/49/53 21/46/54 20/45/55 10/50/56
f 23/38/57 22/37/58 1/40/59 9/41/60
f 24/42/61 23/38/62 9/41/63 3/44/64
f 1/15/65 22/16/66 26/17/67 25/18/68
f 2/19/69 16/20/70 28/21/71 27/22/72
f 5/23/73 21/24/74 30/25/75 29/26/76
f 7/27/77 15/28/78 32/29/79 31/30/80
f 16/20/81 5/23/82 29/26/83 28/21/84
f 15/28/85 1/15/86 25/18/87 32/29/88
f 22/16/89 2/19/90 27/22/91 26/17/92
f 21/24/93 7/27/94 31/30/95 30/25/96
f 25/1/97 26/2/98 33/3/99
f 27/4/100 28/34/101 35/35/102 34/5/103
f 29/6/104 30/7/105 37/8/106 36/33/107
f 31/10/108 32/13/109 38/14/110 37/8/111
f 28/11/112 29/6/113 36/33/114 35/12/115
f 32/13/116 25/1/117 33/3/118 38/14/119
f 26/2/120 27/4/121 34/5/122 33/3/123
f 30/7/124 31/10/125 37/8/126
f 34/31/127 35/32/128 38/14/129 33/3/130
f 37/8/131 38/14/132 35/32/133 36/9/134
