# This file uses meters as units for non-parametric coordinates.

g default
v -105.803750 111.023496 20.767739
v -105.803750 104.481885 18.058115
v -105.803750 97.940273 20.767739
v -105.803750 95.230643 27.309350
v -105.803750 97.940273 33.850960
v -105.803750 104.481885 36.560584
v -105.803750 111.023496 33.850961
v -105.803750 113.733126 27.309350
v -108.588089 111.023496 20.767739
v -108.588089 104.481885 18.058115
v -108.588089 97.940273 20.767739
v -108.588089 95.230643 27.309350
v -108.588089 97.940273 33.850960
v -108.588089 104.481885 36.560584
v -108.588089 111.023496 33.850961
v -108.588089 113.733126 27.309350
v -104.391902 109.858615 21.932631
v -104.391902 104.481885 19.705522
v -104.391902 99.105164 21.932631
v -104.391902 96.878051 27.309350
v -104.391902 99.105164 32.686068
v -104.391902 104.481885 34.913179
v -104.391902 109.858615 32.686068
v -104.391902 112.085718 27.309350
v -106.076908 109.858615 21.932631
v -106.076908 104.481885 19.705522
v -106.076908 104.481885 27.309350
v -106.076908 99.105164 21.932631
v -106.076908 96.878051 27.309350
v -106.076908 99.105164 32.686068
v -106.076908 104.481885 34.913179
v -106.076908 109.858615 32.686068
v -106.076908 112.085718 27.309350
vt 0.375000 0.312500
vt 0.406250 0.312500
vt 0.406250 0.688440
vt 0.375000 0.688440
vt 0.437500 0.312500
vt 0.437500 0.688440
vt 0.468750 0.312500
vt 0.468750 0.688440
vt 0.500000 0.312500
vt 0.500000 0.688440
vt 0.531250 0.312500
vt 0.531250 0.688440
vt 0.562500 0.312500
vt 0.562500 0.688440
vt 0.593750 0.312500
vt 0.593750 0.688440
vt 0.625000 0.312500
vt 0.625000 0.688440
vt 0.500000 0.000000
vt 0.610485 0.045765
vt 0.500000 0.150000
vt 0.389515 0.045765
vt 0.343750 0.156250
vt 0.389515 0.266735
vt 0.500000 0.312500
vt 0.610485 0.266735
vt 0.656250 0.156250
vt 0.500000 0.000000
vt 0.610485 0.045765
vt 0.610485 0.045765
vt 0.500000 0.000000
vt 0.389515 0.045765
vt 0.389515 0.045765
vt 0.343750 0.156250
vt 0.343750 0.156250
vt 0.389515 0.266735
vt 0.389515 0.266735
vt 0.500000 0.312500
vt 0.500000 0.312500
vt 0.610485 0.266735
vt 0.610485 0.266735
vt 0.656250 0.156250
vt 0.656250 0.156250
vn 0.000000 0.382683 -0.923880
vn 0.000000 0.382683 -0.923880
vn 0.000000 0.382683 -0.923880
vn 0.000000 0.382683 -0.923880
vn 0.000000 -0.382684 -0.923880
vn 0.000000 -0.382684 -0.923880
vn 0.000000 -0.382684 -0.923880
vn 0.000000 -0.382684 -0.923880
vn 0.000000 -0.923879 -0.382684
vn 0.000000 -0.923879 -0.382684
vn 0.000000 -0.923879 -0.382684
vn 0.000000 -0.923879 -0.382684
vn 0.000000 -0.923879 0.382684
vn 0.000000 -0.923879 0.382684
vn 0.000000 -0.923879 0.382684
vn 0.000000 -0.923879 0.382684
vn 0.000000 -0.382684 0.923880
vn 0.000000 -0.382684 0.923880
vn 0.000000 -0.382684 0.923880
vn 0.000000 -0.382684 0.923880
vn 0.000000 0.382684 0.923880
vn 0.000000 0.382684 0.923880
vn 0.000000 0.382684 0.923880
vn 0.000000 0.382684 0.923880
vn 0.000000 0.923879 0.382684
vn 0.000000 0.923879 0.382684
vn 0.000000 0.923879 0.382684
vn 0.000000 0.923879 0.382684
vn 0.000000 0.923879 -0.382684
vn 0.000000 0.923879 -0.382684
vn 0.000000 0.923879 -0.382684
vn 0.000000 0.923879 -0.382684
vn 1.000000 0.000000 0.000000
vn 1.000000 0.000000 0.000000
vn 1.000000 0.000000 0.000000
vn 1.000000 0.000000 0.000000
vn 1.000000 0.000000 0.000000
vn 1.000000 0.000000 0.000000
vn 1.000000 0.000000 0.000000
vn 1.000000 0.000000 0.000000
vn 1.000000 0.000000 0.000000
vn 0.733139 0.260255 -0.628311
vn 0.733139 0.260255 -0.628311
vn 0.733139 0.260255 -0.628311
vn 0.733139 0.260255 -0.628311
vn 0.733140 -0.260254 -0.628310
vn 0.733140 -0.260254 -0.628310
vn 0.733140 -0.260254 -0.628310
vn 0.733140 -0.260254 -0.628310
vn 0.733140 -0.628309 -0.260255
vn 0.733140 -0.628309 -0.260255
vn 0.733140 -0.628309 -0.260255
vn 0.733140 -0.628309 -0.260255
vn 0.733141 -0.628309 0.260255
vn 0.733141 -0.628309 0.260255
vn 0.733141 -0.628309 0.260255
vn 0.733141 -0.628309 0.260255
vn 0.733139 -0.260256 0.628310
vn 0.733140 -0.260256 0.628310
vn 0.733140 -0.260256 0.628310
vn 0.733139 -0.260256 0.628310
vn 0.733139 0.260254 0.628311
vn 0.733139 0.260254 0.628311
vn 0.733139 0.260254 0.628311
vn 0.733139 0.260254 0.628311
vn 0.733139 0.628310 0.260256
vn 0.733139 0.628310 0.260256
vn 0.733139 0.628310 0.260256
vn 0.733139 0.628310 0.260256
vn 0.733139 0.628311 -0.260256
vn 0.733139 0.628311 -0.260256
vn 0.733139 0.628311 -0.260256
vn 0.733139 0.628311 -0.260256
vn 0.000000 -0.382682 0.923880
vn 0.000000 -0.382682 0.923880
vn 0.000000 -0.382682 0.923880
vn 0.000000 -0.382682 0.923880
vn 0.000000 0.382683 0.923880
vn 0.000000 0.382683 0.923880
vn 0.000000 0.382683 0.923880
vn 0.000000 0.382683 0.923880
vn 0.000000 0.923879 0.382684
vn 0.000000 0.923879 0.382684
vn 0.000000 0.923879 0.382684
vn 0.000000 0.923879 0.382684
vn 0.000000 0.923879 -0.382684
vn 0.000000 0.923879 -0.382684
vn 0.000000 0.923879 -0.382684
vn 0.000000 0.923879 -0.382684
vn 0.000000 0.382684 -0.923879
vn 0.000000 0.382684 -0.923879
vn 0.000000 0.382684 -0.923879
vn 0.000000 0.382684 -0.923879
vn 0.000000 -0.382682 -0.923880
vn 0.000000 -0.382682 -0.923880
vn 0.000000 -0.382682 -0.923880
vn 0.000000 -0.382682 -0.923880
vn 0.000000 -0.923880 -0.382683
vn 0.000000 -0.923880 -0.382683
vn 0.000000 -0.923880 -0.382683
vn 0.000000 -0.923880 -0.382683
vn 0.000000 -0.923880 0.382683
vn 0.000000 -0.923880 0.382683
vn 0.000000 -0.923880 0.382683
vn 0.000000 -0.923880 0.382683
s off
g polySurface20 polySurface9
f 1/1/1 2/2/2 10/3/3 9/4/4
f 2/2/5 3/5/6 11/6/7 10/3/8
f 3/5/9 4/7/10 12/8/11 11/6/12
f 4/7/13 5/9/14 13/10/15 12/8/16
f 5/9/17 6/11/18 14/12/19 13/10/20
f 6/11/21 7/13/22 15/14/23 14/12/24
f 7/13/25 8/15/26 16/16/27 15/14/28
f 8/15/29 1/17/30 9/18/31 16/16/32
s 1
f 26/19/33 25/20/34 27/21/35
f 28/22/36 26/19/33 27/21/35
f 29/23/37 28/22/36 27/21/35
f 30/24/38 29/23/37 27/21/35
f 31/25/39 30/24/38 27/21/35
f 32/26/40 31/25/39 27/21/35
f 33/27/41 32/26/40 27/21/35
f 25/20/34 33/27/41 27/21/35
s off
f 2/28/42 1/29/43 17/30/44 18/31/45
f 3/32/46 2/28/47 18/31/48 19/33/49
f 4/34/50 3/32/51 19/33/52 20/35/53
f 5/36/54 4/34/55 20/35/56 21/37/57
f 6/38/58 5/36/59 21/37/60 22/39/61
f 7/40/62 6/38/63 22/39/64 23/41/65
f 8/42/66 7/40/67 23/41/68 24/43/69
f 1/29/70 8/42/71 24/43/72 17/30/73
f 18/31/74 17/30/75 25/20/76 26/19/77
f 19/33/78 18/31/79 26/19/80 28/22/81
f 20/35/82 19/33/83 28/22/84 29/23/85
f 21/37/86 20/35/87 29/23/88 30/24/89
f 22/39/90 21/37/91 30/24/92 31/25/93
f 23/41/94 22/39/95 31/25/96 32/26/97
f 24/43/98 23/41/99 32/26/100 33/27/101
f 17/30/102 24/43/103 33/27/104 25/20/105
