# This file uses meters as units for non-parametric coordinates.

g default
v -47.299046 45.585003 249.700500
v -46.667805 45.585003 315.661438
v -84.195713 27.064152 249.700745
v -83.564365 27.064152 315.661438
v -83.564365 45.585003 315.661438
v -84.195713 45.585003 249.700745
v -50.027927 45.585003 251.488953
v -49.491688 45.585003 313.873352
v -83.015858 45.585003 251.488953
v -82.479633 45.585003 313.873352
v -50.027927 31.166462 251.488953
v -49.491688 31.166462 313.873352
v -83.015858 31.166462 251.488953
v -82.479633 31.166462 313.873352
v -47.299046 27.064152 249.700500
v -46.667805 27.064152 315.661438
v -87.023838 26.145336 248.781982
v -86.392460 26.145336 316.580139
v -86.392460 46.503819 316.580139
v -87.023838 46.503819 248.781982
v -84.195744 26.145336 248.782043
v -83.564365 26.145336 316.580261
v -83.564365 46.503819 316.580261
v -84.195744 46.503819 248.782043
v -87.692310 39.385014 281.023224
v -87.692310 38.032543 280.463013
v -87.692310 36.680073 281.023224
v -87.692310 36.119862 282.375702
v -87.692310 36.680073 283.728180
v -87.692310 38.032543 284.288391
v -87.692310 39.385014 283.728180
v -87.692310 39.945225 282.375702
v -89.167957 40.220886 280.187347
v -89.167957 38.032543 279.280914
v -89.167957 35.844200 280.187347
v -89.167957 34.937756 282.375702
v -89.167957 35.844200 284.564056
v -89.167957 38.032543 285.470490
v -89.167957 40.220886 284.564056
v -89.167957 41.127331 282.375702
v -90.991962 40.220886 280.187347
v -90.991962 38.032543 279.280914
v -90.991962 35.844200 280.187347
v -90.991962 34.937756 282.375702
v -90.991962 35.844200 284.564056
v -90.991962 38.032543 285.470490
v -90.991962 40.220886 284.564056
v -90.991962 41.127331 282.375702
v -92.467609 39.385014 281.023224
v -92.467609 38.032543 280.463013
v -92.467609 36.680073 281.023224
v -92.467609 36.119862 282.375702
v -92.467609 36.680073 283.728180
v -92.467609 38.032543 284.288391
v -92.467609 39.385014 283.728180
v -92.467609 39.945225 282.375702
v -92.806965 38.032543 282.375702
v -87.572636 38.955772 281.452454
v -87.572636 38.032543 281.070038
v -87.572636 37.109314 281.452454
v -87.572636 36.726898 282.375702
v -87.572636 37.109314 283.298950
v -87.572636 38.032543 283.681366
v -87.572636 38.955772 283.298950
v -87.572636 39.338188 282.375702
v -86.397495 38.955772 281.452454
v -86.397495 38.032543 281.070038
v -86.397495 37.109314 281.452454
v -86.397495 36.726898 282.375702
v -86.397495 37.109314 283.298950
v -86.397495 38.032543 283.681366
v -86.397495 38.955772 283.298950
v -86.397495 39.338188 282.375702
vt -0.005320 -0.021003
vt 1.005184 -0.018738
vt 1.005306 1.018460
vt -0.005169 1.021406
vt 0.000000 0.000000
vt 1.000000 0.000000
vt 1.000000 0.000000
vt 0.000000 0.000000
vt 1.000000 1.000000
vt 1.000000 1.000000
vt 1.000000 1.000000
vt 0.000000 1.000000
vt 0.000000 1.000000
vt 1.000000 1.000000
vt 0.000000 1.000000
vt 0.000000 1.000000
vt 0.000000 1.000000
vt 1.000000 1.000000
vt 0.000000 1.000000
vt 1.000000 1.000000
vt 0.000000 0.000000
vt 1.000000 0.000000
vt 1.000000 1.000000
vt 0.000000 1.000000
vt 0.000000 0.200000
vt 0.125000 0.200000
vt 0.125000 0.400000
vt 0.000000 0.400000
vt 0.250000 0.200000
vt 0.250000 0.400000
vt 0.375000 0.200000
vt 0.375000 0.400000
vt 0.500000 0.200000
vt 0.500000 0.400000
vt 0.625000 0.200000
vt 0.625000 0.400000
vt 0.750000 0.200000
vt 0.750000 0.400000
vt 0.875000 0.200000
vt 0.875000 0.400000
vt 1.000000 0.200000
vt 1.000000 0.400000
vt 0.125000 0.600000
vt 0.000000 0.600000
vt 0.250000 0.600000
vt 0.375000 0.600000
vt 0.500000 0.600000
vt 0.625000 0.600000
vt 0.750000 0.600000
vt 0.875000 0.600000
vt 1.000000 0.600000
vt 0.125000 0.800000
vt 0.000000 0.800000
vt 0.250000 0.800000
vt 0.375000 0.800000
vt 0.500000 0.800000
vt 0.625000 0.800000
vt 0.750000 0.800000
vt 0.875000 0.800000
vt 1.000000 0.800000
vt 0.062500 1.000000
vt 0.187500 1.000000
vt 0.312500 1.000000
vt 0.437500 1.000000
vt 0.562500 1.000000
vt 0.687500 1.000000
vt 0.812500 1.000000
vt 0.937500 1.000000
vt 0.000000 0.000000
vt 1.000000 0.000000
vt 1.000000 1.000000
vt 0.000000 1.000000
vt 0.000000 0.000000
vt 1.000000 0.000000
vt 1.000000 1.000000
vt 0.000000 1.000000
vt 0.000000 0.000000
vt 1.000000 0.000000
vt 1.000000 1.000000
vt 0.000000 1.000000
vt 0.000000 0.000000
vt 1.000000 0.000000
vt 1.000000 1.000000
vt 0.000000 1.000000
vt 0.000000 0.000000
vt 1.000000 0.000000
vt 1.000000 1.000000
vt 0.000000 1.000000
vt 0.000000 0.000000
vt 1.000000 0.000000
vt 1.000000 1.000000
vt 0.000000 1.000000
vt 0.000000 0.000000
vt 1.000000 0.000000
vt 1.000000 1.000000
vt 0.000000 1.000000
vt 0.000000 0.000000
vt 1.000000 0.000000
vt 1.000000 1.000000
vt 0.000000 1.000000
vt 0.000000 0.000000
vt 1.000000 0.000000
vt 1.000000 1.000000
vt 0.000000 1.000000
vt 0.000000 0.000000
vt 1.000000 0.000000
vt 1.000000 1.000000
vt 0.000000 1.000000
vt 0.000000 0.000000
vt 1.000000 0.000000
vt 1.000000 1.000000
vt 0.000000 1.000000
vt 0.000000 0.000000
vt 1.000000 0.000000
vt 1.000000 1.000000
vt 0.000000 1.000000
vt 0.000000 0.000000
vt 1.000000 0.000000
vt 1.000000 1.000000
vt 0.000000 1.000000
vt 0.000000 0.000000
vt 1.000000 0.000000
vt 1.000000 1.000000
vt 0.000000 1.000000
vt 0.000000 0.000000
vt 1.000000 0.000000
vt 1.000000 1.000000
vt 0.000000 1.000000
vt 0.000000 0.000000
vt 1.000000 0.000000
vt 1.000000 1.000000
vt 0.000000 1.000000
vn -0.999957 0.000000 0.009312
vn -0.999957 0.000000 0.009312
vn -0.999957 0.000000 0.009312
vn -0.999957 0.000000 0.009312
vn 0.000000 -1.000000 0.000000
vn 0.000000 -1.000000 0.000000
vn 0.000000 -1.000000 0.000000
vn 0.000000 -1.000000 0.000000
vn 0.000000 0.000000 1.000000
vn 0.000000 0.000000 1.000000
vn 0.000000 0.000000 1.000000
vn 0.000000 0.000000 1.000000
vn 0.000000 1.000000 0.000000
vn 0.000000 1.000000 0.000000
vn 0.000000 1.000000 0.000000
vn 0.000000 1.000000 0.000000
vn -0.000006 0.000000 -1.000000
vn -0.000006 0.000000 -1.000000
vn -0.000006 0.000000 -1.000000
vn -0.000006 0.000000 -1.000000
vn 0.000000 1.000000 0.000000
vn 0.000000 1.000000 0.000000
vn 0.000000 1.000000 0.000000
vn 0.000000 1.000000 0.000000
vn 0.000000 1.000000 0.000000
vn 0.000000 1.000000 0.000000
vn 0.000000 1.000000 0.000000
vn 0.000000 1.000000 0.000000
vn 0.000000 1.000000 -0.000000
vn 0.000000 1.000000 -0.000000
vn 0.000000 1.000000 -0.000000
vn 0.000000 1.000000 -0.000000
vn 0.000000 1.000000 0.000000
vn 0.000000 1.000000 0.000000
vn 0.000000 1.000000 0.000000
vn 0.000000 1.000000 0.000000
vn -0.999963 0.000000 0.008595
vn -0.999963 0.000000 0.008595
vn -0.999963 0.000000 0.008595
vn -0.999963 0.000000 0.008595
vn 0.000000 0.000000 1.000000
vn 0.000000 0.000000 1.000000
vn 0.000000 0.000000 1.000000
vn 0.000000 0.000000 1.000000
vn 0.999963 0.000000 -0.008595
vn 0.999963 0.000000 -0.008595
vn 0.999963 0.000000 -0.008595
vn 0.999963 0.000000 -0.008595
vn 0.000000 0.000000 -1.000000
vn 0.000000 0.000000 -1.000000
vn 0.000000 0.000000 -1.000000
vn 0.000000 0.000000 -1.000000
vn 0.000000 -1.000000 0.000000
vn 0.000000 -1.000000 0.000000
vn 0.000000 -1.000000 0.000000
vn 0.000000 -1.000000 0.000000
vn -0.000042 0.000000 1.000000
vn -0.000042 0.000000 1.000000
vn -0.000042 0.000000 1.000000
vn -0.000042 0.000000 1.000000
vn 0.000000 1.000000 0.000000
vn 0.000000 1.000000 0.000000
vn 0.000000 1.000000 0.000000
vn 0.000000 1.000000 0.000000
vn 0.000017 0.000000 -1.000000
vn 0.000017 0.000000 -1.000000
vn 0.000017 0.000000 -1.000000
vn 0.000017 0.000000 -1.000000
vn 0.999956 -0.000018 -0.009440
vn 0.999955 -0.000018 -0.009440
vn 0.999956 -0.000018 -0.009440
vn 0.999956 -0.000018 -0.009440
vn 1.000000 0.000000 0.000000
vn 1.000000 0.000000 0.000000
vn 1.000000 0.000000 0.000000
vn 1.000000 0.000000 0.000000
vn 0.999955 0.000013 -0.009440
vn 0.999956 0.000013 -0.009440
vn 0.999956 0.000013 -0.009440
vn 0.999956 0.000013 -0.009440
vn 1.000000 0.000000 -0.000033
vn 1.000000 0.000000 -0.000033
vn 1.000000 0.000000 -0.000033
vn 1.000000 0.000000 -0.000033
vn 0.594891 0.307602 -0.742621
vn 0.594891 0.307602 -0.742621
vn 0.594891 0.307602 -0.742621
vn 0.594891 0.307602 -0.742621
vn 0.594888 -0.307602 -0.742623
vn 0.594888 -0.307602 -0.742623
vn 0.594889 -0.307603 -0.742623
vn 0.594888 -0.307602 -0.742623
vn 0.594891 -0.742620 -0.307604
vn 0.594891 -0.742620 -0.307604
vn 0.594891 -0.742620 -0.307604
vn 0.594891 -0.742620 -0.307604
vn 0.594895 -0.742617 0.307602
vn 0.594896 -0.742617 0.307602
vn 0.594895 -0.742617 0.307602
vn 0.594895 -0.742617 0.307601
vn 0.594891 -0.307602 0.742621
vn 0.594891 -0.307602 0.742621
vn 0.594891 -0.307602 0.742621
vn 0.594891 -0.307602 0.742621
vn 0.594888 0.307602 0.742623
vn 0.594888 0.307602 0.742623
vn 0.594889 0.307603 0.742623
vn 0.594888 0.307602 0.742623
vn 0.594894 0.742619 0.307602
vn 0.594894 0.742619 0.307602
vn 0.594894 0.742619 0.307602
vn 0.594894 0.742619 0.307602
vn 0.594890 0.742622 -0.307602
vn 0.594890 0.742622 -0.307602
vn 0.594890 0.742622 -0.307602
vn 0.594890 0.742622 -0.307602
vn 0.000000 0.382679 -0.923881
vn 0.000000 0.382679 -0.923881
vn 0.000000 0.382679 -0.923881
vn 0.000000 0.382679 -0.923881
vn 0.000000 -0.382680 -0.923881
vn 0.000000 -0.382680 -0.923881
vn 0.000000 -0.382680 -0.923881
vn 0.000000 -0.382680 -0.923881
vn 0.000000 -0.923880 -0.382682
vn 0.000000 -0.923880 -0.382682
vn 0.000000 -0.923880 -0.382682
vn 0.000000 -0.923880 -0.382682
vn 0.000000 -0.923880 0.382682
vn 0.000000 -0.923880 0.382682
vn 0.000000 -0.923880 0.382682
vn 0.000000 -0.923880 0.382682
vn 0.000000 -0.382680 0.923881
vn 0.000000 -0.382680 0.923881
vn 0.000000 -0.382680 0.923881
vn 0.000000 -0.382680 0.923881
vn 0.000000 0.382679 0.923881
vn 0.000000 0.382679 0.923881
vn 0.000000 0.382679 0.923881
vn 0.000000 0.382679 0.923881
vn 0.000000 0.923880 0.382682
vn 0.000000 0.923880 0.382682
vn 0.000000 0.923880 0.382682
vn 0.000000 0.923880 0.382682
vn 0.000000 0.923880 -0.382682
vn 0.000000 0.923880 -0.382682
vn 0.000000 0.923880 -0.382682
vn 0.000000 0.923880 -0.382682
vn -0.594891 0.307604 -0.742620
vn -0.594891 0.307604 -0.742620
vn -0.594891 0.307604 -0.742620
vn -0.594891 0.307604 -0.742620
vn -0.594894 -0.307601 -0.742619
vn -0.594894 -0.307601 -0.742619
vn -0.594894 -0.307601 -0.742619
vn -0.594894 -0.307601 -0.742619
vn -0.594893 -0.742618 -0.307605
vn -0.594893 -0.742618 -0.307605
vn -0.594893 -0.742618 -0.307605
vn -0.594893 -0.742618 -0.307605
vn -0.594903 -0.742612 0.307601
vn -0.594903 -0.742612 0.307601
vn -0.594903 -0.742612 0.307601
vn -0.594903 -0.742612 0.307601
vn -0.594891 -0.307604 0.742620
vn -0.594891 -0.307604 0.742620
vn -0.594891 -0.307604 0.742620
vn -0.594891 -0.307604 0.742620
vn -0.594894 0.307601 0.742619
vn -0.594894 0.307601 0.742619
vn -0.594894 0.307601 0.742619
vn -0.594894 0.307601 0.742619
vn -0.594899 0.742615 0.307602
vn -0.594899 0.742615 0.307602
vn -0.594899 0.742615 0.307602
vn -0.594899 0.742615 0.307602
vn -0.594892 0.742620 -0.307603
vn -0.594892 0.742620 -0.307603
vn -0.594892 0.742620 -0.307603
vn -0.594892 0.742620 -0.307603
vn -0.982055 0.072166 -0.174240
vn -0.982055 0.072166 -0.174240
vn -0.982055 0.072166 -0.174240
vn -0.982055 -0.072178 -0.174239
vn -0.982055 -0.072178 -0.174239
vn -0.982055 -0.072178 -0.174239
vn -0.982054 -0.174245 -0.072172
vn -0.982054 -0.174245 -0.072172
vn -0.982054 -0.174245 -0.072172
vn -0.982055 -0.174241 0.072171
vn -0.982055 -0.174241 0.072171
vn -0.982055 -0.174241 0.072171
vn -0.982056 -0.072164 0.174235
vn -0.982056 -0.072164 0.174235
vn -0.982056 -0.072164 0.174235
vn -0.982055 0.072176 0.174236
vn -0.982055 0.072176 0.174236
vn -0.982055 0.072176 0.174236
vn -0.982054 0.174245 0.072172
vn -0.982054 0.174245 0.072172
vn -0.982054 0.174245 0.072172
vn -0.982053 0.174249 -0.072173
vn -0.982053 0.174249 -0.072173
vn -0.982053 0.174249 -0.072173
vn 0.977980 0.079874 -0.192808
vn 0.977980 0.079874 -0.192808
vn 0.977980 0.079874 -0.192808
vn 0.977980 0.079874 -0.192808
vn 0.977980 -0.079869 -0.192809
vn 0.977980 -0.079869 -0.192809
vn 0.977980 -0.079869 -0.192809
vn 0.977980 -0.079869 -0.192809
vn 0.977980 -0.192815 -0.079863
vn 0.977980 -0.192815 -0.079864
vn 0.977980 -0.192815 -0.079864
vn 0.977980 -0.192815 -0.079864
vn 0.977979 -0.192818 0.079863
vn 0.977979 -0.192819 0.079863
vn 0.977979 -0.192819 0.079863
vn 0.977979 -0.192819 0.079863
vn 0.977980 -0.079874 0.192809
vn 0.977980 -0.079874 0.192809
vn 0.977980 -0.079874 0.192809
vn 0.977980 -0.079874 0.192809
vn 0.977982 0.079867 0.192804
vn 0.977982 0.079867 0.192804
vn 0.977982 0.079867 0.192804
vn 0.977982 0.079867 0.192804
vn 0.977980 0.192815 0.079863
vn 0.977980 0.192815 0.079864
vn 0.977980 0.192815 0.079864
vn 0.977980 0.192815 0.079864
vn 0.977979 0.192821 -0.079863
vn 0.977979 0.192821 -0.079863
vn 0.977979 0.192821 -0.079863
vn 0.977979 0.192821 -0.079863
vn 0.000000 0.382687 -0.923878
vn 0.000000 0.382687 -0.923878
vn 0.000000 0.382687 -0.923878
vn 0.000000 0.382687 -0.923878
vn 0.000000 -0.382687 -0.923878
vn 0.000000 -0.382687 -0.923878
vn 0.000000 -0.382687 -0.923878
vn 0.000000 -0.382687 -0.923878
vn 0.000000 -0.923881 -0.382680
vn 0.000000 -0.923881 -0.382680
vn 0.000000 -0.923881 -0.382680
vn 0.000000 -0.923881 -0.382680
vn 0.000000 -0.923881 0.382680
vn 0.000000 -0.923881 0.382680
vn 0.000000 -0.923881 0.382680
vn 0.000000 -0.923881 0.382680
vn 0.000000 -0.382687 0.923878
vn 0.000000 -0.382687 0.923878
vn 0.000000 -0.382687 0.923878
vn 0.000000 -0.382687 0.923878
vn 0.000000 0.382687 0.923878
vn 0.000000 0.382687 0.923878
vn 0.000000 0.382687 0.923878
vn 0.000000 0.382687 0.923878
vn 0.000000 0.923881 0.382680
vn 0.000000 0.923881 0.382680
vn 0.000000 0.923881 0.382680
vn 0.000000 0.923881 0.382680
vn 0.000000 0.923881 -0.382680
vn 0.000000 0.923881 -0.382680
vn 0.000000 0.923881 -0.382680
vn 0.000000 0.923881 -0.382680
s off
g polySurface40
f 17/1/1 18/2/2 19/3/3 20/4/4
f 15/5/5 16/6/6 4/7/7 3/8/8
f 16/6/9 2/9/10 5/10/11 4/7/12
f 12/11/13 11/12/14 13/13/15 14/14/16
f 1/15/17 15/5/18 3/8/19 6/16/20
f 2/9/21 1/15/22 7/17/23 8/18/24
f 1/15/25 6/16/26 9/19/27 7/17/28
f 6/16/29 5/10/30 10/20/31 9/19/32
f 5/10/33 2/9/34 8/18/35 10/20/36
f 8/18/37 7/17/38 11/12/39 12/11/40
f 7/17/41 9/19/42 13/13/43 11/12/44
f 9/19/45 10/20/46 14/14/47 13/13/48
f 10/20/49 8/18/50 12/11/51 14/14/52
f 21/21/53 22/22/54 18/2/55 17/1/56
f 22/22/57 23/23/58 19/3/59 18/2/60
f 23/23/61 24/24/62 20/4/63 19/3/64
f 24/24/65 21/21/66 17/1/67 20/4/68
f 3/8/69 4/7/70 22/22/71 21/21/72
f 4/7/73 5/10/74 23/23/75 22/22/76
f 5/10/77 6/16/78 24/24/79 23/23/80
f 6/16/81 3/8/82 21/21/83 24/24/84
f 25/25/85 26/26/86 34/27/87 33/28/88
f 26/26/89 27/29/90 35/30/91 34/27/92
f 27/29/93 28/31/94 36/32/95 35/30/96
f 28/31/97 29/33/98 37/34/99 36/32/100
f 29/33/101 30/35/102 38/36/103 37/34/104
f 30/35/105 31/37/106 39/38/107 38/36/108
f 31/37/109 32/39/110 40/40/111 39/38/112
f 32/39/113 25/41/114 33/42/115 40/40/116
f 33/28/117 34/27/118 42/43/119 41/44/120
f 34/27/121 35/30/122 43/45/123 42/43/124
f 35/30/125 36/32/126 44/46/127 43/45/128
f 36/32/129 37/34/130 45/47/131 44/46/132
f 37/34/133 38/36/134 46/48/135 45/47/136
f 38/36/137 39/38/138 47/49/139 46/48/140
f 39/38/141 40/40/142 48/50/143 47/49/144
f 40/40/145 33/42/146 41/51/147 48/50/148
f 41/44/149 42/43/150 50/52/151 49/53/152
f 42/43/153 43/45/154 51/54/155 50/52/156
f 43/45/157 44/46/158 52/55/159 51/54/160
f 44/46/161 45/47/162 53/56/163 52/55/164
f 45/47/165 46/48/166 54/57/167 53/56/168
f 46/48/169 47/49/170 55/58/171 54/57/172
f 47/49/173 48/50/174 56/59/175 55/58/176
f 48/50/177 41/51/178 49/60/179 56/59/180
f 49/53/181 50/52/182 57/61/183
f 50/52/184 51/54/185 57/62/186
f 51/54/187 52/55/188 57/63/189
f 52/55/190 53/56/191 57/64/192
f 53/56/193 54/57/194 57/65/195
f 54/57/196 55/58/197 57/66/198
f 55/58/199 56/59/200 57/67/201
f 56/59/202 49/60/203 57/68/204
f 26/69/205 25/70/206 58/71/207 59/72/208
f 27/73/209 26/74/210 59/75/211 60/76/212
f 28/77/213 27/78/214 60/79/215 61/80/216
f 29/81/217 28/82/218 61/83/219 62/84/220
f 30/85/221 29/86/222 62/87/223 63/88/224
f 31/89/225 30/90/226 63/91/227 64/92/228
f 32/93/229 31/94/230 64/95/231 65/96/232
f 25/97/233 32/98/234 65/99/235 58/100/236
f 59/101/237 58/102/238 66/103/239 67/104/240
f 60/105/241 59/106/242 67/107/243 68/108/244
f 61/109/245 60/110/246 68/111/247 69/112/248
f 62/113/249 61/114/250 69/115/251 70/116/252
f 63/117/253 62/118/254 70/119/255 71/120/256
f 64/121/257 63/122/258 71/123/259 72/124/260
f 65/125/261 64/126/262 72/127/263 73/128/264
f 58/129/265 65/130/266 73/131/267 66/132/268
