# This file uses meters as units for non-parametric coordinates.

g default
v -70.949280 0.000000 7.088542
v -67.233154 0.000000 21.572954
v -70.949280 4.357248 7.088542
v -66.596359 4.357248 21.572954
v -59.083374 4.221254 -12.333512
v -59.367073 -0.114780 -12.440753
v -64.694435 0.000000 7.088542
v -64.057640 4.357248 7.088542
v -64.138557 4.242468 3.436990
v -58.379025 4.357248 3.436985
v -58.476978 0.000000 3.436985
v -64.506500 -0.135994 3.436991
vt 0.799895 0.832985
vt 0.693910 0.832985
vt 0.693910 0.480668
vt 0.799895 0.480668
vt 0.739331 0.443129
vt 0.739331 0.001992
vt 0.845317 0.001992
vt 0.845317 0.443129
vt 0.911487 0.449385
vt 0.912003 0.832985
vt 0.805502 0.832985
vt 0.806018 0.446777
vt 0.311892 0.354309
vt 0.479523 0.354309
vt 0.477555 0.443129
vt 0.617649 0.443129
vt 0.417772 0.001992
vt 0.600517 0.826729
vt 0.001820 0.477020
vt 0.158534 0.388200
vt 0.153962 0.477020
vt 0.283545 0.001992
vt 0.305195 0.388200
vt 0.092211 0.829338
vt 0.582318 0.998008
vt 0.582318 0.845866
vt 0.688303 0.830377
vt 0.688303 0.998008
vt 0.470210 0.970471
vt 0.467418 0.830376
vt 0.573404 0.832759
vt 0.576711 0.979420
vt 0.623567 0.477020
vt 0.626359 0.001992
vt 0.732344 0.001992
vt 0.729036 0.474412
vn 0.000000 -0.000000 1.000000
vn 0.000000 -0.000000 1.000000
vn 0.000000 -0.000000 1.000000
vn 0.000000 -0.000000 1.000000
vn 0.015425 0.999878 -0.002659
vn -0.003908 0.999943 -0.009957
vn 0.009010 0.999957 -0.002200
vn -0.856140 0.034299 -0.515604
vn -0.856140 0.034299 -0.515604
vn -0.856140 0.034299 -0.515604
vn -0.856140 0.034299 -0.515604
vn -0.021059 -0.999778 0.000079
vn -0.011695 -0.999931 0.000563
vn 0.004314 -0.999927 0.011323
vn -0.974935 0.142483 -0.170879
vn -0.974935 0.142483 -0.170879
vn -0.974935 0.142483 -0.170879
vn -0.974935 0.142483 -0.170879
vn 0.019475 0.999798 0.004898
vn -0.004458 0.999966 -0.006933
vn -0.004458 0.999966 -0.006933
vn 0.903107 -0.076143 0.422610
vn 0.903107 -0.076143 0.422610
vn 0.903107 -0.076143 0.422610
vn 0.903107 -0.076143 0.422610
vn 0.004830 -0.999955 0.008224
vn 0.004830 -0.999955 0.008224
vn -0.026767 -0.999592 -0.010000
vn -0.000001 -0.000000 -1.000000
vn -0.000001 -0.000000 -1.000000
vn -0.000001 -0.000000 -1.000000
vn -0.000001 -0.000000 -1.000000
vn 0.949174 -0.074739 0.305750
vn 0.949174 -0.074739 0.305750
vn 0.949174 -0.074739 0.305750
vn 0.949174 -0.074739 0.305750
s off
g pCube20
f 1/25/1 7/26/2 8/27/3 3/28/4
s 1
f 3/13/5 8/14/6 9/15/7
s off
f 6/33/8 1/34/9 3/35/10 5/36/11
s 2
f 1/19/12 12/20/13 7/21/14
s off
f 8/1/15 7/2/16 2/3/17 4/4/18
s 1
f 3/13/5 9/15/7 5/18/19
f 10/16/20 9/15/7 8/14/6 4/17/21
s off
f 2/5/22 11/6/23 10/7/24 4/8/25
s 2
f 12/20/13 11/23/26 2/24/27 7/21/14
f 6/22/28 12/20/13 1/19/12
s off
f 9/29/29 10/30/30 11/31/31 12/32/32
f 5/9/33 9/10/34 12/11/35 6/12/36
