# This file uses meters as units for non-parametric coordinates.

g default
v 119.121696 71.963028 -35.870991
v 117.852814 73.956985 -38.359890
v 122.824524 96.004387 -25.885242
v 120.628433 96.395264 -28.684593
v 91.027420 96.004387 -17.097904
v 91.028442 95.830338 -20.785774
v 87.324585 71.963028 -27.083664
v 88.252815 73.391998 -30.461086
v 91.269440 74.267532 -25.543858
v 116.781647 74.266319 -32.352528
v 119.787552 93.699844 -24.237076
v 94.275322 93.701088 -17.428371
v 91.770981 74.897713 -26.394955
v 115.878540 74.897713 -32.815067
v 118.698189 93.204742 -25.210903
v 94.591545 93.204742 -18.778118
v 103.108505 73.674484 -34.425869
v 103.989204 71.963028 -31.657051
v 104.875031 74.251953 -28.843910
v 104.689842 74.877899 -29.432041
v 107.124786 93.204742 -21.699249
v 107.443710 93.700462 -20.686440
v 107.183975 96.004387 -21.511318
v 106.252151 96.112846 -24.923443
v 89.640625 84.184158 -25.623444
v 89.176003 83.983688 -22.090778
v 92.777260 83.984291 -21.419449
v 93.190628 84.051231 -22.458420
v 106.488525 84.016273 -23.719826
v 117.295853 84.051231 -28.910618
v 118.287842 83.983078 -28.250488
v 120.973114 83.983688 -30.878105
v 119.240623 84.749138 -33.522240
v 100.717133 93.204742 -20.051136
v 99.400391 84.051231 -22.580616
v 97.896790 74.897713 -27.664860
v 111.391373 74.897713 -31.414532
v 112.895706 84.051231 -26.320499
v 114.211830 93.204742 -23.799168
v 118.005974 88.627983 -26.938400
v 113.579483 88.627983 -24.708321
v 106.944260 88.627983 -22.272552
v 100.088684 88.627983 -20.906841
v 93.900940 88.627983 -20.483608
v 92.494537 79.474472 -24.239010
v 98.688248 79.474106 -24.580826
v 105.932343 79.266533 -25.486122
v 112.187088 79.474472 -28.272079
v 116.599602 79.474472 -30.693359
v 105.432068 94.014984 -27.685150
v 92.229149 93.748245 -24.169048
v 89.814270 74.450661 -32.028469
v 103.095970 74.704468 -35.572563
v 116.248749 74.958305 -39.081043
v 118.663605 94.255859 -31.221642
v 93.583359 90.680984 -21.582537
v 87.779099 89.869560 -20.992476
v 83.950317 87.251625 -21.544712
v 82.799690 80.826927 -23.794691
v 84.371681 78.318298 -25.442057
v 88.868065 76.434540 -26.994789
v 93.875061 90.803070 -20.033777
v 87.625175 89.929344 -19.398415
v 83.465019 87.060196 -20.001995
v 82.202477 80.275131 -22.383667
v 84.129684 77.333794 -24.200891
v 88.877640 75.234802 -25.965620
v 93.935173 92.071083 -20.107134
v 86.964249 91.096550 -19.398472
v 82.267921 87.820930 -20.085133
v 80.824303 80.452774 -22.679886
v 83.124901 76.666664 -24.787859
v 88.545876 74.406265 -26.871323
v 93.680634 92.732666 -21.701231
v 86.709709 91.758141 -20.992567
v 82.013374 88.482521 -21.679230
v 80.569756 81.114365 -24.273983
v 82.745903 77.238853 -26.391790
v 88.331253 75.093933 -28.460247
v 93.463196 91.873543 -22.613081
v 87.213310 90.999817 -21.977718
v 83.053162 88.130669 -22.581299
v 81.790611 81.345604 -24.962971
v 83.516457 78.259621 -26.796108
v 88.530373 76.347481 -28.536552
vt 0.250000 0.187500
vt 0.175000 0.187500
vt 0.175000 0.125000
vt 0.250000 0.125000
vt 0.175000 0.000000
vt 0.249309 0.000000
vt 0.250000 0.000000
vt 0.375000 0.125000
vt 0.375026 0.125943
vt 0.375000 0.187500
vt 0.250000 0.250000
vt 0.248976 0.250000
vt 0.175000 0.250000
vt 0.125000 0.187500
vt 0.125000 0.123922
vt 0.125000 0.125000
vt 0.325000 0.000000
vt 0.325000 0.187500
vt 0.325000 0.125000
vt 0.325000 0.250000
vt 0.125000 0.062500
vt 0.175000 0.062500
vt 0.250000 0.062500
vt 0.325000 0.062500
vt 0.375000 0.062500
vt 0.000000 0.000000
vt 0.495155 -0.000366
vt 0.499413 -0.001698
vt 0.000000 0.000000
vt 0.375012 0.374999
vt 0.624988 0.375000
vt 0.625000 0.500000
vt 0.375000 0.500000
vt 0.249924 0.250000
vt 0.125000 0.250000
vt 0.125000 0.250000
vt 0.125000 0.250000
vt 0.125000 0.000000
vt 0.125000 0.000000
vt 0.125000 0.000000
vt 0.249590 0.000000
vt 0.375000 0.750000
vt 0.625000 0.750000
vt 0.624988 0.875000
vt 0.375012 0.875000
vt 0.500311 0.000060
vt 0.502906 0.000014
vt 1.000000 0.000000
vt 0.874902 0.000213
vt 0.000000 0.000000
vt 0.126087 0.000214
vt 0.625000 1.000000
vt 0.375000 1.000000
vt 0.375000 0.000000
vt 0.375000 0.000000
vt 0.375000 0.000000
vt 0.375000 0.250000
vt 0.375000 0.250000
vt 0.375000 0.250000
vt 0.625000 0.250000
vt 1.000000 0.000000
vt 1.000000 0.000000
vt 0.000000 0.000000
vt 0.500370 0.000044
vt 0.970468 0.000300
vt 0.000000 0.000000
vt 0.375189 0.125195
vt 0.624987 0.124999
vt 0.125000 0.124299
vt 0.624987 0.625001
vt 0.375012 0.624999
vt 0.029351 0.000295
vt 0.500387 0.000049
vt 1.000000 0.000000
vt 1.000000 0.000000
vt 0.000000 0.000000
vt 0.625000 0.000000
vt 1.000000 0.000000
vt 0.272727 1.000000
vt 0.181818 1.000000
vt 0.181818 0.800000
vt 0.272727 0.800000
vt 0.363636 1.000000
vt 0.363636 0.800000
vt 0.454545 1.000000
vt 0.454545 0.800000
vt 0.545455 1.000000
vt 0.545455 0.800000
vt 0.636364 1.000000
vt 0.636364 0.800000
vt 0.181818 0.600000
vt 0.272727 0.600000
vt 0.363636 0.600000
vt 0.454545 0.600000
vt 0.545455 0.600000
vt 0.636364 0.600000
vt 0.181818 0.400000
vt 0.272727 0.400000
vt 0.363636 0.400000
vt 0.454545 0.400000
vt 0.545455 0.400000
vt 0.636364 0.400000
vt 0.181818 0.200000
vt 0.272727 0.200000
vt 0.363636 0.200000
vt 0.454545 0.200000
vt 0.545455 0.200000
vt 0.636364 0.200000
vt 0.181818 0.000000
vt 0.272727 0.000000
vt 0.363636 0.000000
vt 0.454545 0.000000
vt 0.545455 0.000000
vt 0.636364 0.000000
vn 0.165744 -0.335614 0.927304
vn 0.165744 -0.335614 0.927304
vn 0.165744 -0.335614 0.927304
vn 0.165744 -0.335614 0.927304
vn 0.181374 0.701354 0.689351
vn 0.181374 0.701354 0.689351
vn 0.181374 0.701354 0.689351
vn -0.547462 -0.258094 0.796036
vn -0.547462 -0.258094 0.796036
vn -0.547462 -0.258094 0.796036
vn 0.105499 -0.905883 0.410179
vn 0.105499 -0.905883 0.410179
vn 0.105499 -0.905883 0.410179
vn 0.896742 -0.285193 0.338406
vn 0.896742 -0.285193 0.338406
vn 0.896742 -0.285193 0.338406
vn 0.200203 0.701702 0.683764
vn 0.200203 0.701702 0.683764
vn 0.200203 0.701702 0.683764
vn 0.340227 -0.334781 0.878731
vn 0.340227 -0.334781 0.878731
vn 0.340227 -0.334781 0.878731
vn 0.340227 -0.334781 0.878731
vn 0.120193 -0.906096 0.405641
vn 0.120193 -0.906096 0.405641
vn 0.120193 -0.906096 0.405641
vn 0.900592 -0.269617 0.340942
vn 0.900592 -0.269617 0.340943
vn 0.900592 -0.269617 0.340942
vn 0.123871 -0.386006 0.914142
vn 0.123871 -0.386006 0.914142
vn 0.123871 -0.386006 0.914142
vn 0.123871 -0.386006 0.914142
vn 0.367245 -0.386971 0.845804
vn 0.367245 -0.386971 0.845804
vn 0.367245 -0.386971 0.845804
vn 0.367245 -0.386971 0.845804
vn -0.550132 -0.229114 0.803033
vn -0.550132 -0.229114 0.803033
vn -0.550132 -0.229114 0.803033
vn -0.166866 0.810411 -0.561596
vn -0.166866 0.810411 -0.561596
vn -0.166866 0.810411 -0.561596
vn -0.166866 0.810411 -0.561596
vn -0.011122 0.999908 -0.007782
vn -0.011122 0.999908 -0.007782
vn -0.011122 0.999908 -0.007782
vn -0.011122 0.999908 -0.007782
vn 0.242650 0.284273 0.927529
vn 0.242650 0.284273 0.927529
vn 0.242650 0.284273 0.927529
vn 0.242650 0.284273 0.927529
vn 0.095370 -0.908785 0.406220
vn 0.095370 -0.908785 0.406220
vn 0.095370 -0.908785 0.406220
vn 0.095370 -0.908785 0.406220
vn 0.040739 -0.375327 0.925997
vn 0.040739 -0.375327 0.925997
vn 0.040739 -0.375327 0.925997
vn 0.040739 -0.375327 0.925997
vn 0.034474 -0.386046 0.921835
vn 0.034474 -0.386046 0.921835
vn 0.034474 -0.386046 0.921835
vn 0.034474 -0.386046 0.921835
vn 0.168349 0.668303 0.724589
vn 0.168349 0.668303 0.724589
vn 0.168349 0.668303 0.724589
vn 0.168349 0.668303 0.724589
vn 0.162268 -0.763274 0.625366
vn 0.162268 -0.763274 0.625366
vn 0.162268 -0.763274 0.625366
vn 0.162268 -0.763274 0.625366
vn -0.114701 -0.884255 -0.452699
vn -0.114701 -0.884255 -0.452699
vn -0.114701 -0.884255 -0.452699
vn -0.114701 -0.884255 -0.452699
vn -0.161617 -0.735356 -0.658128
vn -0.161617 -0.735356 -0.658128
vn -0.161617 -0.735356 -0.658128
vn -0.161617 -0.735356 -0.658128
vn -0.161676 -0.734597 -0.658960
vn -0.161675 -0.734597 -0.658960
vn -0.161676 -0.734597 -0.658960
vn -0.161676 -0.734597 -0.658960
vn -0.137322 -0.835226 -0.532485
vn -0.137322 -0.835226 -0.532485
vn -0.137322 -0.835226 -0.532485
vn -0.137322 -0.835226 -0.532485
vn 0.172917 -0.778006 0.603992
vn 0.172917 -0.778006 0.603992
vn 0.172917 -0.778006 0.603992
vn 0.172917 -0.778006 0.603992
vn 0.200406 0.713562 0.671317
vn 0.200406 0.713562 0.671317
vn 0.200406 0.713562 0.671317
vn 0.200406 0.713562 0.671317
vn 0.454036 -0.395418 0.798433
vn 0.454036 -0.395418 0.798434
vn 0.454036 -0.395418 0.798433
vn 0.454036 -0.395418 0.798433
vn 0.442419 -0.384614 0.810147
vn 0.442419 -0.384614 0.810147
vn 0.442419 -0.384614 0.810147
vn 0.442419 -0.384614 0.810147
vn 0.111280 -0.919292 0.377518
vn 0.111280 -0.919292 0.377518
vn 0.111280 -0.919292 0.377518
vn 0.111280 -0.919292 0.377518
vn 0.257003 0.332135 0.907544
vn 0.257003 0.332135 0.907544
vn 0.257003 0.332135 0.907544
vn 0.257003 0.332135 0.907544
vn 0.010861 0.997147 0.074694
vn 0.010861 0.997147 0.074694
vn 0.010861 0.997147 0.074694
vn 0.010861 0.997147 0.074694
vn -0.163946 0.810659 -0.562098
vn -0.163946 0.810659 -0.562098
vn -0.163946 0.810659 -0.562098
vn -0.163946 0.810659 -0.562098
vn 0.660121 0.214292 -0.719944
vn 0.660121 0.214292 -0.719944
vn 0.660121 0.214292 -0.719944
vn 0.660121 0.214292 -0.719944
vn 0.816938 0.122296 -0.563609
vn 0.816938 0.122296 -0.563609
vn 0.816938 0.122296 -0.563609
vn 0.816938 0.122296 -0.563609
vn 0.647087 -0.374830 0.663913
vn 0.647087 -0.374830 0.663913
vn 0.647087 -0.374830 0.663913
vn 0.647087 -0.374830 0.663913
vn -0.535326 -0.242828 0.808988
vn -0.535326 -0.242828 0.808988
vn -0.535326 -0.242828 0.808988
vn -0.535326 -0.242828 0.808988
vn 0.360105 -0.305969 0.881310
vn 0.360105 -0.305969 0.881310
vn 0.360105 -0.305969 0.881310
vn 0.360105 -0.305969 0.881310
vn 0.308783 -0.178718 0.934191
vn 0.308783 -0.178718 0.934191
vn 0.308783 -0.178718 0.934191
vn 0.308783 -0.178718 0.934191
vn 0.218383 -0.169337 0.961059
vn 0.218383 -0.169337 0.961059
vn 0.218383 -0.169337 0.961059
vn 0.218383 -0.169337 0.961059
vn 0.130826 -0.284579 0.949684
vn 0.130826 -0.284579 0.949684
vn 0.130826 -0.284579 0.949684
vn 0.130826 -0.284579 0.949684
vn 0.895606 -0.276137 0.348767
vn 0.895606 -0.276137 0.348767
vn 0.895606 -0.276137 0.348767
vn 0.895606 -0.276137 0.348767
vn -0.165107 -0.354878 0.920218
vn -0.165107 -0.354878 0.920218
vn -0.165107 -0.354878 0.920218
vn -0.165107 -0.354878 0.920218
vn -0.984955 0.160947 -0.062930
vn -0.984955 0.160947 -0.062930
vn -0.984955 0.160947 -0.062930
vn -0.984955 0.160947 -0.062930
vn -0.828953 0.296480 -0.474275
vn -0.828953 0.296480 -0.474275
vn -0.828953 0.296480 -0.474275
vn -0.828953 0.296480 -0.474275
vn -0.771024 0.340400 -0.538192
vn -0.771024 0.340400 -0.538192
vn -0.771024 0.340400 -0.538192
vn -0.968350 0.201168 -0.147752
vn -0.968350 0.201168 -0.147752
vn -0.968350 0.201168 -0.147752
vn -0.968350 0.201168 -0.147752
vn -0.159038 -0.360861 0.918959
vn -0.159038 -0.360861 0.918959
vn -0.159038 -0.360861 0.918959
vn -0.159038 -0.360861 0.918959
vn 0.879864 -0.299484 0.368984
vn 0.879864 -0.299484 0.368984
vn 0.879864 -0.299484 0.368984
vn 0.879864 -0.299484 0.368984
vn 0.111754 -0.507580 0.854326
vn 0.111754 -0.507580 0.854326
vn 0.111754 -0.507581 0.854326
vn 0.111754 -0.507581 0.854326
vn 0.135347 -0.630217 0.764531
vn 0.135347 -0.630217 0.764531
vn 0.135347 -0.630217 0.764531
vn 0.135347 -0.630217 0.764531
vn 0.276920 -0.633904 0.722137
vn 0.276919 -0.633904 0.722137
vn 0.276920 -0.633904 0.722137
vn 0.276920 -0.633904 0.722137
vn 0.339278 -0.510582 0.790061
vn 0.339278 -0.510582 0.790061
vn 0.339278 -0.510582 0.790061
vn 0.339278 -0.510582 0.790061
vn -0.501662 -0.278450 0.819024
vn -0.501662 -0.278450 0.819024
vn -0.501662 -0.278450 0.819024
vn -0.501662 -0.278450 0.819024
vn 0.642190 -0.378170 0.666768
vn 0.642190 -0.378170 0.666768
vn 0.642190 -0.378170 0.666768
vn 0.642190 -0.378170 0.666768
vn 0.878398 0.078434 -0.471451
vn 0.878398 0.078434 -0.471451
vn 0.878398 0.078434 -0.471451
vn 0.878398 0.078434 -0.471451
vn 0.536054 0.286948 -0.793919
vn 0.536054 0.286948 -0.793919
vn 0.536054 0.286948 -0.793919
vn -0.244198 0.391839 -0.887034
vn -0.244198 0.391839 -0.887034
vn -0.244198 0.391839 -0.887034
vn -0.244198 0.391839 -0.887034
vn -0.244167 0.391839 -0.887043
vn -0.244167 0.391839 -0.887043
vn -0.244167 0.391839 -0.887043
vn -0.244167 0.391839 -0.887043
vn 0.143347 -0.988362 0.050918
vn 0.143347 -0.988362 0.050918
vn 0.143347 -0.988362 0.050918
vn 0.143347 -0.988362 0.050918
vn 0.556637 -0.827018 0.078722
vn 0.556637 -0.827018 0.078722
vn 0.556637 -0.827018 0.078722
vn 0.556637 -0.827018 0.078722
vn 0.925085 -0.264530 0.272472
vn 0.925085 -0.264530 0.272472
vn 0.925085 -0.264530 0.272472
vn 0.925085 -0.264530 0.272472
vn 0.858461 0.276632 0.431879
vn 0.858461 0.276632 0.431879
vn 0.858461 0.276632 0.431879
vn 0.858461 0.276632 0.431879
vn 0.486713 0.604097 0.631013
vn 0.486713 0.604097 0.631013
vn 0.486713 0.604097 0.631013
vn 0.486713 0.604097 0.631013
vn 0.093649 0.053077 0.994190
vn 0.093649 0.053077 0.994190
vn 0.093649 0.053077 0.994190
vn 0.093649 0.053077 0.994190
vn -0.104496 -0.057862 0.992841
vn -0.104496 -0.057862 0.992841
vn -0.104496 -0.057862 0.992841
vn -0.104496 -0.057862 0.992841
vn -0.239305 -0.281025 0.929386
vn -0.239305 -0.281025 0.929386
vn -0.239305 -0.281025 0.929386
vn -0.239305 -0.281025 0.929386
vn -0.177141 -0.576663 0.797547
vn -0.177141 -0.576663 0.797547
vn -0.177141 -0.576663 0.797547
vn -0.177141 -0.576663 0.797547
vn -0.025685 -0.694573 0.718963
vn -0.025685 -0.694573 0.718963
vn -0.025685 -0.694573 0.718964
vn -0.025685 -0.694573 0.718963
vn -0.087884 0.914996 0.393776
vn -0.087884 0.914996 0.393776
vn -0.087884 0.914996 0.393776
vn -0.087884 0.914996 0.393776
vn -0.564201 0.726790 0.391731
vn -0.564201 0.726790 0.391731
vn -0.564201 0.726790 0.391731
vn -0.564201 0.726790 0.391731
vn -0.971714 0.118433 0.204317
vn -0.971714 0.118433 0.204317
vn -0.971714 0.118433 0.204317
vn -0.971714 0.118433 0.204317
vn -0.867905 -0.496345 -0.019548
vn -0.867905 -0.496345 -0.019548
vn -0.867905 -0.496345 -0.019548
vn -0.867905 -0.496345 -0.019548
vn -0.441162 -0.859772 -0.257232
vn -0.441162 -0.859772 -0.257232
vn -0.441162 -0.859772 -0.257232
vn -0.441162 -0.859772 -0.257232
vn -0.169549 0.737155 -0.654107
vn -0.169549 0.737155 -0.654107
vn -0.169549 0.737155 -0.654107
vn -0.169549 0.737155 -0.654107
vn -0.353588 0.650724 -0.671962
vn -0.353588 0.650724 -0.671962
vn -0.353588 0.650724 -0.671962
vn -0.353588 0.650724 -0.671962
vn -0.521409 0.370048 -0.768893
vn -0.521409 0.370048 -0.768893
vn -0.521409 0.370048 -0.768893
vn -0.521409 0.370048 -0.768893
vn -0.549543 0.157625 -0.820461
vn -0.549543 0.157625 -0.820461
vn -0.549543 0.157625 -0.820461
vn -0.549543 0.157625 -0.820462
vn -0.353590 -0.046673 -0.934236
vn -0.353589 -0.046673 -0.934236
vn -0.353589 -0.046673 -0.934236
vn -0.353589 -0.046673 -0.934236
vn 0.014297 -0.652950 -0.757266
vn 0.014297 -0.652950 -0.757266
vn 0.014297 -0.652950 -0.757266
vn 0.014297 -0.652950 -0.757266
vn 0.431005 -0.464576 -0.773565
vn 0.431005 -0.464576 -0.773565
vn 0.431005 -0.464576 -0.773565
vn 0.431005 -0.464576 -0.773565
vn 0.777780 0.076647 -0.623846
vn 0.777780 0.076647 -0.623846
vn 0.777780 0.076647 -0.623846
vn 0.777780 0.076647 -0.623846
vn 0.672697 0.633927 -0.381596
vn 0.672697 0.633927 -0.381596
vn 0.672697 0.633927 -0.381596
vn 0.672697 0.633927 -0.381596
vn 0.311928 0.933758 -0.175491
vn 0.311928 0.933758 -0.175491
vn 0.311928 0.933758 -0.175491
vn 0.311928 0.933758 -0.175491
s off
g polySurface34
f 42/1/1 43/2/2 35/3/3 29/4/4
f 36/5/5 19/6/6 20/7/7
f 30/8/8 31/9/9 40/10/10
f 21/11/11 22/12/12 34/13/13
f 44/14/14 27/15/15 28/16/16
f 20/7/17 19/6/18 37/17/19
f 41/18/20 42/1/21 29/4/22 38/19/23
f 39/20/24 22/12/25 21/11/26
f 28/16/27 27/15/28 45/21/29
f 35/3/30 46/22/31 47/23/32 29/4/33
f 47/23/34 48/24/35 38/19/36 29/4/37
f 49/25/38 31/9/39 30/8/40
f 6/26/41 24/27/42 50/28/43 51/29/44
f 23/30/45 24/31/46 6/32/47 5/33/48
f 22/12/49 23/34/50 5/35/51 12/36/52
f 34/13/53 22/12/54 12/36/55 16/37/56
f 28/16/57 35/3/58 43/2/59 44/14/60
f 45/21/61 46/22/62 35/3/63 28/16/64
f 9/38/65 19/6/66 36/5/67 13/39/68
f 7/40/69 18/41/70 19/6/71 9/38/72
f 7/42/73 8/43/74 17/44/75 18/45/76
f 53/46/77 17/47/78 8/48/79 52/49/80
f 2/50/81 17/47/82 53/46/83 54/51/84
f 18/45/85 17/44/86 2/52/87 1/53/88
f 19/6/89 18/41/90 1/54/91 10/55/92
f 37/17/93 19/6/94 10/55/95 14/56/96
f 30/8/97 38/19/98 48/24/99 49/25/100
f 40/10/101 41/18/102 38/19/103 30/8/104
f 11/57/105 22/12/106 39/20/107 15/58/108
f 3/59/109 23/34/110 22/12/111 11/57/112
f 3/59/113 4/60/114 24/31/115 23/30/116
f 50/28/117 24/27/118 4/61/119 55/62/120
f 4/63/121 33/64/122 54/65/123 55/66/124
f 32/67/125 33/68/126 4/60/127 3/59/128
f 31/9/129 32/67/130 3/59/131 11/57/132
f 40/10/133 31/9/134 11/57/135 15/58/136
f 39/20/137 41/18/138 40/10/139 15/58/140
f 21/11/141 42/1/142 41/18/143 39/20/144
f 34/13/145 43/2/146 42/1/147 21/11/148
f 44/14/149 43/2/150 34/13/151 16/37/152
f 12/36/153 27/15/154 44/14/155 16/37/156
f 5/35/157 26/69/158 27/15/159 12/36/160
f 5/33/161 6/32/162 25/70/163 26/71/164
f 52/72/165 25/73/166 6/74/167 51/75/168
f 8/76/169 25/73/170 52/72/171
f 26/71/172 25/70/173 8/43/174 7/42/175
f 27/15/176 26/69/177 7/40/178 9/38/179
f 45/21/180 27/15/181 9/38/182 13/39/183
f 13/39/184 36/5/185 46/22/186 45/21/187
f 47/23/188 46/22/189 36/5/190 20/7/191
f 37/17/192 48/24/193 47/23/194 20/7/195
f 49/25/196 48/24/197 37/17/198 14/56/199
f 10/55/200 31/9/201 49/25/202 14/56/203
f 1/54/204 32/67/205 31/9/206 10/55/207
f 1/54/208 2/77/209 33/68/210 32/67/211
f 54/65/212 33/64/213 2/78/214
f 54/51/215 53/46/216 50/28/217 55/62/218
f 51/29/219 50/28/220 53/46/221 52/49/222
f 57/79/223 56/80/224 62/81/225 63/82/226
f 58/83/227 57/79/228 63/82/229 64/84/230
f 59/85/231 58/83/232 64/84/233 65/86/234
f 60/87/235 59/85/236 65/86/237 66/88/238
f 61/89/239 60/87/240 66/88/241 67/90/242
f 63/82/243 62/81/244 68/91/245 69/92/246
f 64/84/247 63/82/248 69/92/249 70/93/250
f 65/86/251 64/84/252 70/93/253 71/94/254
f 66/88/255 65/86/256 71/94/257 72/95/258
f 67/90/259 66/88/260 72/95/261 73/96/262
f 69/92/263 68/91/264 74/97/265 75/98/266
f 70/93/267 69/92/268 75/98/269 76/99/270
f 71/94/271 70/93/272 76/99/273 77/100/274
f 72/95/275 71/94/276 77/100/277 78/101/278
f 73/96/279 72/95/280 78/101/281 79/102/282
f 75/98/283 74/97/284 80/103/285 81/104/286
f 76/99/287 75/98/288 81/104/289 82/105/290
f 77/100/291 76/99/292 82/105/293 83/106/294
f 78/101/295 77/100/296 83/106/297 84/107/298
f 79/102/299 78/101/300 84/107/301 85/108/302
f 81/104/303 80/103/304 56/109/305 57/110/306
f 82/105/307 81/104/308 57/110/309 58/111/310
f 83/106/311 82/105/312 58/111/313 59/112/314
f 84/107/315 83/106/316 59/112/317 60/113/318
f 85/108/319 84/107/320 60/113/321 61/114/322
