# This file uses centimeters as units for non-parametric coordinates.

mtllib Wrench.mtl
g default
v -3.798971 -0.108118 0.467754
v 4.438041 -0.150000 0.511742
v -3.798971 0.124492 0.467754
v 4.438041 0.150000 0.511742
v -3.796551 0.124383 -0.463929
v 4.438041 0.150000 -0.511742
v -3.796551 -0.108227 -0.463929
v 4.438041 -0.150000 -0.511742
v -3.443552 -0.112309 0.387789
v -3.443552 -0.112309 -0.387789
v -3.443552 0.112309 -0.387789
v -3.443552 0.112309 0.387789
v 3.844151 -0.112309 0.387789
v 3.844151 0.112309 0.387789
v 3.844151 0.112309 -0.387789
v 3.844151 -0.112309 -0.387789
v -4.071404 -0.133627 -0.896451
v -4.571183 -0.150000 -1.185627
v -5.385204 -0.137859 -1.132370
v -5.881130 -0.129454 -0.726127
v -5.955772 -0.123851 -0.643497
v -5.898842 -0.123851 0.625967
v -5.824199 -0.129454 0.708596
v -5.316742 -0.137859 0.976561
v -4.502720 -0.150000 1.029818
v -4.002942 -0.133627 0.741017
v -4.071404 0.133627 -0.896451
v -4.571183 0.150000 -1.185627
v -5.385204 0.137859 -1.132370
v -5.881130 0.129454 -0.726127
v -5.955772 0.123851 -0.643497
v -5.898842 0.123851 0.625967
v -5.824199 0.129454 0.708596
v -5.316742 0.137859 0.976561
v -4.502720 0.150000 1.029818
v -4.002942 0.133627 0.741017
v -4.433393 -0.123851 -0.491877
v -4.660295 -0.123851 -0.673666
v -5.316742 -0.123851 -0.631116
v -5.857863 -0.123851 -0.598756
v -5.800932 -0.123851 0.581225
v -5.316742 -0.123851 0.563439
v -4.660295 -0.123851 0.537986
v -4.433393 -0.123851 0.439799
v -4.433393 0.123851 -0.491877
v -4.660295 0.123851 -0.673666
v -5.316742 0.123851 -0.631116
v -5.857863 0.123851 -0.598756
v -5.800932 0.123851 0.581225
v -5.316742 0.123851 0.563439
v -4.660295 0.123851 0.537986
v -4.433393 0.123851 0.439799
v -4.334151 -0.123851 -0.210335
v -4.334151 -0.123851 0.106179
v -4.334151 0.123851 0.106179
v -4.334151 0.123851 -0.210335
v 4.250975 0.129774 0.000000
v 4.250975 -0.129774 0.000000
v 5.792979 -0.150000 -0.501028
v 5.366779 -0.150000 -0.810680
v 4.839968 -0.150000 -0.810679
v 4.839968 -0.150000 0.810679
v 5.366779 -0.150000 0.810679
v 5.792979 -0.150000 0.501028
v 5.955772 -0.150000 -0.000000
v 5.792979 0.150000 -0.501028
v 5.366779 0.150000 -0.810680
v 4.839968 0.150000 -0.810679
v 4.839968 0.150000 0.810679
v 5.366779 0.150000 0.810679
v 5.792979 0.150000 0.501028
v 5.955772 0.150000 -0.000000
v 5.608022 -0.150000 -0.366649
v 5.296132 -0.150000 -0.593251
v 4.910615 -0.150000 -0.593251
v 4.598723 -0.150000 -0.366649
v 4.479593 -0.150000 0.000000
v 4.598723 -0.150000 0.366649
v 4.910615 -0.150000 0.593251
v 5.296132 -0.150000 0.593251
v 5.608022 -0.150000 0.366649
v 5.727154 -0.150000 -0.000000
v 5.608022 0.150000 -0.366649
v 5.296132 0.150000 -0.593251
v 4.910615 0.150000 -0.593251
v 4.598723 0.150000 -0.366649
v 4.479593 0.150000 0.000000
v 4.598723 0.150000 0.366649
v 4.910615 0.150000 0.593251
v 5.296132 0.150000 0.593251
v 5.608022 0.150000 0.366649
v 5.727154 0.150000 -0.000000
vt 0.375000 0.000000
vt 0.625000 0.000000
vt 0.375000 0.250000
vt 0.625000 0.250000
vt 0.375000 0.500000
vt 0.625000 0.500000
vt 0.375000 0.750000
vt 0.625000 0.750000
vt 0.375000 1.000000
vt 0.625000 1.000000
vt 0.387221 0.000000
vt 0.387221 1.000000
vt 0.387221 0.750000
vt 0.387221 0.500000
vt 0.387221 0.250000
vt 0.615696 0.000000
vt 0.615696 1.000000
vt 0.615696 0.250000
vt 0.615696 0.500000
vt 0.615696 0.750000
vt 0.387500 0.688440
vt 0.387500 0.312500
vt 0.412500 0.312500
vt 0.412500 0.688440
vt 0.425000 0.312500
vt 0.425000 0.688440
vt 0.450000 0.312500
vt 0.450000 0.688440
vt 0.395818 0.126431
vt 0.395818 0.873804
vt 0.408318 0.264194
vt 0.525000 0.312500
vt 0.525000 0.688440
vt 0.408318 0.736041
vt 0.550000 0.312500
vt 0.550000 0.688440
vt 0.562500 0.312500
vt 0.562500 0.688440
vt 0.587500 0.312500
vt 0.587500 0.688440
vt 0.548284 0.007647
vt 0.548284 0.007647
vt 0.626409 0.064408
vt 0.626409 0.064408
vt 0.500000 -0.000000
vt 0.500000 -0.000000
vt 0.408159 0.029841
vt 0.408159 0.029841
vt 0.408159 0.282659
vt 0.408159 0.282659
vt 0.500000 0.312500
vt 0.500000 0.312500
vt 0.548284 0.304853
vt 0.548284 0.304853
vt 0.626409 0.248091
vt 0.626409 0.248091
vt 0.626409 0.935591
vt 0.626409 0.935591
vt 0.548284 0.992353
vt 0.548284 0.992353
vt 0.500000 1.000000
vt 0.500000 1.000000
vt 0.408159 0.970159
vt 0.408159 0.970159
vt 0.408159 0.717341
vt 0.408159 0.717341
vt 0.500000 0.687500
vt 0.500000 0.687500
vt 0.548284 0.695147
vt 0.548284 0.695147
vt 0.626409 0.751908
vt 0.626409 0.751908
vt 0.647150 0.128244
vt 0.656250 0.156250
vt 0.641331 0.202166
vt 0.641331 0.110334
vt 0.647150 0.815744
vt 0.656250 0.843750
vt 0.641331 0.889666
vt 0.641331 0.797834
vt 0.604876 0.312500
vt 0.604876 0.688440
vt 0.543890 0.688440
vt 0.543890 0.312500
vt 0.647150 0.184255
vt 0.647150 0.871755
vt 0.625000 0.375000
vt 0.625000 0.875000
vt 0.375000 0.312500
vt 0.400000 0.312500
vt 0.400000 0.688440
vt 0.375000 0.688440
vt 0.425000 0.312500
vt 0.425000 0.688440
vt 0.450000 0.312500
vt 0.450000 0.688440
vt 0.500000 0.312500
vt 0.525000 0.312500
vt 0.525000 0.688440
vt 0.500000 0.688440
vt 0.550000 0.312500
vt 0.550000 0.688440
vt 0.575000 0.312500
vt 0.575000 0.688440
vt 0.600000 0.312500
vt 0.600000 0.688440
vt 0.625000 0.312500
vt 0.625000 0.688440
vt 0.548284 0.007647
vt 0.626409 0.064409
vt 0.626409 0.064409
vt 0.548284 0.007647
vt 0.451716 0.007647
vt 0.451716 0.007647
vt 0.373591 0.064409
vt 0.373591 0.064409
vt 0.343750 0.156250
vt 0.343750 0.156250
vt 0.373591 0.248091
vt 0.373591 0.248091
vt 0.451716 0.304853
vt 0.451716 0.304853
vt 0.548284 0.304853
vt 0.548284 0.304853
vt 0.626409 0.248091
vt 0.626409 0.248091
vt 0.656250 0.156250
vt 0.656250 0.156250
vt 0.626409 0.935591
vt 0.548284 0.992353
vt 0.548284 0.992353
vt 0.626409 0.935591
vt 0.451716 0.992353
vt 0.451716 0.992353
vt 0.373591 0.935591
vt 0.373591 0.935591
vt 0.343750 0.843750
vt 0.343750 0.843750
vt 0.373591 0.751909
vt 0.373591 0.751909
vt 0.451716 0.695147
vt 0.451716 0.695147
vt 0.548284 0.695147
vt 0.548284 0.695147
vt 0.626409 0.751909
vt 0.626409 0.751909
vt 0.656250 0.843750
vt 0.656250 0.843750
vn 0.010855 -0.000000 0.999941
vn 0.010565 -0.000000 0.999944
vn -0.018785 0.000000 0.999824
vn -0.018785 0.000000 0.999824
vn 0.001960 0.999998 -0.000001
vn 0.001969 0.999998 -0.000001
vn -0.001487 0.999999 -0.000262
vn -0.001487 0.999999 0.000262
vn 0.010064 -0.000000 -0.999949
vn 0.010339 -0.000000 -0.999947
vn -0.018785 0.000000 -0.999824
vn -0.018785 0.000000 -0.999824
vn -0.000672 -1.000000 0.000003
vn -0.000669 -1.000000 0.000003
vn -0.001487 -0.999999 0.000262
vn -0.001487 -0.999999 -0.000262
vn -0.011676 -0.999932 0.000047
vn -0.011676 -0.999932 0.000047
vn 0.648190 -0.000000 -0.761479
vn 0.646836 -0.000000 -0.762629
vn 0.034221 0.999414 -0.000015
vn 0.034221 0.999414 -0.000015
vn 0.553810 0.000001 0.832643
vn 0.553699 0.000001 0.832717
vn -0.408447 0.000000 0.912782
vn -0.408447 0.000000 0.912782
vn -0.052560 0.998618 0.000000
vn -0.059661 0.998063 0.017638
vn -0.408447 0.000000 -0.912782
vn -0.408447 0.000000 -0.912782
vn -0.052560 -0.998618 0.000000
vn -0.059661 -0.998063 -0.017638
vn 0.667733 0.000000 -0.744401
vn 0.665904 0.000000 -0.746037
vn 0.173348 0.000000 -0.984861
vn 0.173348 0.000000 -0.984861
vn -0.317376 0.000000 -0.948300
vn -0.317376 0.000000 -0.948300
vn -0.649336 0.000000 -0.760502
vn -0.649336 0.000000 -0.760502
vn -0.742063 0.000000 -0.670330
vn -0.742063 0.000000 -0.670330
vn -0.742060 0.000000 0.670333
vn -0.512170 0.000000 0.858884
vn -0.512170 0.000000 0.858884
vn -0.742060 0.000000 0.670333
vn -0.226952 0.000000 0.973906
vn -0.226952 0.000000 0.973906
vn 0.173079 0.000000 0.984908
vn 0.173079 0.000000 0.984908
vn 0.609926 0.000000 0.792458
vn 0.612186 0.000000 0.790714
vn -0.004264 -0.999233 0.038926
vn -0.004450 -0.999229 0.039000
vn 0.010395 -0.999471 0.030827
vn 0.012288 -0.999482 0.029732
vn -0.003163 -0.999298 0.037325
vn -0.002563 -0.999319 0.036809
vn 0.004299 -0.999516 0.030806
vn 0.004409 -0.999518 0.030735
vn -0.021904 -0.998610 0.047933
vn 0.000216 -0.999335 -0.036469
vn -0.021904 -0.998610 -0.047933
vn 0.000169 -0.999334 -0.036493
vn -0.005164 -0.999141 -0.041132
vn -0.005708 -0.999119 -0.041589
vn -0.004870 -0.999037 -0.043597
vn -0.005203 -0.999039 -0.043525
vn 0.011534 -0.999240 -0.037225
vn 0.014627 -0.999264 -0.035470
vn -0.001760 0.999702 0.024358
vn -0.001815 0.999656 0.026156
vn -0.004450 0.999229 0.039000
vn -0.004264 0.999233 0.038926
vn -0.003163 0.999298 0.037325
vn -0.002563 0.999319 0.036810
vn 0.004409 0.999518 0.030735
vn 0.004299 0.999516 0.030806
vn -0.021904 0.998610 0.047933
vn -0.021904 0.998610 -0.047933
vn 0.000216 0.999335 -0.036469
vn 0.000169 0.999334 -0.036493
vn -0.005708 0.999119 -0.041589
vn -0.005164 0.999140 -0.041132
vn -0.004870 0.999037 -0.043597
vn -0.005203 0.999039 -0.043525
vn -0.000676 0.999622 -0.027492
vn -0.000768 0.999525 -0.030816
vn -0.138616 0.000000 -0.990346
vn -0.797966 0.000000 -0.602703
vn -0.797966 0.000000 -0.602703
vn -0.138616 0.000000 -0.990346
vn -0.037880 0.000000 -0.999282
vn -0.037880 0.000000 -0.999282
vn -0.106803 0.000000 -0.994280
vn -0.106803 0.000000 -0.994280
vn -0.415631 0.000000 -0.909533
vn -0.415631 0.000000 -0.909533
vn -0.415630 0.000000 0.909534
vn -0.019372 0.000000 0.999812
vn -0.019372 0.000000 0.999812
vn -0.415630 0.000000 0.909534
vn 0.062430 0.000000 0.998049
vn 0.062430 0.000000 0.998049
vn -0.155703 0.000000 0.987804
vn -0.155703 0.000000 0.987804
vn -0.817726 0.000000 0.575608
vn -0.817726 0.000000 0.575608
vn 0.026585 -0.999589 0.010756
vn 0.027703 -0.999521 -0.013762
vn 0.028400 -0.999570 -0.007307
vn 0.027343 -0.999597 0.007683
vn -0.000729 0.999973 -0.007317
vn -0.001247 0.999980 0.006248
vn -0.001200 0.999990 0.004411
vn -0.000894 0.999992 -0.003958
vn -0.986510 0.000000 0.163702
vn -0.988549 -0.000000 -0.150900
vn -0.988549 -0.000000 -0.150900
vn -0.986510 -0.000000 0.163702
vn -0.059661 0.998063 -0.017638
vn -0.059661 -0.998063 0.017638
vn 0.809017 0.000000 -0.587785
vn 0.309017 0.000000 -0.951057
vn 0.309017 0.000000 -0.951057
vn 0.809017 0.000000 -0.587785
vn -0.306395 0.000000 -0.951905
vn -0.306395 0.000000 -0.951905
vn -0.306395 0.000000 0.951905
vn -0.306395 0.000000 0.951905
vn 0.309017 0.000000 0.951057
vn 0.309017 0.000000 0.951057
vn 0.809017 0.000000 0.587785
vn 0.809017 0.000000 0.587785
vn 1.000000 0.000000 0.000000
vn 1.000000 0.000000 0.000000
vn 0.000000 -1.000000 -0.000000
vn 0.000000 -1.000000 -0.000000
vn 0.000000 -1.000000 -0.000000
vn 0.000000 -1.000000 -0.000000
vn 0.000000 -1.000000 -0.000000
vn 0.000000 -1.000000 -0.000000
vn -0.025035 -0.999685 0.002033
vn -0.028494 -0.999591 0.002314
vn -0.053498 -0.998568 -0.000000
vn -0.053498 -0.998568 0.000000
vn -0.025035 -0.999685 -0.002033
vn -0.028494 -0.999591 -0.002314
vn 0.000000 -1.000000 -0.000000
vn 0.000000 -1.000000 -0.000000
vn 0.000000 -1.000000 -0.000000
vn 0.000000 -1.000000 -0.000000
vn 0.000000 -1.000000 0.000000
vn 0.000000 -1.000000 0.000000
vn 0.000000 -1.000000 0.000000
vn 0.000000 -1.000000 0.000000
vn 0.000000 1.000000 0.000000
vn 0.000000 1.000000 0.000000
vn 0.000000 1.000000 0.000000
vn 0.000000 1.000000 0.000000
vn 0.000000 1.000000 0.000000
vn 0.000000 1.000000 0.000000
vn -0.025035 0.999685 0.002033
vn -0.028494 0.999591 0.002314
vn -0.053498 0.998568 0.000000
vn -0.053498 0.998568 0.000000
vn -0.025035 0.999685 -0.002033
vn -0.028494 0.999591 -0.002314
vn 0.000000 1.000000 0.000000
vn 0.000000 1.000000 0.000000
vn 0.000000 1.000000 0.000000
vn 0.000000 1.000000 -0.000000
vn 0.000000 1.000000 0.000000
vn 0.000000 1.000000 0.000000
vn 0.000000 1.000000 0.000000
vn 0.000000 1.000000 0.000000
vn -0.587786 0.000000 0.809016
vn -0.587786 0.000000 0.809016
vn -0.587786 0.000000 0.809016
vn -0.587786 0.000000 0.809016
vn -0.951056 0.000000 0.309018
vn -0.951056 0.000000 0.309018
vn -0.951056 0.000000 0.309018
vn -0.951056 0.000000 0.309018
vn -0.951056 0.000000 -0.309018
vn -0.951056 0.000000 -0.309018
vn -0.951056 0.000000 -0.309018
vn -0.951056 0.000000 -0.309018
vn -0.587786 0.000000 -0.809016
vn -0.587786 0.000000 -0.809016
vn -0.587786 0.000000 -0.809016
vn -0.587786 0.000000 -0.809016
vn 0.000000 0.000000 -1.000000
vn 0.000000 0.000000 -1.000000
vn 0.000000 0.000000 -1.000000
vn 0.000000 0.000000 -1.000000
vn 0.587784 0.000000 -0.809018
vn 0.587784 0.000000 -0.809018
vn 0.587784 0.000000 -0.809018
vn 0.587784 0.000000 -0.809018
vn 0.951058 0.000000 -0.309014
vn 0.951058 0.000000 -0.309014
vn 0.951058 0.000000 -0.309014
vn 0.951058 0.000000 -0.309014
vn 0.951058 0.000000 0.309014
vn 0.951058 0.000000 0.309014
vn 0.951058 0.000000 0.309014
vn 0.951058 0.000000 0.309014
vn 0.587784 0.000000 0.809018
vn 0.587784 0.000000 0.809018
vn 0.587784 0.000000 0.809018
vn 0.587784 0.000000 0.809018
vn 0.000000 0.000000 1.000000
vn 0.000000 0.000000 1.000000
vn 0.000000 0.000000 1.000000
vn 0.000000 0.000000 1.000000
s 1
g Wrench
usemtl initialShadingGroup
f 12/15/1 9/11/2 13/16/3 14/18/4
s 2
f 11/14/5 12/15/6 14/18/7 15/19/8
s 1
f 10/13/9 11/14/10 15/19/11 16/20/12
s 4
f 9/12/13 10/13/14 16/20/15 13/17/16
f 7/7/17 10/13/14 9/12/13 1/9/18
s 1
f 5/5/19 11/14/10 10/13/9 7/7/20
s 2
f 3/3/21 12/15/6 11/14/5 5/5/22
s 1
f 1/1/23 9/11/2 12/15/1 3/3/24
f 14/18/4 13/16/3 2/2/25 4/4/26
s 2
f 15/19/8 57/87/27 6/6/28
s 1
f 16/20/12 15/19/11 6/6/29 8/8/30
s 4
f 13/17/16 58/88/31 2/10/32
s 1
f 27/21/33 17/22/34 18/23/35 28/24/36
f 18/23/35 19/25/37 29/26/38 28/24/36
f 29/26/38 19/25/37 20/27/39 30/28/40
f 20/27/39 21/29/41 31/30/42 30/28/40
f 22/31/43 23/32/44 33/33/45 32/34/46
f 33/33/45 23/32/44 24/35/47 34/36/48
f 24/35/47 25/37/49 35/38/50 34/36/48
f 35/38/50 25/37/49 26/39/51 36/40/52
s 6
f 38/41/53 18/42/54 17/43/55 37/44/56
f 19/45/57 18/42/54 38/41/53 39/46/58
f 40/47/59 20/48/60 19/45/57 39/46/58
f 21/29/61 20/48/60 40/47/59
f 23/49/62 22/31/63 41/50/64
f 42/51/65 24/52/66 23/49/62 41/50/64
f 25/53/67 24/52/66 42/51/65 43/54/68
f 44/55/69 26/56/70 25/53/67 43/54/68
s 8
f 45/57/71 27/58/72 28/59/73 46/60/74
f 28/59/73 29/61/75 47/62/76 46/60/74
f 47/62/76 29/61/75 30/63/77 48/64/78
f 30/63/77 31/30/79 48/64/78
f 32/34/80 33/65/81 49/66/82
f 49/66/82 33/65/81 34/67/83 50/68/84
f 34/67/83 35/69/85 51/70/86 50/68/84
f 51/70/86 35/69/85 36/71/87 52/72/88
s 10
f 51/70/89 52/72/90 44/55/91 43/54/92
f 43/54/92 42/51/93 50/68/94 51/70/89
f 49/66/95 50/68/94 42/51/93 41/50/96
f 41/50/96 22/31/97 32/34/98 49/66/95
f 21/29/99 40/47/100 48/64/101 31/30/102
f 47/62/103 48/64/101 40/47/100 39/46/104
f 39/46/104 38/41/105 46/60/106 47/62/103
f 45/57/107 46/60/106 38/41/105 37/44/108
s 6
f 7/73/109 1/74/110 54/75/111 53/76/112
s 8
f 3/77/113 5/78/114 56/79/115 55/80/116
s 10
f 53/76/117 54/75/118 55/80/119 56/79/120
s 1
f 36/40/52 26/39/51 1/81/23 3/82/24
f 5/83/19 7/84/20 17/22/34 27/21/33
s 6
f 37/44/56 17/43/55 7/73/109 53/76/112
f 54/75/111 1/85/110 26/56/70 44/55/69
s 8
f 52/72/88 36/71/87 3/77/113 55/80/116
f 56/79/115 5/86/114 27/58/72 45/57/71
s 10
f 56/79/120 45/57/107 37/44/108 53/76/117
f 52/72/90 55/80/119 54/75/118 44/55/91
s 2
f 57/87/27 14/18/7 4/4/121
f 15/19/8 14/18/7 57/87/27
s 4
f 58/88/31 16/20/15 8/8/122
f 13/17/16 16/20/15 58/88/31
s 1
f 59/89/123 60/90/124 67/91/125 66/92/126
f 60/90/124 61/93/127 68/94/128 67/91/125
f 61/93/127 8/95/30 6/96/29 68/94/128
f 2/97/25 62/98/129 69/99/130 4/100/26
f 62/98/129 63/101/131 70/102/132 69/99/130
f 63/101/131 64/103/133 71/104/134 70/102/132
f 64/103/133 65/105/135 72/106/136 71/104/134
f 65/105/135 59/107/123 66/108/126 72/106/136
s 13
f 60/109/137 59/110/138 73/111/139 74/112/140
f 61/113/141 60/109/137 74/112/140 75/114/142
f 8/115/143 61/113/141 75/114/142 76/116/144
f 58/117/145 8/115/143 76/116/144 77/118/146
f 2/119/147 58/117/145 77/118/146 78/120/148
f 62/121/149 2/119/147 78/120/148 79/122/150
f 63/123/151 62/121/149 79/122/150 80/124/152
f 64/125/153 63/123/151 80/124/152 81/126/154
f 65/127/155 64/125/153 81/126/154 82/128/156
f 59/110/138 65/127/155 82/128/156 73/111/139
s 14
f 66/129/157 67/130/158 84/131/159 83/132/160
f 67/130/158 68/133/161 85/134/162 84/131/159
f 68/133/161 6/135/163 86/136/164 85/134/162
f 6/135/163 57/137/165 87/138/166 86/136/164
f 57/137/165 4/139/167 88/140/168 87/138/166
f 4/139/167 69/141/169 89/142/170 88/140/168
f 69/141/169 70/143/171 90/144/172 89/142/170
f 70/143/171 71/145/173 91/146/174 90/144/172
f 71/145/173 72/147/175 92/148/176 91/146/174
f 72/147/175 66/129/157 83/132/160 92/148/176
s off
f 74/112/177 73/111/178 83/132/179 84/131/180
f 73/111/181 82/128/182 92/148/183 83/132/184
f 82/128/185 81/126/186 91/146/187 92/148/188
f 81/126/189 80/124/190 90/144/191 91/146/192
f 80/124/193 79/122/194 89/142/195 90/144/196
f 79/122/197 78/120/198 88/140/199 89/142/200
f 78/120/201 77/118/202 87/138/203 88/140/204
f 77/118/205 76/116/206 86/136/207 87/138/208
f 76/116/209 75/114/210 85/134/211 86/136/212
f 75/114/213 74/112/214 84/131/215 85/134/216
