# This file uses meters as units for non-parametric coordinates.

g default
v 5.985556 1.001665 2.125171
v 5.991267 1.019418 -1.383718
v 5.985556 18.488325 2.213646
v 5.991266 18.506079 -1.295243
v -5.591869 18.488419 2.194809
v -6.300660 18.492863 1.316518
v -5.591869 1.001760 2.106334
v -6.300659 1.006205 1.228044
v -5.586160 18.506172 -1.314080
v -6.297804 18.501740 -0.438102
v -5.586160 1.019514 -1.402555
v -6.297804 1.015081 -0.526576
v 5.986515 1.004647 1.536048
v 5.990308 1.016438 -0.794595
v 5.990307 18.503096 -0.706121
v 5.986515 18.491306 1.624523
v -5.590910 1.004742 1.517211
v -5.587119 1.016533 -0.813433
v -5.587097 18.503260 -0.738204
v -5.590886 18.491478 1.590322
v 5.577632 1.361453 1.537188
v 5.581423 1.373244 -0.793456
v 5.581423 18.175411 -0.708444
v 5.577632 18.163620 1.622200
v -5.590910 1.361550 1.519016
v -5.587119 1.373342 -0.811627
v -5.587119 18.175503 -0.726616
v -5.590910 18.163712 1.604028
vt 0.939008 0.740321
vt 0.504529 0.363575
vt 0.509266 0.449365
vt 0.934270 0.449365
vt 0.505067 0.384893
vt 0.935931 0.384893
vt 0.509266 0.363639
vt 0.504529 0.016123
vt 0.939008 0.448857
vt 0.934270 0.363639
vt 0.505067 0.427538
vt 0.935931 0.427538
vt 0.488270 0.872104
vt 0.001992 0.872104
vt 0.011345 0.857777
vt 0.478156 0.857777
vt 0.001992 0.458968
vt 0.011345 0.458968
vt 0.488270 0.472919
vt 0.478156 0.472919
vt 0.001992 0.003512
vt 0.488270 0.003512
vt 0.478156 0.017508
vt 0.488270 0.406650
vt 0.001992 0.395249
vt 0.011345 0.395249
vt 0.948589 0.449365
vt 0.949771 0.740321
vt 0.949771 0.016123
vt 0.948589 0.363639
vt 0.493999 0.742533
vt 0.494948 0.449365
vt 0.494948 0.363639
vt 0.493439 0.013395
vt 0.934270 0.377957
vt 0.509266 0.377957
vt 0.499072 0.434165
vt 0.499072 0.377571
vt 0.945736 0.377879
vt 0.945891 0.434522
vt 0.934270 0.437377
vt 0.509266 0.437377
vt 0.011345 0.017508
vt 0.478156 0.406650
vt 0.956684 0.004487
vt 0.994498 0.004303
vt 0.995588 0.228092
vt 0.957775 0.228276
vt 0.959104 0.500880
vt 0.996917 0.500696
vt 0.998008 0.724485
vt 0.960195 0.724669
vt 0.939008 0.363575
vt 0.504529 0.740321
vt 0.504529 0.448857
vt 0.939008 0.016123
vn -0.999999 0.000008 -0.001627
vn -0.999999 0.000008 -0.001627
vn -0.999999 0.000008 -0.001627
vn -0.999999 0.000008 -0.001627
vn 0.999999 -0.000008 0.001627
vn 0.999999 -0.000008 0.001627
vn 0.999999 -0.000008 0.001627
vn 0.999999 -0.000008 0.001627
vn -0.000000 0.999987 0.005059
vn -0.000000 0.999987 0.005059
vn -0.000000 0.999987 0.005057
vn 0.001627 0.005059 -0.999986
vn 0.001627 0.005059 -0.999986
vn 0.001627 0.005059 -0.999986
vn 0.001627 0.005059 -0.999986
vn -0.001627 -0.005059 0.999986
vn -0.001627 -0.005059 0.999986
vn -0.001627 -0.005059 0.999986
vn -0.001627 -0.005059 0.999986
vn -0.000000 -0.999987 -0.005059
vn -0.000000 -0.999987 -0.005059
vn -0.000000 -0.999987 -0.005059
vn -0.000000 -0.999987 -0.005059
vn -0.778204 -0.003177 0.628004
vn -0.778204 -0.003177 0.628004
vn -0.778204 -0.003177 0.628004
vn -0.778204 -0.003177 0.628004
vn -0.776156 0.003190 -0.630533
vn -0.776156 0.003190 -0.630532
vn -0.776156 0.003190 -0.630533
vn -0.776156 0.003190 -0.630532
vn 0.000000 -0.999987 -0.005060
vn 0.000000 -0.999987 -0.005059
vn 0.000000 -0.999987 -0.005059
vn -0.000000 0.999987 0.005059
vn -0.000000 0.999987 0.005059
vn -0.000000 0.999987 0.005059
vn -0.000000 0.999987 0.005059
vn 0.999999 -0.000008 0.001627
vn 0.999999 -0.000008 0.001627
vn 0.999999 -0.000008 0.001627
vn 0.999999 -0.000008 0.001627
vn 0.999999 -0.000008 0.001628
vn 0.999999 -0.000008 0.001628
vn 0.999999 -0.000008 0.001628
vn 0.999999 -0.000008 0.001628
vn -0.000000 -0.999987 -0.005060
vn -0.000000 -0.999987 -0.005060
vn -0.000000 -0.999987 -0.005060
vn -0.000000 -0.999987 -0.005060
vn 0.000000 -0.999987 -0.005061
vn 0.000000 -0.999987 -0.005061
vn 0.000000 -0.999987 -0.005061
vn 0.000000 -0.999987 -0.005061
vn -0.000000 0.999987 0.005061
vn -0.000000 0.999987 0.005061
vn -0.000000 0.999987 0.005061
vn -0.000000 0.999987 0.005061
vn -0.000000 0.999987 0.005061
vn -0.000000 0.999987 0.005061
vn -0.000000 0.999987 0.005061
vn -0.000000 0.999987 0.005061
vn -0.001627 -0.005059 0.999986
vn -0.001794 0.000832 0.999998
vn -0.001842 0.002523 0.999995
vn -0.001627 -0.005059 0.999986
vn 0.001820 -0.001774 -0.999997
vn 0.001627 0.005060 -0.999986
vn 0.001627 0.005060 -0.999986
vn 0.001876 -0.003735 -0.999991
vn 0.999999 -0.000008 0.001627
vn 0.999999 -0.000008 0.001627
vn 0.999999 -0.000008 0.001627
vn 0.999999 -0.000008 0.001627
vn -0.001627 -0.005059 0.999986
vn -0.001627 -0.005059 0.999986
vn 0.001627 0.005060 -0.999986
vn 0.001627 0.005060 -0.999986
vn -0.002209 0.015512 0.999877
vn -0.002209 0.015512 0.999877
vn 0.999999 -0.000008 0.001627
vn 0.999999 -0.000008 0.001627
vn 0.999999 -0.000008 0.001627
vn 0.999999 -0.000008 0.001627
vn 0.002302 -0.018800 -0.999821
vn 0.002302 -0.018800 -0.999821
vn -0.000000 0.999987 0.005061
vn -0.000000 0.999987 0.005060
vn -0.000000 0.999987 0.005059
vn 0.000000 -0.999987 -0.005059
vn 0.000000 -0.999987 -0.005059
vn -0.000000 -0.999987 -0.005060
s off
g pCube22
f 8/12/1 6/11/2 10/5/3 12/6/4
f 21/48/5 22/47/6 23/50/7 24/49/8
s 1
f 10/5/9 19/38/10 9/2/11
s off
f 11/1/12 9/54/13 4/3/14 2/4/15
f 3/7/16 5/8/17 7/56/18 1/10/19
f 25/45/20 26/46/21 22/47/22 21/48/23
f 5/55/24 6/11/25 8/12/26 7/9/27
f 10/5/28 9/2/29 11/53/30 12/6/31
s 2
f 7/9/32 8/12/33 17/40/34
s off
f 24/49/35 23/50/36 27/51/37 28/52/38
f 2/4/39 4/3/40 15/42/41 14/41/42
f 3/7/43 1/10/44 13/35/45 16/36/46
f 11/1/47 2/4/48 14/27/49 18/28/50
f 1/10/51 7/56/52 17/29/53 13/30/54
f 4/3/55 9/54/56 19/31/57 15/32/58
f 5/8/59 3/7/60 16/33/61 20/34/62
s 3
f 14/13/63 15/14/64 23/15/65 22/16/66
s 4
f 16/21/67 13/22/68 21/23/69 24/43/70
s off
f 17/24/71 18/19/72 26/20/73 25/44/74
s 3
f 18/19/75 14/13/63 22/16/66 26/20/76
s 4
f 13/22/68 17/24/77 25/44/78 21/23/69
s 3
f 15/14/64 19/17/79 27/18/80 23/15/65
s off
f 19/17/81 20/25/82 28/26/83 27/18/84
s 4
f 20/25/85 16/21/67 24/43/70 28/26/86
s 1
f 5/55/87 20/37/88 6/11/89
f 6/11/89 20/37/88 19/38/10 10/5/9
s 2
f 18/39/90 12/6/91 11/53/92
f 17/40/34 8/12/33 12/6/91 18/39/90
