# This file uses meters as units for non-parametric coordinates.

g default
v -102.690201 6.776622 215.583939
v -103.845673 6.776622 215.105316
v -105.001137 6.776622 215.583939
v -105.479752 6.776622 216.739410
v -105.001137 6.776622 217.894882
v -103.845673 6.776622 218.373489
v -102.690201 6.776622 217.894882
v -102.211586 6.776622 216.739410
v -101.710640 7.702253 214.604385
v -103.845673 7.702253 213.720016
v -105.980698 7.702253 214.604385
v -106.865051 7.702253 216.739410
v -105.980698 7.702253 218.874435
v -103.845673 7.702253 219.758789
v -101.710640 7.702253 218.874435
v -100.826286 7.702253 216.739410
v -101.056122 9.087560 213.949860
v -103.845673 9.087560 212.794388
v -106.635216 9.087560 213.949860
v -107.790688 9.087560 216.739410
v -106.635216 9.087560 219.528961
v -103.845673 9.087560 220.684433
v -101.056122 9.087560 219.528961
v -99.900650 9.087560 216.739410
v -100.826286 10.721641 213.720016
v -103.845673 10.721641 212.469345
v -106.865051 10.721641 213.720016
v -108.115723 10.721641 216.739410
v -106.865051 10.721641 219.758789
v -103.845673 10.721641 221.009476
v -100.826286 10.721641 219.758789
v -99.575615 10.721641 216.739410
v -101.056122 12.355721 213.949860
v -103.845673 12.355721 212.794388
v -106.635216 12.355721 213.949860
v -107.790688 12.355721 216.739410
v -106.635216 12.355721 219.528961
v -103.845673 12.355721 220.684433
v -101.056122 12.355721 219.528961
v -99.900650 12.355721 216.739410
v -101.710640 13.741028 214.604385
v -103.845673 13.741028 213.720016
v -105.980698 13.741028 214.604385
v -106.865051 13.741028 216.739410
v -105.980698 13.741028 218.874435
v -103.845673 13.741028 219.758789
v -101.710640 13.741028 218.874435
v -100.826286 13.741028 216.739410
v -102.690201 14.666659 215.583939
v -103.845673 14.666659 215.105316
v -105.001137 14.666659 215.583939
v -105.479752 14.666659 216.739410
v -105.001137 14.666659 217.894882
v -103.845673 14.666659 218.373489
v -102.690201 14.666659 217.894882
v -102.211586 14.666659 216.739410
v -103.845673 6.451582 216.739410
v -103.845673 14.991699 216.739410
vt 0.000000 0.125000
vt 0.125000 0.125000
vt 0.250000 0.125000
vt 0.375000 0.125000
vt 0.500000 0.125000
vt 0.625000 0.125000
vt 0.750000 0.125000
vt 0.875000 0.125000
vt 1.000000 0.125000
vt 0.000000 0.250000
vt 0.125000 0.250000
vt 0.250000 0.250000
vt 0.375000 0.250000
vt 0.500000 0.250000
vt 0.625000 0.250000
vt 0.750000 0.250000
vt 0.875000 0.250000
vt 1.000000 0.250000
vt 0.000000 0.375000
vt 0.125000 0.375000
vt 0.250000 0.375000
vt 0.375000 0.375000
vt 0.500000 0.375000
vt 0.625000 0.375000
vt 0.750000 0.375000
vt 0.875000 0.375000
vt 1.000000 0.375000
vt 0.000000 0.500000
vt 0.125000 0.500000
vt 0.250000 0.500000
vt 0.375000 0.500000
vt 0.500000 0.500000
vt 0.625000 0.500000
vt 0.750000 0.500000
vt 0.875000 0.500000
vt 1.000000 0.500000
vt 0.000000 0.625000
vt 0.125000 0.625000
vt 0.250000 0.625000
vt 0.375000 0.625000
vt 0.500000 0.625000
vt 0.625000 0.625000
vt 0.750000 0.625000
vt 0.875000 0.625000
vt 1.000000 0.625000
vt 0.000000 0.750000
vt 0.125000 0.750000
vt 0.250000 0.750000
vt 0.375000 0.750000
vt 0.500000 0.750000
vt 0.625000 0.750000
vt 0.750000 0.750000
vt 0.875000 0.750000
vt 1.000000 0.750000
vt 0.000000 0.875000
vt 0.125000 0.875000
vt 0.250000 0.875000
vt 0.375000 0.875000
vt 0.500000 0.875000
vt 0.625000 0.875000
vt 0.750000 0.875000
vt 0.875000 0.875000
vt 1.000000 0.875000
vt 0.062500 0.000000
vt 0.187500 0.000000
vt 0.312500 0.000000
vt 0.437500 0.000000
vt 0.562500 0.000000
vt 0.687500 0.000000
vt 0.812500 0.000000
vt 0.937500 0.000000
vt 0.062500 1.000000
vt 0.187500 1.000000
vt 0.312500 1.000000
vt 0.437500 1.000000
vt 0.562500 1.000000
vt 0.687500 1.000000
vt 0.812500 1.000000
vt 0.937500 1.000000
vn 0.224267 -0.810289 -0.541420
vn 0.224267 -0.810289 -0.541420
vn 0.224267 -0.810289 -0.541420
vn 0.224267 -0.810289 -0.541420
vn -0.224267 -0.810291 -0.541417
vn -0.224267 -0.810291 -0.541417
vn -0.224267 -0.810291 -0.541417
vn -0.224267 -0.810291 -0.541417
vn -0.541423 -0.810288 -0.224263
vn -0.541423 -0.810288 -0.224263
vn -0.541423 -0.810288 -0.224263
vn -0.541423 -0.810288 -0.224263
vn -0.541420 -0.810290 0.224264
vn -0.541420 -0.810290 0.224264
vn -0.541420 -0.810290 0.224264
vn -0.541420 -0.810290 0.224264
vn -0.224263 -0.810289 0.541421
vn -0.224263 -0.810289 0.541421
vn -0.224263 -0.810290 0.541421
vn -0.224263 -0.810289 0.541421
vn 0.224262 -0.810289 0.541422
vn 0.224262 -0.810289 0.541422
vn 0.224262 -0.810289 0.541422
vn 0.224262 -0.810289 0.541422
vn 0.541418 -0.810291 0.224264
vn 0.541418 -0.810291 0.224264
vn 0.541418 -0.810291 0.224264
vn 0.541418 -0.810291 0.224264
vn 0.541423 -0.810288 -0.224263
vn 0.541423 -0.810288 -0.224263
vn 0.541423 -0.810288 -0.224263
vn 0.541423 -0.810288 -0.224263
vn 0.325643 -0.525288 -0.786149
vn 0.325643 -0.525288 -0.786149
vn 0.325643 -0.525288 -0.786149
vn 0.325643 -0.525288 -0.786149
vn -0.325643 -0.525289 -0.786148
vn -0.325643 -0.525289 -0.786148
vn -0.325643 -0.525289 -0.786148
vn -0.325643 -0.525289 -0.786148
vn -0.786151 -0.525290 -0.325635
vn -0.786150 -0.525290 -0.325635
vn -0.786151 -0.525290 -0.325635
vn -0.786151 -0.525290 -0.325635
vn -0.786150 -0.525291 0.325635
vn -0.786150 -0.525291 0.325635
vn -0.786150 -0.525291 0.325635
vn -0.786150 -0.525291 0.325635
vn -0.325637 -0.525291 0.786149
vn -0.325637 -0.525291 0.786149
vn -0.325637 -0.525291 0.786149
vn -0.325637 -0.525291 0.786149
vn 0.325635 -0.525293 0.786148
vn 0.325635 -0.525293 0.786148
vn 0.325635 -0.525293 0.786148
vn 0.325635 -0.525293 0.786148
vn 0.786148 -0.525293 0.325634
vn 0.786148 -0.525293 0.325634
vn 0.786148 -0.525293 0.325634
vn 0.786148 -0.525293 0.325634
vn 0.786150 -0.525291 -0.325635
vn 0.786150 -0.525291 -0.325635
vn 0.786150 -0.525291 -0.325635
vn 0.786150 -0.525291 -0.325635
vn 0.376380 -0.180744 -0.908664
vn 0.376380 -0.180744 -0.908664
vn 0.376380 -0.180744 -0.908664
vn 0.376380 -0.180744 -0.908664
vn -0.376381 -0.180747 -0.908663
vn -0.376381 -0.180747 -0.908663
vn -0.376381 -0.180747 -0.908663
vn -0.376381 -0.180747 -0.908663
vn -0.908664 -0.180745 -0.376380
vn -0.908664 -0.180745 -0.376380
vn -0.908664 -0.180745 -0.376380
vn -0.908664 -0.180745 -0.376380
vn -0.908663 -0.180744 0.376382
vn -0.908663 -0.180744 0.376382
vn -0.908663 -0.180744 0.376382
vn -0.908663 -0.180744 0.376382
vn -0.376381 -0.180740 0.908664
vn -0.376381 -0.180740 0.908664
vn -0.376382 -0.180740 0.908664
vn -0.376381 -0.180740 0.908664
vn 0.376381 -0.180741 0.908664
vn 0.376381 -0.180741 0.908664
vn 0.376380 -0.180741 0.908664
vn 0.376380 -0.180741 0.908664
vn 0.908664 -0.180740 0.376382
vn 0.908664 -0.180740 0.376382
vn 0.908664 -0.180740 0.376382
vn 0.908664 -0.180740 0.376382
vn 0.908664 -0.180743 -0.376380
vn 0.908664 -0.180743 -0.376380
vn 0.908664 -0.180743 -0.376380
vn 0.908664 -0.180743 -0.376380
vn 0.376380 0.180746 -0.908663
vn 0.376380 0.180746 -0.908663
vn 0.376380 0.180746 -0.908663
vn 0.376380 0.180746 -0.908663
vn -0.376381 0.180745 -0.908663
vn -0.376381 0.180745 -0.908663
vn -0.376381 0.180745 -0.908663
vn -0.376381 0.180745 -0.908663
vn -0.908664 0.180745 -0.376380
vn -0.908664 0.180745 -0.376380
vn -0.908664 0.180745 -0.376380
vn -0.908664 0.180745 -0.376380
vn -0.908663 0.180744 0.376382
vn -0.908663 0.180744 0.376382
vn -0.908663 0.180744 0.376382
vn -0.908663 0.180744 0.376382
vn -0.376381 0.180742 0.908664
vn -0.376381 0.180742 0.908664
vn -0.376381 0.180742 0.908664
vn -0.376381 0.180742 0.908664
vn 0.376381 0.180740 0.908664
vn 0.376381 0.180740 0.908664
vn 0.376381 0.180740 0.908664
vn 0.376381 0.180740 0.908664
vn 0.908664 0.180740 0.376382
vn 0.908664 0.180740 0.376382
vn 0.908664 0.180740 0.376382
vn 0.908664 0.180740 0.376382
vn 0.908664 0.180743 -0.376380
vn 0.908664 0.180743 -0.376380
vn 0.908664 0.180743 -0.376380
vn 0.908664 0.180743 -0.376380
vn 0.325642 0.525287 -0.786149
vn 0.325642 0.525287 -0.786149
vn 0.325642 0.525287 -0.786149
vn 0.325642 0.525287 -0.786149
vn -0.325644 0.525287 -0.786149
vn -0.325644 0.525287 -0.786149
vn -0.325644 0.525287 -0.786148
vn -0.325644 0.525287 -0.786148
vn -0.786151 0.525290 -0.325635
vn -0.786151 0.525290 -0.325635
vn -0.786150 0.525290 -0.325635
vn -0.786151 0.525290 -0.325635
vn -0.786151 0.525288 0.325636
vn -0.786151 0.525288 0.325636
vn -0.786151 0.525288 0.325636
vn -0.786151 0.525288 0.325636
vn -0.325636 0.525292 0.786148
vn -0.325636 0.525292 0.786148
vn -0.325636 0.525292 0.786148
vn -0.325636 0.525292 0.786148
vn 0.325635 0.525292 0.786149
vn 0.325635 0.525292 0.786149
vn 0.325635 0.525292 0.786149
vn 0.325635 0.525292 0.786149
vn 0.786148 0.525293 0.325634
vn 0.786148 0.525293 0.325634
vn 0.786148 0.525293 0.325634
vn 0.786148 0.525293 0.325634
vn 0.786148 0.525293 -0.325634
vn 0.786148 0.525293 -0.325634
vn 0.786148 0.525293 -0.325634
vn 0.786148 0.525293 -0.325634
vn 0.224267 0.810289 -0.541420
vn 0.224267 0.810289 -0.541420
vn 0.224267 0.810289 -0.541420
vn 0.224267 0.810289 -0.541420
vn -0.224267 0.810291 -0.541417
vn -0.224267 0.810291 -0.541417
vn -0.224267 0.810291 -0.541417
vn -0.224267 0.810291 -0.541417
vn -0.541423 0.810288 -0.224263
vn -0.541423 0.810288 -0.224263
vn -0.541423 0.810288 -0.224263
vn -0.541423 0.810288 -0.224263
vn -0.541420 0.810290 0.224264
vn -0.541420 0.810290 0.224264
vn -0.541420 0.810290 0.224264
vn -0.541420 0.810290 0.224264
vn -0.224262 0.810290 0.541421
vn -0.224262 0.810290 0.541421
vn -0.224262 0.810290 0.541421
vn -0.224262 0.810290 0.541421
vn 0.224262 0.810289 0.541422
vn 0.224262 0.810289 0.541422
vn 0.224262 0.810289 0.541422
vn 0.224262 0.810289 0.541422
vn 0.541418 0.810291 0.224264
vn 0.541418 0.810291 0.224264
vn 0.541418 0.810291 0.224264
vn 0.541418 0.810291 0.224264
vn 0.541422 0.810289 -0.224263
vn 0.541422 0.810289 -0.224263
vn 0.541422 0.810289 -0.224263
vn 0.541422 0.810289 -0.224263
vn 0.080551 -0.977598 -0.194455
vn 0.080551 -0.977598 -0.194455
vn 0.080551 -0.977599 -0.194455
vn -0.080553 -0.977598 -0.194457
vn -0.080553 -0.977598 -0.194457
vn -0.080553 -0.977598 -0.194457
vn -0.194458 -0.977598 -0.080546
vn -0.194458 -0.977598 -0.080546
vn -0.194458 -0.977598 -0.080546
vn -0.194450 -0.977600 0.080546
vn -0.194450 -0.977600 0.080546
vn -0.194450 -0.977600 0.080546
vn -0.080554 -0.977597 0.194460
vn -0.080554 -0.977597 0.194460
vn -0.080554 -0.977597 0.194460
vn 0.080552 -0.977598 0.194456
vn 0.080552 -0.977598 0.194456
vn 0.080552 -0.977598 0.194456
vn 0.194452 -0.977600 0.080547
vn 0.194452 -0.977600 0.080547
vn 0.194452 -0.977599 0.080547
vn 0.194459 -0.977598 -0.080548
vn 0.194459 -0.977598 -0.080548
vn 0.194459 -0.977598 -0.080548
vn 0.080551 0.977599 -0.194454
vn 0.080551 0.977599 -0.194454
vn 0.080551 0.977599 -0.194454
vn -0.080553 0.977598 -0.194457
vn -0.080553 0.977598 -0.194457
vn -0.080553 0.977598 -0.194457
vn -0.194458 0.977598 -0.080547
vn -0.194458 0.977598 -0.080547
vn -0.194458 0.977598 -0.080547
vn -0.194450 0.977600 0.080548
vn -0.194450 0.977600 0.080548
vn -0.194450 0.977600 0.080548
vn -0.080553 0.977598 0.194458
vn -0.080553 0.977598 0.194458
vn -0.080553 0.977598 0.194458
vn 0.080551 0.977598 0.194456
vn 0.080551 0.977598 0.194456
vn 0.080551 0.977598 0.194456
vn 0.194452 0.977599 0.080548
vn 0.194452 0.977599 0.080548
vn 0.194452 0.977599 0.080548
vn 0.194459 0.977598 -0.080548
vn 0.194459 0.977598 -0.080548
vn 0.194459 0.977598 -0.080548
s off
g pSphere4
f 1/1/1 2/2/2 10/11/3 9/10/4
f 2/2/5 3/3/6 11/12/7 10/11/8
f 3/3/9 4/4/10 12/13/11 11/12/12
f 4/4/13 5/5/14 13/14/15 12/13/16
f 5/5/17 6/6/18 14/15/19 13/14/20
f 6/6/21 7/7/22 15/16/23 14/15/24
f 7/7/25 8/8/26 16/17/27 15/16/28
f 8/8/29 1/9/30 9/18/31 16/17/32
f 9/10/33 10/11/34 18/20/35 17/19/36
f 10/11/37 11/12/38 19/21/39 18/20/40
f 11/12/41 12/13/42 20/22/43 19/21/44
f 12/13/45 13/14/46 21/23/47 20/22/48
f 13/14/49 14/15/50 22/24/51 21/23/52
f 14/15/53 15/16/54 23/25/55 22/24/56
f 15/16/57 16/17/58 24/26/59 23/25/60
f 16/17/61 9/18/62 17/27/63 24/26/64
f 17/19/65 18/20/66 26/29/67 25/28/68
f 18/20/69 19/21/70 27/30/71 26/29/72
f 19/21/73 20/22/74 28/31/75 27/30/76
f 20/22/77 21/23/78 29/32/79 28/31/80
f 21/23/81 22/24/82 30/33/83 29/32/84
f 22/24/85 23/25/86 31/34/87 30/33/88
f 23/25/89 24/26/90 32/35/91 31/34/92
f 24/26/93 17/27/94 25/36/95 32/35/96
f 25/28/97 26/29/98 34/38/99 33/37/100
f 26/29/101 27/30/102 35/39/103 34/38/104
f 27/30/105 28/31/106 36/40/107 35/39/108
f 28/31/109 29/32/110 37/41/111 36/40/112
f 29/32/113 30/33/114 38/42/115 37/41/116
f 30/33/117 31/34/118 39/43/119 38/42/120
f 31/34/121 32/35/122 40/44/123 39/43/124
f 32/35/125 25/36/126 33/45/127 40/44/128
f 33/37/129 34/38/130 42/47/131 41/46/132
f 34/38/133 35/39/134 43/48/135 42/47/136
f 35/39/137 36/40/138 44/49/139 43/48/140
f 36/40/141 37/41/142 45/50/143 44/49/144
f 37/41/145 38/42/146 46/51/147 45/50/148
f 38/42/149 39/43/150 47/52/151 46/51/152
f 39/43/153 40/44/154 48/53/155 47/52/156
f 40/44/157 33/45/158 41/54/159 48/53/160
f 41/46/161 42/47/162 50/56/163 49/55/164
f 42/47/165 43/48/166 51/57/167 50/56/168
f 43/48/169 44/49/170 52/58/171 51/57/172
f 44/49/173 45/50/174 53/59/175 52/58/176
f 45/50/177 46/51/178 54/60/179 53/59/180
f 46/51/181 47/52/182 55/61/183 54/60/184
f 47/52/185 48/53/186 56/62/187 55/61/188
f 48/53/189 41/54/190 49/63/191 56/62/192
f 2/2/193 1/1/194 57/64/195
f 3/3/196 2/2/197 57/65/198
f 4/4/199 3/3/200 57/66/201
f 5/5/202 4/4/203 57/67/204
f 6/6/205 5/5/206 57/68/207
f 7/7/208 6/6/209 57/69/210
f 8/8/211 7/7/212 57/70/213
f 1/9/214 8/8/215 57/71/216
f 49/55/217 50/56/218 58/72/219
f 50/56/220 51/57/221 58/73/222
f 51/57/223 52/58/224 58/74/225
f 52/58/226 53/59/227 58/75/228
f 53/59/229 54/60/230 58/76/231
f 54/60/232 55/61/233 58/77/234
f 55/61/235 56/62/236 58/78/237
f 56/62/238 49/63/239 58/79/240
