# This file uses meters as units for non-parametric coordinates.

g default
v -22.212729 0.000000 5.524754
v -13.657303 0.000000 5.524754
v -22.212729 7.185393 5.524754
v -13.657303 7.185393 5.524754
v -22.212729 7.185393 -2.098048
v -13.657303 7.185393 -2.098048
v -22.212729 0.000000 -2.098048
v -13.657303 0.000000 -2.098048
vt 0.204795 0.633256
vt 0.271671 0.633666
vt 0.223885 0.446173
vt 0.271671 0.675627
vt 0.102478 0.633483
vt 0.386187 0.590783
vt 0.144992 0.633389
vt 0.144842 0.566269
vt 0.204646 0.566136
vt 0.330133 0.633822
vt 0.330133 0.675471
vt 0.144992 0.675904
vt 0.223885 0.590783
vt 0.102329 0.566363
vt 0.204795 0.676036
vt 0.386187 0.446173
vn 0.000000 0.000000 1.000000
vn 0.000000 0.000000 1.000000
vn 0.000000 0.000000 1.000000
vn 0.000000 0.000000 1.000000
vn 0.000000 1.000000 0.000000
vn 0.000000 1.000000 0.000000
vn 0.000000 1.000000 0.000000
vn 0.000000 1.000000 0.000000
vn 0.000000 0.000000 -1.000000
vn 0.000000 0.000000 -1.000000
vn 0.000000 0.000000 -1.000000
vn 0.000000 0.000000 -1.000000
vn 0.000000 -1.000000 0.000000
vn 0.000000 -1.000000 0.000000
vn 0.000000 -1.000000 0.000000
vn 0.000000 -1.000000 0.000000
vn 1.000000 0.000000 0.000000
vn 1.000000 0.000000 0.000000
vn 1.000000 0.000000 0.000000
vn 1.000000 0.000000 0.000000
vn -1.000000 0.000000 0.000000
vn -1.000000 0.000000 0.000000
vn -1.000000 0.000000 0.000000
vn -1.000000 0.000000 0.000000
s off
g pCube27
f 1/1/1 2/2/2 4/4/3 3/15/4
f 3/3/5 4/16/6 6/6/7 5/13/8
f 5/5/9 6/14/10 8/8/11 7/7/12
f 7/7/13 8/8/14 2/9/15 1/1/16
f 2/2/17 8/10/18 6/11/19 4/4/20
f 7/7/21 1/1/22 3/15/23 5/12/24
