# This file uses meters as units for non-parametric coordinates.

g default
v -3.251926 0.000000 20.082370
v 5.303500 0.000000 20.082370
v -3.251926 7.185393 20.082370
v 5.303500 7.185393 20.082370
v -3.251926 7.185393 12.459568
v 5.303500 7.185393 12.459568
v -3.251926 0.000000 12.459568
v 5.303500 0.000000 12.459568
vt 0.494313 0.341507
vt 0.561189 0.341917
vt 0.508380 0.160006
vt 0.561189 0.383878
vt 0.391996 0.341735
vt 0.670682 0.304615
vt 0.434510 0.341640
vt 0.434360 0.274520
vt 0.494164 0.274387
vt 0.619651 0.342073
vt 0.619651 0.383722
vt 0.434510 0.384155
vt 0.508380 0.304615
vt 0.391847 0.274615
vt 0.494313 0.384288
vt 0.670682 0.160006
vn 0.000000 0.000000 1.000000
vn 0.000000 0.000000 1.000000
vn 0.000000 0.000000 1.000000
vn 0.000000 0.000000 1.000000
vn 0.000000 1.000000 0.000000
vn 0.000000 1.000000 0.000000
vn 0.000000 1.000000 0.000000
vn 0.000000 1.000000 0.000000
vn 0.000000 0.000000 -1.000000
vn 0.000000 0.000000 -1.000000
vn 0.000000 0.000000 -1.000000
vn 0.000000 0.000000 -1.000000
vn 0.000000 -1.000000 0.000000
vn 0.000000 -1.000000 0.000000
vn 0.000000 -1.000000 0.000000
vn 0.000000 -1.000000 0.000000
vn 1.000000 0.000000 0.000000
vn 1.000000 0.000000 0.000000
vn 1.000000 0.000000 0.000000
vn 1.000000 0.000000 0.000000
vn -1.000000 0.000000 0.000000
vn -1.000000 0.000000 0.000000
vn -1.000000 0.000000 0.000000
vn -1.000000 0.000000 0.000000
s off
g pCube29
f 1/1/1 2/2/2 4/4/3 3/15/4
f 3/3/5 4/16/6 6/6/7 5/13/8
f 5/5/9 6/14/10 8/8/11 7/7/12
f 7/7/13 8/8/14 2/9/15 1/1/16
f 2/2/17 8/10/18 6/11/19 4/4/20
f 7/7/21 1/1/22 3/15/23 5/12/24
